M48
METRIC,LZ,000.000
;FILE_FORMAT=3:3
;TYPE=PLATED
;Layer: PTH_Through
;EasyEDA v6.5.51, 2026-05-29 21:27:25
;98fb49a8f8dc4f8aa5796baa73e9f96a,10
;Gerber Generator version 0.2
;Holesize 1 = 0.600 mm
T01C0.600
;Holesize 2 = 0.635 mm
T02C0.635
;Holesize 3 = 0.800 mm
T03C0.800
;Holesize 4 = 0.901 mm
T04C0.901
;Holesize 5 = 1.016 mm
T05C1.016
%
G05
G90
T01
X050134Y049706G85X051334Y049706
X050134Y044706G85X051334Y044706
X050134Y051706G85X051334Y051706
X060934Y043106G85X062134Y043106
X060934Y052906G85X062134Y052906
T02
X014478Y036195
X014478Y033655
X014478Y043688
X014478Y041148
X014478Y051308
X014478Y048768
X014605Y058547
X014605Y056007
T03
X025908Y040189
X025908Y050489
X021082Y040316
X021082Y050616
X025908Y055302
X025908Y065602
X021209Y055429
X021209Y065729
T04
X046482Y034163
X031242Y036703
X031242Y041784
X031242Y046864
X031242Y051944
X031242Y057024
X031242Y062104
X031242Y067184
X046482Y069723
X046482Y064642
X046482Y059562
X046482Y054482
X046482Y049402
X046482Y044322
X046482Y039243
X046482Y036703
X046482Y041783
X046482Y046863
X046482Y051943
X046482Y057023
X046482Y062103
X046482Y067183
X031242Y069723
X031242Y064643
X031242Y059563
X031242Y054483
X031242Y049403
X031242Y044323
X031242Y039243
X031242Y034163
T05
X020955Y029591
X023495Y029591
X026035Y029591
X020828Y034417
X023368Y034417
X025908Y034417
M30
