G04 Layer: TopSolderMaskLayer*
G04 EasyEDA v6.5.51, 2026-05-29 21:27:25*
G04 98fb49a8f8dc4f8aa5796baa73e9f96a,10*
G04 Gerber Generator version 0.2*
G04 Scale: 100 percent, Rotated: No, Reflected: No *
G04 Dimensions in millimeters *
G04 leading zeros omitted , absolute positions ,4 integer and 5 decimal *
%FSLAX45Y45*%
%MOMM*%

%AMMACRO1*4,1,8,-0.7711,-0.7303,-0.8008,-0.7005,-0.8008,0.7005,-0.7711,0.7303,0.771,0.7303,0.8008,0.7005,0.8008,-0.7005,0.771,-0.7303,-0.7711,-0.7303,0*%
%AMMACRO2*4,1,8,-0.4211,-0.5008,-0.4508,-0.471,-0.4508,0.4711,-0.4211,0.5008,0.421,0.5008,0.4508,0.4711,0.4508,-0.471,0.421,-0.5008,-0.4211,-0.5008,0*%
%AMMACRO3*4,1,8,-0.471,-0.5508,-0.5008,-0.521,-0.5008,0.5211,-0.471,0.5508,0.471,0.5508,0.5008,0.5211,0.5008,-0.521,0.471,-0.5508,-0.471,-0.5508,0*%
%AMMACRO4*4,1,8,-0.5373,-0.5683,-0.5671,-0.5386,-0.5671,0.5386,-0.5373,0.5683,0.5373,0.5683,0.5671,0.5386,0.5671,-0.5386,0.5373,-0.5683,-0.5373,-0.5683,0*%
%AMMACRO5*4,1,8,-0.4243,-0.4828,-0.454,-0.453,-0.454,0.4531,-0.4243,0.4828,0.4243,0.4828,0.454,0.4531,0.454,-0.453,0.4243,-0.4828,-0.4243,-0.4828,0*%
%AMMACRO6*4,1,8,-0.8211,-0.8508,-0.8508,-0.821,-0.8508,0.8211,-0.8211,0.8508,0.821,0.8508,0.8508,0.8211,0.8508,-0.821,0.821,-0.8508,-0.8211,-0.8508,0*%
%AMMACRO7*4,1,8,-1.1911,-1.8508,-1.2208,-1.821,-1.2208,1.8211,-1.1911,1.8508,1.191,1.8508,1.2208,1.8211,1.2208,-1.821,1.191,-1.8508,-1.1911,-1.8508,0*%
%AMMACRO8*4,1,8,-1.2711,-0.6008,-1.3008,-0.571,-1.3008,0.5711,-1.2711,0.6008,1.271,0.6008,1.3008,0.5711,1.3008,-0.571,1.271,-0.6008,-1.2711,-0.6008,0*%
%ADD10MACRO1*%
%ADD11MACRO2*%
%ADD12MACRO3*%
%ADD13C,1.9812*%
%ADD14MACRO4*%
%ADD15MACRO5*%
%ADD16C,0.0155*%
%ADD17O,2.499995X1.299997*%
%ADD18C,1.4016*%
%ADD19MACRO6*%
%ADD20C,1.7016*%
%ADD21MACRO7*%
%ADD22MACRO8*%

%LPD*%
G36*
X4317390Y3001924D02*
G01*
X4310481Y3001772D01*
X4299407Y3000908D01*
X4294479Y2999486D01*
X4283456Y2997301D01*
X4278426Y2994812D01*
X4275836Y2993847D01*
X4274566Y2993644D01*
X4273397Y2993186D01*
X4270705Y2991307D01*
X4267200Y2989326D01*
X4264253Y2987192D01*
X4257395Y2981147D01*
X4253382Y2977235D01*
X4250842Y2972612D01*
X4248658Y2969209D01*
X4246727Y2964180D01*
X4244492Y2960065D01*
X4242003Y2947111D01*
X4240987Y2944317D01*
X4240987Y2927807D01*
X4242054Y2924860D01*
X4244441Y2912668D01*
X4246168Y2909316D01*
X4247235Y2906318D01*
X4248505Y2901492D01*
X4250893Y2898546D01*
X4252518Y2893466D01*
X4253484Y2891282D01*
X4254246Y2890418D01*
X4260900Y2878582D01*
X4263237Y2875178D01*
X4264355Y2872689D01*
X4263999Y2871724D01*
X4263440Y2870962D01*
X4262678Y2870809D01*
X4261662Y2871216D01*
X4259427Y2872994D01*
X4254855Y2875686D01*
X4251248Y2878226D01*
X4247591Y2880004D01*
X4244390Y2881985D01*
X4240225Y2883865D01*
X4236974Y2885744D01*
X4233976Y2886608D01*
X4227677Y2889300D01*
X4220311Y2891790D01*
X4216704Y2893364D01*
X4205071Y2897428D01*
X4201566Y2899054D01*
X4197959Y2901543D01*
X4195724Y2902762D01*
X4192574Y2905099D01*
X4187596Y2909620D01*
X4180992Y2919374D01*
X4180078Y2926486D01*
X4179468Y2928823D01*
X4178757Y2930398D01*
X4178046Y2930956D01*
X4177436Y2930245D01*
X4175760Y2926130D01*
X4175760Y2912008D01*
X4181500Y2903270D01*
X4185107Y2899257D01*
X4191152Y2894431D01*
X4195826Y2891028D01*
X4201007Y2888792D01*
X4206240Y2885846D01*
X4208170Y2885338D01*
X4210100Y2884525D01*
X4213504Y2882341D01*
X4218584Y2881426D01*
X4222140Y2879344D01*
X4226306Y2877769D01*
X4235094Y2873959D01*
X4241292Y2870555D01*
X4245965Y2868523D01*
X4248810Y2866694D01*
X4251096Y2865729D01*
X4259935Y2859989D01*
X4268774Y2853639D01*
X4279900Y2842412D01*
X4281119Y2839364D01*
X4282440Y2839364D01*
X4283456Y2837027D01*
X4285488Y2833624D01*
X4288637Y2829915D01*
X4292600Y2826308D01*
X4297070Y2823057D01*
X4300626Y2820771D01*
X4304284Y2819806D01*
X4306976Y2818790D01*
X4310837Y2816910D01*
X4322927Y2817012D01*
X4327601Y2818638D01*
X4324705Y2820111D01*
X4320387Y2820162D01*
X4310888Y2821381D01*
X4309262Y2823210D01*
X4305198Y2825851D01*
X4302150Y2828442D01*
X4299305Y2831338D01*
X4297527Y2833573D01*
X4296613Y2835300D01*
X4293158Y2837434D01*
X4293006Y2838805D01*
X4289196Y2844546D01*
X4287926Y2847035D01*
X4285081Y2851150D01*
X4284167Y2853283D01*
X4282846Y2854706D01*
X4281627Y2856636D01*
X4280560Y2858820D01*
X4279239Y2860497D01*
X4278680Y2860497D01*
X4277004Y2865932D01*
X4274413Y2869590D01*
X4269232Y2878937D01*
X4268927Y2880106D01*
X4265218Y2887776D01*
X4264914Y2888945D01*
X4263847Y2891332D01*
X4261053Y2896463D01*
X4261053Y2900222D01*
X4257700Y2907842D01*
X4254144Y2931617D01*
X4256684Y2945587D01*
X4257598Y2952038D01*
X4259427Y2954731D01*
X4260545Y2957068D01*
X4261713Y2960827D01*
X4264964Y2964484D01*
X4265523Y2965500D01*
X4276140Y2976270D01*
X4285183Y2981350D01*
X4292854Y2985160D01*
X4296714Y2985922D01*
X4299508Y2986887D01*
X4303369Y2988665D01*
X4320387Y2990799D01*
X4324299Y2991815D01*
X4346346Y2993034D01*
X4373372Y2991612D01*
X4380331Y2991002D01*
X4379468Y2992374D01*
X4373372Y2993237D01*
X4372711Y2994710D01*
X4371949Y2995676D01*
X4370527Y2996742D01*
X4352391Y2998927D01*
X4346346Y3000806D01*
X4325366Y3001772D01*
G37*
G36*
X4473498Y2994863D02*
G01*
X4454448Y2993745D01*
X4449724Y2991967D01*
X4441190Y2989630D01*
X4436160Y2987497D01*
X4430674Y2985465D01*
X4429048Y2984144D01*
X4425086Y2982214D01*
X4418584Y2978353D01*
X4416145Y2976575D01*
X4404918Y2966567D01*
X4400296Y2961792D01*
X4397908Y2958947D01*
X4396689Y2956915D01*
X4391761Y2950870D01*
X4391406Y2950006D01*
X4390390Y2948990D01*
X4387850Y2947314D01*
X4379163Y2946400D01*
X4367784Y2943301D01*
X4364075Y2940913D01*
X4362246Y2940050D01*
X4360824Y2939897D01*
X4355490Y2934868D01*
X4352290Y2931515D01*
X4348784Y2927197D01*
X4347565Y2923235D01*
X4346549Y2921152D01*
X4345025Y2919272D01*
X4344568Y2904286D01*
X4346194Y2900527D01*
X4348784Y2892247D01*
X4350918Y2889961D01*
X4352950Y2892755D01*
X4354017Y2906572D01*
X4358589Y2918460D01*
X4360367Y2922066D01*
X4362399Y2925318D01*
X4366412Y2930499D01*
X4370984Y2934563D01*
X4375861Y2937662D01*
X4378909Y2939897D01*
X4380585Y2939948D01*
X4381601Y2940354D01*
X4382719Y2941320D01*
X4384141Y2940456D01*
X4384090Y2938170D01*
X4383786Y2936646D01*
X4382871Y2934919D01*
X4379620Y2934157D01*
X4379671Y2929229D01*
X4379468Y2925673D01*
X4376826Y2925013D01*
X4376623Y2919780D01*
X4375150Y2913024D01*
X4372508Y2905658D01*
X4372508Y2865932D01*
X4376013Y2858262D01*
X4376928Y2851861D01*
X4378960Y2848813D01*
X4381093Y2850845D01*
X4381449Y2888996D01*
X4383786Y2898648D01*
X4384344Y2900172D01*
X4384903Y2902966D01*
X4385665Y2908858D01*
X4388256Y2914802D01*
X4389475Y2918256D01*
X4390237Y2921812D01*
X4392726Y2924911D01*
X4394301Y2930601D01*
X4396028Y2932582D01*
X4398467Y2937357D01*
X4401058Y2940964D01*
X4401718Y2942539D01*
X4402785Y2944114D01*
X4404360Y2945892D01*
X4407458Y2950210D01*
X4416755Y2960319D01*
X4420463Y2963926D01*
X4429709Y2970834D01*
X4433722Y2973425D01*
X4437735Y2975457D01*
X4441037Y2977591D01*
X4450537Y2981401D01*
X4452213Y2981655D01*
X4454855Y2982569D01*
X4460036Y2984804D01*
X4467809Y2985770D01*
X4481830Y2988259D01*
X4491177Y2989376D01*
X4495901Y2988513D01*
X4495901Y2987497D01*
X4483760Y2986176D01*
X4480864Y2983687D01*
X4475530Y2982417D01*
X4472330Y2981350D01*
X4461205Y2976168D01*
X4456226Y2973527D01*
X4451959Y2970936D01*
X4443374Y2964383D01*
X4436719Y2958033D01*
X4428896Y2949498D01*
X4427524Y2946400D01*
X4426762Y2945180D01*
X4425543Y2943910D01*
X4421632Y2936798D01*
X4418482Y2930245D01*
X4416907Y2925826D01*
X4414469Y2917698D01*
X4412843Y2913329D01*
X4412132Y2888996D01*
X4413504Y2874467D01*
X4416806Y2869793D01*
X4417822Y2863291D01*
X4418431Y2861106D01*
X4419142Y2859532D01*
X4420717Y2865272D01*
X4418888Y2881934D01*
X4422241Y2909468D01*
X4424578Y2916021D01*
X4425492Y2919323D01*
X4425645Y2921812D01*
X4427931Y2925064D01*
X4431030Y2931566D01*
X4438751Y2942945D01*
X4442917Y2947365D01*
X4449978Y2954070D01*
X4454093Y2957118D01*
X4458766Y2961233D01*
X4462576Y2962808D01*
X4466336Y2965399D01*
X4470755Y2967177D01*
X4475480Y2969869D01*
X4480458Y2970682D01*
X4482642Y2972358D01*
X4484624Y2973120D01*
X4486808Y2973628D01*
X4489907Y2973882D01*
X4504944Y2977845D01*
X4552442Y2977946D01*
X4562602Y2975508D01*
X4569307Y2974289D01*
X4577537Y2973222D01*
X4582261Y2971444D01*
X4586071Y2970377D01*
X4591812Y2969361D01*
X4596790Y2967278D01*
X4604867Y2965399D01*
X4607407Y2962910D01*
X4615180Y2961690D01*
X4617974Y2959252D01*
X4624019Y2957779D01*
X4626813Y2955899D01*
X4633976Y2952648D01*
X4636871Y2950870D01*
X4640478Y2949244D01*
X4653483Y2941574D01*
X4661712Y2935782D01*
X4663389Y2934970D01*
X4672076Y2928112D01*
X4679950Y2921050D01*
X4688382Y2913024D01*
X4698238Y2902610D01*
X4702149Y2897987D01*
X4707178Y2891485D01*
X4709617Y2887878D01*
X4710633Y2885389D01*
X4714646Y2883204D01*
X4714646Y2879852D01*
X4716526Y2878378D01*
X4717338Y2880461D01*
X4716627Y2882900D01*
X4715764Y2884424D01*
X4713986Y2886151D01*
X4713986Y2889758D01*
X4711750Y2893009D01*
X4709972Y2896514D01*
X4707636Y2899867D01*
X4705959Y2902966D01*
X4697882Y2913735D01*
X4691430Y2921304D01*
X4683861Y2928975D01*
X4675479Y2936595D01*
X4666538Y2943860D01*
X4657394Y2950514D01*
X4647438Y2956966D01*
X4635906Y2963570D01*
X4620971Y2970428D01*
X4615484Y2972511D01*
X4613808Y2973882D01*
X4607661Y2975610D01*
X4602530Y2977692D01*
X4595368Y2979724D01*
X4590999Y2981299D01*
X4577384Y2984500D01*
X4573168Y2985871D01*
X4563567Y2986989D01*
X4557979Y2987903D01*
X4552086Y2989224D01*
X4532884Y2990545D01*
X4505604Y2990189D01*
X4499965Y2993034D01*
X4491634Y2993948D01*
G37*
G36*
X4313580Y2975660D02*
G01*
X4303522Y2974086D01*
X4296816Y2970936D01*
X4292701Y2968650D01*
X4287977Y2965500D01*
X4280712Y2957525D01*
X4278985Y2953461D01*
X4278020Y2951734D01*
X4276953Y2950921D01*
X4275175Y2942996D01*
X4274058Y2938932D01*
X4272788Y2935732D01*
X4272788Y2915259D01*
X4274159Y2912668D01*
X4275277Y2909265D01*
X4276902Y2902407D01*
X4279392Y2898902D01*
X4280306Y2897124D01*
X4280560Y2896158D01*
X4281170Y2895092D01*
X4284776Y2890875D01*
X4290060Y2885389D01*
X4293209Y2882595D01*
X4296003Y2880461D01*
X4300423Y2877667D01*
X4304792Y2875381D01*
X4309719Y2873298D01*
X4315917Y2871165D01*
X4320032Y2870047D01*
X4332986Y2867558D01*
X4347006Y2865577D01*
X4349242Y2863392D01*
X4350512Y2862529D01*
X4351426Y2862326D01*
X4352340Y2861818D01*
X4353610Y2860395D01*
X4321759Y2861106D01*
X4320336Y2861970D01*
X4317238Y2862884D01*
X4310227Y2864510D01*
X4308551Y2865729D01*
X4306214Y2866898D01*
X4301286Y2868930D01*
X4300626Y2870606D01*
X4296664Y2871419D01*
X4294327Y2873908D01*
X4290517Y2873908D01*
X4290618Y2872943D01*
X4292803Y2870200D01*
X4293362Y2868472D01*
X4295495Y2867050D01*
X4303522Y2860497D01*
X4314748Y2855163D01*
X4332782Y2853537D01*
X4341215Y2852572D01*
X4350105Y2851200D01*
X4359097Y2850184D01*
X4362602Y2848000D01*
X4365752Y2846578D01*
X4370832Y2844952D01*
X4371695Y2845765D01*
X4367834Y2864104D01*
X4365802Y2871063D01*
X4365853Y2898597D01*
X4368800Y2905607D01*
X4369562Y2913938D01*
X4372356Y2917748D01*
X4373829Y2924860D01*
X4376877Y2925267D01*
X4376470Y2930601D01*
X4373880Y2930601D01*
X4372762Y2926435D01*
X4371797Y2926334D01*
X4370781Y2925622D01*
X4368952Y2923794D01*
X4368139Y2920085D01*
X4365244Y2917342D01*
X4363974Y2912821D01*
X4362958Y2910281D01*
X4361383Y2907842D01*
X4359503Y2898444D01*
X4358436Y2894177D01*
X4357370Y2891891D01*
X4356658Y2871063D01*
X4356100Y2870657D01*
X4354626Y2870098D01*
X4344466Y2872892D01*
X4342993Y2873857D01*
X4329684Y2875076D01*
X4322622Y2876397D01*
X4312056Y2880309D01*
X4310075Y2881376D01*
X4305046Y2884678D01*
X4300321Y2889097D01*
X4295343Y2894126D01*
X4289145Y2903423D01*
X4289044Y2905404D01*
X4288028Y2908401D01*
X4285488Y2914599D01*
X4285589Y2931922D01*
X4287316Y2936240D01*
X4290364Y2946552D01*
X4291787Y2947670D01*
X4292701Y2949295D01*
X4293920Y2952597D01*
X4301794Y2959963D01*
X4305655Y2962910D01*
X4309211Y2965196D01*
X4315104Y2967837D01*
X4318914Y2969920D01*
X4323283Y2970631D01*
X4325874Y2971342D01*
X4328718Y2972663D01*
X4326788Y2975457D01*
G37*
G36*
X4238447Y2972562D02*
G01*
X4237888Y2972308D01*
X4237024Y2970631D01*
X4233926Y2970631D01*
X4228287Y2965348D01*
X4225036Y2961589D01*
X4222292Y2957068D01*
X4220870Y2955442D01*
X4216806Y2939694D01*
X4217365Y2934208D01*
X4218432Y2928721D01*
X4220718Y2919069D01*
X4225899Y2909874D01*
X4228795Y2905455D01*
X4236262Y2897784D01*
X4239260Y2895295D01*
X4242917Y2893110D01*
X4243832Y2895955D01*
X4241850Y2897530D01*
X4241088Y2898597D01*
X4240428Y2900680D01*
X4235297Y2911094D01*
X4233164Y2914192D01*
X4232351Y2921660D01*
X4229557Y2929128D01*
X4228795Y2938932D01*
X4230217Y2950108D01*
X4232198Y2953054D01*
X4233113Y2959150D01*
X4236974Y2964586D01*
X4237024Y2966415D01*
X4238396Y2969615D01*
X4239107Y2972562D01*
G37*
G36*
X4502912Y2970682D02*
G01*
X4497425Y2968802D01*
X4492802Y2967583D01*
X4485538Y2966110D01*
X4485081Y2964891D01*
X4478680Y2962960D01*
X4476191Y2961995D01*
X4473803Y2960370D01*
X4470095Y2958541D01*
X4468520Y2957068D01*
X4462576Y2953461D01*
X4457954Y2949651D01*
X4453077Y2944622D01*
X4444390Y2933801D01*
X4443323Y2930906D01*
X4442663Y2929839D01*
X4442104Y2929432D01*
X4437481Y2918866D01*
X4435195Y2911043D01*
X4433062Y2902407D01*
X4433062Y2876194D01*
X4438396Y2856636D01*
X4439716Y2856636D01*
X4441139Y2860141D01*
X4442256Y2876194D01*
X4444187Y2881477D01*
X4445203Y2885643D01*
X4446270Y2891739D01*
X4448657Y2896108D01*
X4449572Y2898343D01*
X4449826Y2899562D01*
X4450638Y2901238D01*
X4459071Y2913888D01*
X4463084Y2918409D01*
X4467148Y2922320D01*
X4471212Y2925876D01*
X4475124Y2928670D01*
X4479493Y2931210D01*
X4483455Y2933954D01*
X4489500Y2936849D01*
X4491532Y2938475D01*
X4499254Y2939999D01*
X4499254Y2941624D01*
X4502658Y2943098D01*
X4506163Y2943047D01*
X4507941Y2942742D01*
X4509414Y2941980D01*
X4508296Y2941472D01*
X4500372Y2939592D01*
X4499813Y2937611D01*
X4493768Y2935884D01*
X4493107Y2934563D01*
X4491786Y2933547D01*
X4487418Y2931058D01*
X4483760Y2928416D01*
X4480052Y2925318D01*
X4476445Y2921812D01*
X4472990Y2918002D01*
X4469841Y2914091D01*
X4467047Y2910078D01*
X4462830Y2902813D01*
X4462119Y2902051D01*
X4458970Y2894482D01*
X4457293Y2891536D01*
X4455566Y2880664D01*
X4453432Y2876804D01*
X4453585Y2864002D01*
X4455261Y2860141D01*
X4456125Y2863291D01*
X4456836Y2867355D01*
X4457852Y2875483D01*
X4461002Y2878988D01*
X4461916Y2884525D01*
X4464761Y2890012D01*
X4466590Y2894380D01*
X4468926Y2898190D01*
X4471212Y2902661D01*
X4473905Y2906420D01*
X4477562Y2910789D01*
X4484166Y2917494D01*
X4489856Y2922320D01*
X4495901Y2926740D01*
X4501388Y2930093D01*
X4508398Y2933039D01*
X4511141Y2934919D01*
X4516882Y2936189D01*
X4526330Y2939135D01*
X4543145Y2940304D01*
X4546904Y2941116D01*
X4564126Y2939948D01*
X4566005Y2938932D01*
X4566716Y2938322D01*
X4566818Y2937510D01*
X4561687Y2935935D01*
X4559503Y2935020D01*
X4555794Y2932836D01*
X4553559Y2931769D01*
X4551172Y2929991D01*
X4546396Y2927400D01*
X4544771Y2925876D01*
X4541469Y2923743D01*
X4535373Y2918764D01*
X4535373Y2915462D01*
X4531766Y2912211D01*
X4522876Y2905658D01*
X4516729Y2900172D01*
X4511548Y2894584D01*
X4505553Y2885490D01*
X4503674Y2881630D01*
X4502759Y2880207D01*
X4501794Y2879140D01*
X4498797Y2869184D01*
X4497070Y2865272D01*
X4497832Y2858363D01*
X4499254Y2857042D01*
X4501134Y2859532D01*
X4501997Y2864916D01*
X4505096Y2867253D01*
X4505909Y2869590D01*
X4510024Y2876397D01*
X4516272Y2884881D01*
X4522216Y2891332D01*
X4527651Y2896158D01*
X4531817Y2899257D01*
X4537252Y2902508D01*
X4538675Y2903626D01*
X4544568Y2906166D01*
X4547057Y2907792D01*
X4553204Y2908909D01*
X4556404Y2909722D01*
X4558385Y2910484D01*
X4561433Y2911297D01*
X4567123Y2912364D01*
X4593894Y2912872D01*
X4597552Y2914497D01*
X4596130Y2916174D01*
X4592269Y2916834D01*
X4579874Y2920390D01*
X4554423Y2920288D01*
X4550156Y2918104D01*
X4545431Y2918104D01*
X4546193Y2920034D01*
X4547514Y2920187D01*
X4549089Y2921203D01*
X4550867Y2922727D01*
X4552442Y2923743D01*
X4553508Y2924048D01*
X4555540Y2925064D01*
X4559808Y2927705D01*
X4561840Y2927858D01*
X4564329Y2928670D01*
X4569155Y2930804D01*
X4579569Y2932836D01*
X4584547Y2934208D01*
X4601260Y2934868D01*
X4610608Y2932480D01*
X4615992Y2931566D01*
X4627372Y2925927D01*
X4631791Y2923082D01*
X4635246Y2919984D01*
X4638192Y2916428D01*
X4639665Y2914294D01*
X4637278Y2913075D01*
X4625340Y2913735D01*
X4619447Y2912008D01*
X4618939Y2910535D01*
X4622342Y2909570D01*
X4625949Y2908858D01*
X4632452Y2907944D01*
X4636770Y2905506D01*
X4642510Y2904642D01*
X4647082Y2902508D01*
X4650130Y2901492D01*
X4653940Y2900730D01*
X4658817Y2897835D01*
X4663948Y2897073D01*
X4667351Y2893771D01*
X4672533Y2893771D01*
X4672533Y2896260D01*
X4667504Y2897784D01*
X4663897Y2901492D01*
X4661204Y2901492D01*
X4657953Y2904083D01*
X4655515Y2905506D01*
X4652111Y2906776D01*
X4648149Y2911957D01*
X4646676Y2914243D01*
X4646269Y2915208D01*
X4643628Y2918307D01*
X4641951Y2920644D01*
X4638954Y2923844D01*
X4631182Y2931464D01*
X4627372Y2933395D01*
X4625898Y2934411D01*
X4625594Y2935020D01*
X4615332Y2939694D01*
X4605324Y2941878D01*
X4601260Y2943199D01*
X4583734Y2943098D01*
X4579467Y2941066D01*
X4571593Y2940354D01*
X4568596Y2942691D01*
X4566970Y2943606D01*
X4565751Y2943860D01*
X4563465Y2944723D01*
X4558792Y2946958D01*
X4535017Y2948127D01*
X4531715Y2949295D01*
X4522419Y2944774D01*
X4511446Y2944215D01*
X4510582Y2945638D01*
X4514291Y2947466D01*
X4515967Y2948584D01*
X4516831Y2949702D01*
X4514291Y2951530D01*
X4506569Y2950819D01*
X4504182Y2949498D01*
X4501388Y2948635D01*
X4496054Y2947517D01*
X4487164Y2943199D01*
X4479747Y2939288D01*
X4473346Y2935630D01*
X4466945Y2930906D01*
X4458970Y2924302D01*
X4449470Y2911856D01*
X4447641Y2908655D01*
X4444492Y2903880D01*
X4443577Y2898902D01*
X4442409Y2898902D01*
X4441850Y2901492D01*
X4441748Y2904845D01*
X4442053Y2911398D01*
X4444034Y2915208D01*
X4445254Y2918358D01*
X4446473Y2923133D01*
X4449013Y2925318D01*
X4450435Y2929229D01*
X4451400Y2930855D01*
X4456277Y2936951D01*
X4459986Y2941015D01*
X4468672Y2949194D01*
X4471365Y2951124D01*
X4483303Y2958490D01*
X4485233Y2958642D01*
X4487773Y2959608D01*
X4492904Y2962148D01*
X4500270Y2963113D01*
X4505604Y2965704D01*
X4535068Y2967736D01*
X4540402Y2968498D01*
X4535017Y2970123D01*
G37*
G36*
X4576114Y2965500D02*
G01*
X4571593Y2964688D01*
X4554524Y2962910D01*
X4549648Y2960776D01*
X4543450Y2958947D01*
X4537252Y2956458D01*
X4532376Y2954172D01*
X4531918Y2950616D01*
X4539792Y2951175D01*
X4543958Y2954020D01*
X4549648Y2955036D01*
X4553508Y2956102D01*
X4558436Y2958084D01*
X4579874Y2958947D01*
X4594758Y2957931D01*
X4602429Y2955645D01*
X4607712Y2954477D01*
X4616145Y2950921D01*
X4617364Y2950718D01*
X4618532Y2950159D01*
X4620260Y2948736D01*
X4624273Y2948533D01*
X4624628Y2949854D01*
X4620920Y2951530D01*
X4619498Y2954528D01*
X4616196Y2955340D01*
X4612741Y2958642D01*
X4608423Y2960065D01*
X4606137Y2961081D01*
X4604308Y2962452D01*
X4582261Y2965297D01*
G37*
G36*
X4345940Y2947416D02*
G01*
X4343349Y2947212D01*
X4337710Y2945079D01*
X4335475Y2944723D01*
X4330547Y2943098D01*
X4324451Y2939796D01*
X4316831Y2932277D01*
X4315510Y2928366D01*
X4314444Y2926283D01*
X4312920Y2924403D01*
X4312920Y2907385D01*
X4314494Y2905506D01*
X4315510Y2903524D01*
X4316780Y2899867D01*
X4320286Y2895701D01*
X4322013Y2893060D01*
X4324959Y2893466D01*
X4325366Y2898241D01*
X4322470Y2909112D01*
X4323029Y2913684D01*
X4323943Y2917647D01*
X4325874Y2923895D01*
X4329785Y2928620D01*
X4332732Y2931414D01*
X4335678Y2933852D01*
X4340758Y2937103D01*
X4341825Y2938018D01*
X4343552Y2938932D01*
X4345686Y2939694D01*
X4349902Y2941878D01*
X4352594Y2942996D01*
X4357674Y2944520D01*
X4359503Y2945434D01*
X4357217Y2947263D01*
G37*
G36*
X4537100Y2933496D02*
G01*
X4533392Y2933344D01*
X4521504Y2931871D01*
X4519828Y2930702D01*
X4514697Y2928874D01*
X4512411Y2927858D01*
X4509008Y2925826D01*
X4504537Y2923641D01*
X4501286Y2921660D01*
X4498035Y2919323D01*
X4494834Y2916682D01*
X4491583Y2913430D01*
X4485030Y2905607D01*
X4483252Y2902508D01*
X4482439Y2901594D01*
X4481271Y2899613D01*
X4479137Y2894939D01*
X4477715Y2893212D01*
X4474718Y2883204D01*
X4473194Y2879242D01*
X4472330Y2864662D01*
X4473905Y2857296D01*
X4475378Y2856433D01*
X4477105Y2858770D01*
X4478020Y2866390D01*
X4481017Y2871825D01*
X4482033Y2877464D01*
X4483811Y2880055D01*
X4485233Y2882798D01*
X4486452Y2885795D01*
X4487672Y2888081D01*
X4488535Y2889046D01*
X4489246Y2890367D01*
X4489958Y2892806D01*
X4492701Y2896158D01*
X4494377Y2899206D01*
X4499457Y2904845D01*
X4504842Y2910382D01*
X4509516Y2914497D01*
X4515307Y2918714D01*
X4520946Y2922219D01*
X4528312Y2925572D01*
X4531664Y2927654D01*
X4537456Y2928569D01*
X4540250Y2930702D01*
G37*
G36*
X4399076Y2913684D02*
G01*
X4397451Y2911805D01*
X4395520Y2899460D01*
X4393539Y2895752D01*
X4393539Y2878734D01*
X4395876Y2870606D01*
X4396740Y2866796D01*
X4396892Y2864358D01*
X4400905Y2859989D01*
X4400956Y2858211D01*
X4401515Y2856788D01*
X4402937Y2854756D01*
X4404918Y2855468D01*
X4404918Y2860446D01*
X4401667Y2867456D01*
X4400194Y2891383D01*
X4401616Y2907538D01*
X4400550Y2913227D01*
G37*
G36*
X4166311Y2904134D02*
G01*
X4165244Y2902762D01*
X4164634Y2900934D01*
X4163923Y2897327D01*
X4160570Y2891536D01*
X4159859Y2879852D01*
X4161536Y2876550D01*
X4162856Y2873298D01*
X4164736Y2867660D01*
X4166108Y2866491D01*
X4166666Y2865628D01*
X4166717Y2864408D01*
X4175150Y2857246D01*
X4178554Y2854909D01*
X4182059Y2852826D01*
X4187190Y2850337D01*
X4188561Y2849473D01*
X4188663Y2849219D01*
X4176369Y2847086D01*
X4171950Y2845257D01*
X4168800Y2844342D01*
X4164482Y2843631D01*
X4159250Y2841091D01*
X4156710Y2840126D01*
X4155389Y2839872D01*
X4151731Y2837738D01*
X4148175Y2836164D01*
X4142130Y2832404D01*
X4139031Y2830220D01*
X4136085Y2827782D01*
X4129532Y2821228D01*
X4125518Y2816453D01*
X4124604Y2816301D01*
X4124604Y2813100D01*
X4126687Y2813100D01*
X4133392Y2818384D01*
X4137406Y2820974D01*
X4140301Y2823311D01*
X4141266Y2823870D01*
X4142181Y2824073D01*
X4147261Y2827121D01*
X4156506Y2831439D01*
X4161637Y2833217D01*
X4166412Y2835402D01*
X4174439Y2836316D01*
X4181805Y2838907D01*
X4218432Y2839466D01*
X4226001Y2838348D01*
X4230217Y2837484D01*
X4234383Y2836164D01*
X4246219Y2835046D01*
X4250690Y2832455D01*
X4257395Y2831541D01*
X4262221Y2829458D01*
X4265218Y2828442D01*
X4268774Y2827680D01*
X4272229Y2825648D01*
X4278122Y2823108D01*
X4281932Y2820873D01*
X4287164Y2818688D01*
X4289145Y2819450D01*
X4289145Y2822651D01*
X4285284Y2827121D01*
X4284167Y2829001D01*
X4275937Y2838907D01*
X4272330Y2842260D01*
X4267606Y2846070D01*
X4262831Y2849524D01*
X4256074Y2853537D01*
X4254042Y2855163D01*
X4249623Y2856331D01*
X4242663Y2859074D01*
X4223258Y2860446D01*
X4215790Y2860497D01*
X4210761Y2861868D01*
X4205833Y2862681D01*
X4197299Y2863646D01*
X4194505Y2866085D01*
X4189476Y2866948D01*
X4188612Y2864815D01*
X4191508Y2863443D01*
X4193997Y2862935D01*
X4196791Y2859278D01*
X4203192Y2858414D01*
X4208780Y2855366D01*
X4229912Y2853740D01*
X4232859Y2853232D01*
X4235551Y2852267D01*
X4238955Y2851454D01*
X4246016Y2850235D01*
X4249775Y2847594D01*
X4254347Y2846882D01*
X4256633Y2844800D01*
X4258564Y2843479D01*
X4261713Y2841904D01*
X4260900Y2839974D01*
X4257649Y2840177D01*
X4253738Y2841447D01*
X4251807Y2842615D01*
X4250232Y2843276D01*
X4242054Y2845714D01*
X4238345Y2847035D01*
X4234230Y2847949D01*
X4229557Y2848711D01*
X4224680Y2849778D01*
X4218889Y2851505D01*
X4214063Y2851607D01*
X4209440Y2852064D01*
X4201566Y2853232D01*
X4200042Y2854248D01*
X4190898Y2857246D01*
X4184548Y2860497D01*
X4178909Y2864307D01*
X4176268Y2866491D01*
X4172915Y2870352D01*
X4169816Y2875076D01*
X4168901Y2876804D01*
X4166819Y2888996D01*
X4167632Y2893263D01*
X4167987Y2896717D01*
X4168089Y2901848D01*
G37*
G36*
X4596739Y2902661D02*
G01*
X4580839Y2902051D01*
X4573168Y2901492D01*
X4568240Y2899714D01*
X4564481Y2898648D01*
X4559096Y2897530D01*
X4553356Y2894939D01*
X4550613Y2893923D01*
X4549394Y2893720D01*
X4541977Y2889808D01*
X4533595Y2884576D01*
X4533239Y2884017D01*
X4529023Y2880868D01*
X4521403Y2873705D01*
X4515815Y2867558D01*
X4513783Y2864916D01*
X4510125Y2858414D01*
X4507890Y2852826D01*
X4509770Y2850235D01*
X4510532Y2849676D01*
X4514951Y2849676D01*
X4520031Y2853537D01*
X4525314Y2852674D01*
X4529531Y2854655D01*
X4531106Y2855671D01*
X4531563Y2856331D01*
X4532782Y2857347D01*
X4540656Y2862681D01*
X4546549Y2865983D01*
X4552340Y2868879D01*
X4559300Y2871114D01*
X4565142Y2873451D01*
X4587443Y2876651D01*
X4617974Y2873908D01*
X4623003Y2874670D01*
X4623816Y2875991D01*
X4621987Y2877718D01*
X4611420Y2879648D01*
X4608169Y2881731D01*
X4599076Y2882493D01*
X4591710Y2882849D01*
X4580534Y2882900D01*
X4568494Y2881579D01*
X4559350Y2878429D01*
X4555642Y2878429D01*
X4552442Y2876092D01*
X4547666Y2874822D01*
X4544974Y2873857D01*
X4540199Y2871419D01*
X4536948Y2870708D01*
X4535373Y2870708D01*
X4535373Y2872638D01*
X4538522Y2874213D01*
X4543856Y2877667D01*
X4545380Y2878226D01*
X4548124Y2880766D01*
X4553508Y2882341D01*
X4555947Y2884678D01*
X4562652Y2886049D01*
X4567174Y2888640D01*
X4581144Y2891078D01*
X4588560Y2892755D01*
X4612640Y2892755D01*
X4620971Y2890824D01*
X4626965Y2889707D01*
X4635144Y2888691D01*
X4639513Y2886913D01*
X4642764Y2885998D01*
X4647438Y2885287D01*
X4654804Y2881731D01*
X4660442Y2880868D01*
X4663795Y2878328D01*
X4668367Y2877464D01*
X4671923Y2875889D01*
X4672685Y2874924D01*
X4675276Y2874010D01*
X4679645Y2871774D01*
X4684064Y2869844D01*
X4687925Y2867761D01*
X4691380Y2866288D01*
X4693158Y2865272D01*
X4695596Y2863189D01*
X4699965Y2862427D01*
X4703216Y2859125D01*
X4706315Y2859532D01*
X4706315Y2862072D01*
X4702200Y2863240D01*
X4700930Y2865831D01*
X4697679Y2867609D01*
X4696307Y2868574D01*
X4695748Y2869234D01*
X4685284Y2875686D01*
X4684420Y2875889D01*
X4683963Y2876245D01*
X4683912Y2877108D01*
X4675936Y2880969D01*
X4669840Y2884220D01*
X4667961Y2885440D01*
X4666284Y2886151D01*
X4663338Y2886811D01*
X4658868Y2889961D01*
X4656226Y2889961D01*
X4649419Y2893568D01*
X4643729Y2894736D01*
X4640783Y2895701D01*
X4638395Y2897022D01*
X4629607Y2898800D01*
X4625086Y2899918D01*
X4621326Y2901340D01*
X4604258Y2902508D01*
G37*
G36*
X4631385Y2859836D02*
G01*
X4613808Y2859684D01*
X4604512Y2859379D01*
X4596485Y2858719D01*
X4593996Y2857601D01*
X4590186Y2856534D01*
X4582160Y2854807D01*
X4579772Y2853436D01*
X4573574Y2851200D01*
X4571288Y2850184D01*
X4564735Y2846070D01*
X4565599Y2843834D01*
X4568444Y2843174D01*
X4577892Y2842920D01*
X4583176Y2845714D01*
X4586325Y2847035D01*
X4591202Y2848559D01*
X4594910Y2850337D01*
X4608880Y2852420D01*
X4612640Y2853486D01*
X4632045Y2854248D01*
X4647438Y2851404D01*
X4657750Y2851200D01*
X4659426Y2852826D01*
X4657445Y2854655D01*
X4647488Y2856026D01*
X4643018Y2858566D01*
G37*
G36*
X4306112Y2845765D02*
G01*
X4302201Y2845612D01*
X4304538Y2845003D01*
X4304538Y2842107D01*
X4309008Y2836976D01*
X4311599Y2834690D01*
X4314393Y2832608D01*
X4323384Y2827680D01*
X4339996Y2827731D01*
X4348073Y2831896D01*
X4350867Y2833624D01*
X4351324Y2834640D01*
X4348784Y2836164D01*
X4330903Y2836164D01*
X4322927Y2837535D01*
X4319930Y2839212D01*
X4313377Y2841802D01*
X4310430Y2843733D01*
G37*
G36*
X4637074Y2845460D02*
G01*
X4632401Y2845358D01*
X4621631Y2844596D01*
X4614011Y2843682D01*
X4609033Y2842666D01*
X4606188Y2841345D01*
X4604613Y2840177D01*
X4598212Y2839110D01*
X4596485Y2838500D01*
X4596231Y2837840D01*
X4597400Y2837078D01*
X4598568Y2836621D01*
X4634077Y2836265D01*
X4650079Y2834741D01*
X4655616Y2833065D01*
X4660442Y2832049D01*
X4668164Y2830982D01*
X4671771Y2829255D01*
X4677003Y2827782D01*
X4684471Y2825089D01*
X4688738Y2823768D01*
X4697069Y2820162D01*
X4700016Y2819146D01*
X4704283Y2816758D01*
X4706416Y2815996D01*
X4708398Y2814929D01*
X4709820Y2813862D01*
X4711446Y2812999D01*
X4713884Y2812338D01*
X4718405Y2808732D01*
X4721606Y2807258D01*
X4726838Y2803753D01*
X4733239Y2798978D01*
X4743856Y2789986D01*
X4754321Y2779979D01*
X4764430Y2769666D01*
X4766208Y2770327D01*
X4766208Y2774594D01*
X4765040Y2776880D01*
X4764328Y2777744D01*
X4763719Y2777998D01*
X4763008Y2778912D01*
X4759909Y2784602D01*
X4756150Y2789834D01*
X4750917Y2795778D01*
X4743754Y2803042D01*
X4736541Y2809748D01*
X4729632Y2815640D01*
X4723739Y2820009D01*
X4719421Y2822448D01*
X4718761Y2823006D01*
X4718659Y2823921D01*
X4714036Y2825902D01*
X4712258Y2826867D01*
X4711039Y2827934D01*
X4706264Y2830169D01*
X4703572Y2831744D01*
X4697780Y2834081D01*
X4695698Y2835452D01*
X4690211Y2837078D01*
X4683353Y2839567D01*
X4679543Y2840583D01*
X4675530Y2841345D01*
X4670196Y2844038D01*
X4652670Y2845003D01*
G37*
G36*
X4715662Y2839110D02*
G01*
X4710988Y2837992D01*
X4715408Y2836164D01*
X4719828Y2831642D01*
X4721199Y2831541D01*
X4729784Y2826512D01*
X4736642Y2821838D01*
X4741367Y2818892D01*
X4742586Y2817520D01*
X4747717Y2813862D01*
X4753711Y2808732D01*
X4759960Y2802839D01*
X4769256Y2792679D01*
X4770069Y2791358D01*
X4770221Y2790088D01*
X4772660Y2788818D01*
X4774387Y2785211D01*
X4775250Y2783840D01*
X4775860Y2783332D01*
X4777079Y2781554D01*
X4781702Y2773273D01*
X4785410Y2766009D01*
X4786122Y2764129D01*
X4786325Y2762808D01*
X4786884Y2761335D01*
X4788408Y2759202D01*
X4791100Y2761538D01*
X4790389Y2775000D01*
X4788408Y2778912D01*
X4787290Y2781909D01*
X4786223Y2786227D01*
X4783937Y2789783D01*
X4783023Y2791561D01*
X4782718Y2792679D01*
X4778400Y2799334D01*
X4778095Y2800146D01*
X4774895Y2802940D01*
X4774895Y2804668D01*
X4759807Y2819298D01*
X4751527Y2824530D01*
X4744466Y2828594D01*
X4735118Y2832912D01*
X4731308Y2834386D01*
X4728362Y2835960D01*
X4722418Y2837078D01*
X4719015Y2837942D01*
G37*
G36*
X4212539Y2832862D02*
G01*
X4207306Y2832100D01*
X4204563Y2831439D01*
X4199686Y2829610D01*
X4193641Y2827832D01*
X4192422Y2826461D01*
X4191558Y2825953D01*
X4190492Y2825648D01*
X4187748Y2824022D01*
X4181652Y2819806D01*
X4174032Y2810865D01*
X4176420Y2809443D01*
X4177690Y2809341D01*
X4179062Y2809798D01*
X4183481Y2812338D01*
X4184650Y2812592D01*
X4189222Y2814726D01*
X4192676Y2816047D01*
X4199178Y2818079D01*
X4203192Y2819704D01*
X4226610Y2821228D01*
X4247997Y2820009D01*
X4252315Y2818282D01*
X4255211Y2817418D01*
X4258970Y2816758D01*
X4261866Y2818739D01*
X4258056Y2821076D01*
X4256582Y2822295D01*
X4256125Y2822956D01*
X4254246Y2824022D01*
X4251401Y2825242D01*
X4248810Y2826664D01*
X4246626Y2828391D01*
X4240428Y2829814D01*
X4236872Y2830931D01*
X4233367Y2832506D01*
G37*
G36*
X4634077Y2828391D02*
G01*
X4626559Y2827070D01*
X4624019Y2826308D01*
X4628337Y2825496D01*
X4645253Y2824226D01*
X4646015Y2823260D01*
X4647184Y2822295D01*
X4649165Y2821432D01*
X4659426Y2819501D01*
X4660595Y2818841D01*
X4658715Y2818028D01*
X4647742Y2815488D01*
X4647031Y2815183D01*
X4646422Y2814574D01*
X4648758Y2812592D01*
X4659680Y2809290D01*
X4670196Y2808478D01*
X4675530Y2806293D01*
X4679238Y2805125D01*
X4684064Y2804058D01*
X4689703Y2800908D01*
X4692345Y2800908D01*
X4695393Y2797860D01*
X4700981Y2796489D01*
X4703978Y2793238D01*
X4706518Y2793238D01*
X4707280Y2791307D01*
X4709312Y2791307D01*
X4709261Y2792171D01*
X4707940Y2793593D01*
X4707382Y2794508D01*
X4707331Y2795727D01*
X4696053Y2806192D01*
X4690465Y2810256D01*
X4686503Y2812796D01*
X4675479Y2818587D01*
X4672787Y2820212D01*
X4666843Y2822143D01*
X4664608Y2823108D01*
X4663084Y2824022D01*
X4654753Y2825394D01*
X4650028Y2826410D01*
X4645507Y2827832D01*
G37*
G36*
X4160824Y2820060D02*
G01*
X4150512Y2815894D01*
X4146651Y2813507D01*
X4145635Y2813100D01*
X4141571Y2810154D01*
X4135882Y2805328D01*
X4133596Y2802839D01*
X4128617Y2796235D01*
X4125722Y2790901D01*
X4123994Y2788666D01*
X4122369Y2781401D01*
X4120591Y2779369D01*
X4119067Y2772105D01*
X4116679Y2771546D01*
X4100829Y2769666D01*
X4090771Y2766923D01*
X4084218Y2762351D01*
X4081322Y2759862D01*
X4079138Y2757678D01*
X4077360Y2754884D01*
X4076852Y2754579D01*
X4075937Y2753156D01*
X4072940Y2746400D01*
X4071162Y2739593D01*
X4070451Y2738018D01*
X4069435Y2737104D01*
X4064914Y2735529D01*
X4057142Y2731820D01*
X4053332Y2729280D01*
X4052163Y2728722D01*
X4048404Y2725521D01*
X4039615Y2717139D01*
X4039463Y2715869D01*
X4038549Y2714294D01*
X4036161Y2711196D01*
X4034637Y2706928D01*
X4033621Y2704795D01*
X4032250Y2703169D01*
X4029811Y2690215D01*
X4028084Y2688234D01*
X4028592Y2676550D01*
X4030929Y2674924D01*
X4030929Y2672435D01*
X4028592Y2669336D01*
X4027728Y2667812D01*
X4027424Y2666847D01*
X4026458Y2665120D01*
X4024020Y2661615D01*
X4021124Y2653639D01*
X4019651Y2650744D01*
X4017568Y2638755D01*
X4016197Y2633472D01*
X4016197Y2622092D01*
X4017568Y2617063D01*
X4019702Y2604617D01*
X4021328Y2601671D01*
X4024274Y2593949D01*
X4026357Y2590393D01*
X4027525Y2587599D01*
X4031437Y2580741D01*
X4031640Y2579827D01*
X4033012Y2577896D01*
X4046423Y2553970D01*
X4048760Y2546045D01*
X4050233Y2543098D01*
X4051401Y2533853D01*
X4051858Y2531770D01*
X4052417Y2530856D01*
X4054094Y2530602D01*
X4056024Y2534005D01*
X4056024Y2555290D01*
X4053890Y2560066D01*
X4052722Y2563368D01*
X4051655Y2567686D01*
X4049318Y2571038D01*
X4048455Y2572664D01*
X4048201Y2573731D01*
X4032910Y2603957D01*
X4030421Y2615133D01*
X4028744Y2621280D01*
X4029456Y2637282D01*
X4030624Y2640380D01*
X4031487Y2644292D01*
X4032758Y2652014D01*
X4036263Y2658262D01*
X4036263Y2660954D01*
X4038549Y2664866D01*
X4039819Y2667457D01*
X4040987Y2670759D01*
X4042816Y2672384D01*
X4043527Y2673350D01*
X4044238Y2675178D01*
X4047947Y2680970D01*
X4051096Y2685135D01*
X4052468Y2687675D01*
X4053332Y2688844D01*
X4055668Y2690977D01*
X4055668Y2693162D01*
X4053535Y2693974D01*
X4048150Y2690317D01*
X4042714Y2685745D01*
X4037888Y2681020D01*
X4034993Y2677464D01*
X4034231Y2676042D01*
X4031132Y2676042D01*
X4031742Y2683408D01*
X4035450Y2687218D01*
X4036618Y2690571D01*
X4040174Y2696464D01*
X4040428Y2697429D01*
X4044137Y2702306D01*
X4044442Y2703068D01*
X4045407Y2704236D01*
X4051503Y2710078D01*
X4057853Y2715310D01*
X4059478Y2716225D01*
X4060951Y2716377D01*
X4064203Y2719019D01*
X4065828Y2720086D01*
X4069130Y2721051D01*
X4073804Y2722981D01*
X4078224Y2718866D01*
X4081170Y2724810D01*
X4086809Y2727198D01*
X4104182Y2729026D01*
X4108399Y2730500D01*
X4112158Y2731363D01*
X4118356Y2732379D01*
X4129684Y2737662D01*
X4134307Y2740355D01*
X4138523Y2743657D01*
X4147870Y2752496D01*
X4150664Y2755544D01*
X4161129Y2769819D01*
X4164025Y2773375D01*
X4164634Y2774442D01*
X4164888Y2775356D01*
X4165854Y2776728D01*
X4171848Y2783027D01*
X4181500Y2792272D01*
X4182770Y2793085D01*
X4183583Y2793339D01*
X4185920Y2795219D01*
X4194301Y2800146D01*
X4196486Y2800959D01*
X4198518Y2801416D01*
X4200448Y2802128D01*
X4202480Y2803499D01*
X4200144Y2805734D01*
X4189831Y2805582D01*
X4179773Y2800146D01*
X4175556Y2797606D01*
X4171696Y2794914D01*
X4167479Y2791612D01*
X4163974Y2788462D01*
X4155033Y2779369D01*
X4146804Y2769819D01*
X4145940Y2768447D01*
X4142435Y2765094D01*
X4140962Y2764282D01*
X4137202Y2760776D01*
X4130751Y2756306D01*
X4128414Y2755341D01*
X4127550Y2754731D01*
X4126280Y2753106D01*
X4122115Y2751531D01*
X4120083Y2750413D01*
X4118457Y2749042D01*
X4113072Y2747518D01*
X4108653Y2745689D01*
X4105503Y2744673D01*
X4101693Y2743758D01*
X4098493Y2742742D01*
X4096054Y2741371D01*
X4083964Y2740507D01*
X4080256Y2741422D01*
X4081119Y2745486D01*
X4083913Y2749346D01*
X4086809Y2752496D01*
X4092143Y2757474D01*
X4103522Y2762453D01*
X4118813Y2763316D01*
X4123436Y2766314D01*
X4125518Y2766415D01*
X4127144Y2766923D01*
X4135272Y2770886D01*
X4142994Y2778810D01*
X4144111Y2780487D01*
X4143349Y2782366D01*
X4140809Y2782366D01*
X4139285Y2780741D01*
X4129836Y2775864D01*
X4128109Y2775356D01*
X4125874Y2775305D01*
X4125010Y2777439D01*
X4126737Y2777998D01*
X4130497Y2785414D01*
X4134307Y2791561D01*
X4136288Y2794203D01*
X4140809Y2799384D01*
X4146702Y2805226D01*
X4152392Y2810256D01*
X4156303Y2813100D01*
X4158234Y2814066D01*
X4158894Y2816352D01*
X4163110Y2818079D01*
X4163923Y2818688D01*
X4163872Y2819247D01*
X4163009Y2819755D01*
X4161891Y2820060D01*
G37*
G36*
X4233316Y2805379D02*
G01*
X4212894Y2786075D01*
X4207256Y2780334D01*
X4202531Y2775000D01*
X4192219Y2762148D01*
X4186072Y2754833D01*
X4174032Y2742031D01*
X4166260Y2735072D01*
X4154678Y2726080D01*
X4150868Y2723591D01*
X4150410Y2723083D01*
X4143908Y2719781D01*
X4142536Y2718562D01*
X4139895Y2717647D01*
X4131208Y2713786D01*
X4126484Y2712872D01*
X4123690Y2712059D01*
X4120794Y2710688D01*
X4105605Y2708656D01*
X4104894Y2708046D01*
X4098290Y2706217D01*
X4092448Y2704998D01*
X4090212Y2703626D01*
X4084421Y2701594D01*
X4076039Y2697632D01*
X4069842Y2694076D01*
X4068318Y2693974D01*
X4067606Y2692501D01*
X4066133Y2691231D01*
X4064050Y2689910D01*
X4061866Y2688132D01*
X4056227Y2682240D01*
X4053128Y2678277D01*
X4047794Y2670556D01*
X4046474Y2666441D01*
X4045407Y2664155D01*
X4043781Y2661920D01*
X4042105Y2653284D01*
X4039971Y2649423D01*
X4040124Y2635250D01*
X4041800Y2632608D01*
X4042003Y2632608D01*
X4044391Y2645613D01*
X4047083Y2650947D01*
X4048150Y2653538D01*
X4048455Y2654858D01*
X4052011Y2661412D01*
X4053789Y2665882D01*
X4055110Y2666390D01*
X4055618Y2667000D01*
X4055668Y2667355D01*
X4056989Y2669489D01*
X4060088Y2673299D01*
X4063695Y2677261D01*
X4067505Y2680665D01*
X4072077Y2684272D01*
X4077055Y2687066D01*
X4079290Y2688844D01*
X4083304Y2689860D01*
X4090314Y2692704D01*
X4101642Y2694482D01*
X4106062Y2696667D01*
X4119981Y2697784D01*
X4127906Y2700985D01*
X4135932Y2700985D01*
X4135932Y2699308D01*
X4125772Y2691942D01*
X4121302Y2689961D01*
X4115612Y2687116D01*
X4110990Y2685592D01*
X4109516Y2683814D01*
X4101947Y2681732D01*
X4100525Y2680055D01*
X4092448Y2677718D01*
X4092448Y2677210D01*
X4091279Y2676448D01*
X4084523Y2673959D01*
X4083862Y2672283D01*
X4078732Y2670708D01*
X4070400Y2663444D01*
X4068622Y2661361D01*
X4064457Y2655112D01*
X4063288Y2652725D01*
X4059682Y2642768D01*
X4058869Y2621280D01*
X4060444Y2593187D01*
X4062577Y2580284D01*
X4062679Y2529687D01*
X4061002Y2524252D01*
X4059885Y2518714D01*
X4058412Y2508859D01*
X4056938Y2505964D01*
X4055770Y2502611D01*
X4054144Y2496362D01*
X4052773Y2494686D01*
X4049369Y2487320D01*
X4045153Y2479903D01*
X4043934Y2478582D01*
X4043324Y2476957D01*
X4041241Y2474722D01*
X4037990Y2470353D01*
X4034282Y2466695D01*
X4034282Y2464562D01*
X4032910Y2465374D01*
X4032910Y2470759D01*
X4035399Y2474620D01*
X4036314Y2480462D01*
X4035450Y2482596D01*
X4032859Y2482596D01*
X4031284Y2479141D01*
X4027678Y2473909D01*
X4026408Y2470658D01*
X4024122Y2465832D01*
X4021480Y2459228D01*
X4020159Y2457145D01*
X4018127Y2445766D01*
X4016857Y2444191D01*
X4013301Y2437942D01*
X4011777Y2436368D01*
X4008069Y2430627D01*
X4006443Y2427224D01*
X4004614Y2424633D01*
X4003446Y2422347D01*
X4001668Y2417978D01*
X3999585Y2414371D01*
X3998620Y2407970D01*
X3995775Y2401570D01*
X3995928Y2385568D01*
X3997604Y2381707D01*
X3998823Y2385822D01*
X3999484Y2390241D01*
X4000195Y2398369D01*
X4003497Y2403195D01*
X4004360Y2409037D01*
X4006494Y2412085D01*
X4008170Y2415489D01*
X4012946Y2423769D01*
X4016603Y2426868D01*
X4017772Y2427528D01*
X4018279Y2426411D01*
X4019804Y2420162D01*
X4023766Y2411984D01*
X4026966Y2407818D01*
X4027576Y2406650D01*
X4028948Y2404973D01*
X4036161Y2398268D01*
X4041698Y2394000D01*
X4043984Y2396185D01*
X4040479Y2399030D01*
X4039514Y2402840D01*
X4036415Y2406040D01*
X4035704Y2408631D01*
X4034637Y2410764D01*
X4032351Y2414066D01*
X4031437Y2419502D01*
X4028694Y2423820D01*
X4028033Y2438501D01*
X4028389Y2442108D01*
X4054652Y2469794D01*
X4059428Y2475484D01*
X4068368Y2488844D01*
X4068521Y2490774D01*
X4069435Y2493264D01*
X4071721Y2498090D01*
X4073499Y2508199D01*
X4075887Y2519730D01*
X4075277Y2551430D01*
X4072534Y2568752D01*
X4071670Y2584246D01*
X4069029Y2592425D01*
X4066946Y2622550D01*
X4067606Y2633929D01*
X4068165Y2640025D01*
X4069029Y2645410D01*
X4073550Y2655214D01*
X4077868Y2659430D01*
X4086098Y2666390D01*
X4087672Y2666542D01*
X4089755Y2667406D01*
X4093921Y2669743D01*
X4097172Y2668930D01*
X4095292Y2667000D01*
X4094226Y2665120D01*
X4088790Y2657805D01*
X4087774Y2655976D01*
X4087215Y2654503D01*
X4084269Y2649524D01*
X4079798Y2638348D01*
X4075531Y2622550D01*
X4075531Y2587294D01*
X4077208Y2582722D01*
X4080713Y2566873D01*
X4081881Y2563622D01*
X4083456Y2556357D01*
X4083862Y2552649D01*
X4084574Y2549652D01*
X4086351Y2544419D01*
X4087774Y2530398D01*
X4087774Y2509774D01*
X4086402Y2499055D01*
X4084370Y2495296D01*
X4083050Y2487574D01*
X4079646Y2481427D01*
X4080103Y2476500D01*
X4082440Y2476093D01*
X4084218Y2479802D01*
X4085437Y2481630D01*
X4086961Y2482900D01*
X4091787Y2494534D01*
X4095953Y2518765D01*
X4095191Y2534208D01*
X4093667Y2541320D01*
X4092752Y2547213D01*
X4091838Y2556256D01*
X4088637Y2564892D01*
X4087825Y2571140D01*
X4086707Y2576677D01*
X4084421Y2585669D01*
X4084269Y2621280D01*
X4086453Y2628442D01*
X4087774Y2631084D01*
X4088637Y2638348D01*
X4090720Y2641396D01*
X4094429Y2648813D01*
X4098036Y2654147D01*
X4101287Y2657805D01*
X4105148Y2661615D01*
X4115257Y2669895D01*
X4126229Y2678430D01*
X4127042Y2678836D01*
X4132173Y2683154D01*
X4146702Y2696057D01*
X4155236Y2704185D01*
X4161993Y2710992D01*
X4165396Y2715158D01*
X4166870Y2715717D01*
X4168089Y2715006D01*
X4167987Y2712567D01*
X4166565Y2705811D01*
X4164482Y2703525D01*
X4162145Y2688742D01*
X4160621Y2686964D01*
X4158081Y2661615D01*
X4156659Y2656281D01*
X4154474Y2643022D01*
X4152392Y2638552D01*
X4150969Y2633776D01*
X4147921Y2627274D01*
X4148328Y2621889D01*
X4150410Y2621534D01*
X4153560Y2624226D01*
X4154525Y2624683D01*
X4155236Y2624531D01*
X4156862Y2622854D01*
X4155592Y2612999D01*
X4154525Y2607818D01*
X4152087Y2604465D01*
X4151071Y2602382D01*
X4146296Y2596540D01*
X4136999Y2589022D01*
X4131157Y2583281D01*
X4126128Y2577185D01*
X4124756Y2575204D01*
X4124096Y2573680D01*
X4123893Y2570937D01*
X4126077Y2570124D01*
X4131868Y2575610D01*
X4135729Y2578658D01*
X4139082Y2580944D01*
X4141571Y2582011D01*
X4143197Y2583027D01*
X4146092Y2585618D01*
X4148124Y2584856D01*
X4147261Y2577084D01*
X4144670Y2571902D01*
X4142536Y2561031D01*
X4140809Y2558440D01*
X4138523Y2544419D01*
X4136542Y2539898D01*
X4135120Y2528062D01*
X4134104Y2521559D01*
X4131411Y2508504D01*
X4130344Y2504897D01*
X4129024Y2507894D01*
X4128465Y2536291D01*
X4131360Y2547467D01*
X4131818Y2550312D01*
X4131665Y2552141D01*
X4130040Y2555290D01*
X4128211Y2552141D01*
X4126788Y2550261D01*
X4124706Y2548178D01*
X4121912Y2540965D01*
X4121556Y2540457D01*
X4118000Y2537510D01*
X4116628Y2542489D01*
X4115358Y2563622D01*
X4116933Y2584805D01*
X4119219Y2587904D01*
X4119168Y2590698D01*
X4118864Y2592171D01*
X4118051Y2593543D01*
X4116222Y2590901D01*
X4113174Y2587701D01*
X4112056Y2586126D01*
X4109821Y2580995D01*
X4108196Y2582570D01*
X4108450Y2595270D01*
X4111294Y2601569D01*
X4112361Y2604566D01*
X4112564Y2606649D01*
X4114901Y2610053D01*
X4117746Y2616098D01*
X4120642Y2620365D01*
X4124553Y2625344D01*
X4137406Y2639618D01*
X4139387Y2642260D01*
X4141724Y2646578D01*
X4144010Y2649220D01*
X4144010Y2653538D01*
X4142435Y2654452D01*
X4138269Y2649220D01*
X4132275Y2642616D01*
X4124706Y2634996D01*
X4112310Y2621127D01*
X4111091Y2619451D01*
X4110634Y2618435D01*
X4110075Y2617825D01*
X4109212Y2617724D01*
X4108348Y2620975D01*
X4109262Y2626309D01*
X4111751Y2630220D01*
X4112717Y2635351D01*
X4116425Y2642514D01*
X4116730Y2643479D01*
X4120387Y2648966D01*
X4120642Y2649829D01*
X4122928Y2652471D01*
X4125722Y2656382D01*
X4130649Y2661767D01*
X4137151Y2668371D01*
X4139793Y2671368D01*
X4141622Y2674112D01*
X4143908Y2674823D01*
X4144670Y2676855D01*
X4145787Y2678430D01*
X4147972Y2680665D01*
X4147972Y2683764D01*
X4150055Y2684475D01*
X4152137Y2688336D01*
X4150360Y2689402D01*
X4148683Y2688031D01*
X4148683Y2685034D01*
X4146296Y2684373D01*
X4145127Y2683764D01*
X4144213Y2682748D01*
X4133850Y2674112D01*
X4125569Y2666441D01*
X4118101Y2657703D01*
X4114241Y2652471D01*
X4110431Y2646629D01*
X4105452Y2638044D01*
X4104843Y2637332D01*
X4101795Y2629865D01*
X4100372Y2628087D01*
X4098645Y2620975D01*
X4097426Y2617266D01*
X4095953Y2614218D01*
X4094276Y2596642D01*
X4095496Y2576779D01*
X4096461Y2566822D01*
X4098544Y2561183D01*
X4099915Y2539796D01*
X4100829Y2529027D01*
X4101947Y2520696D01*
X4101388Y2497632D01*
X4098340Y2477770D01*
X4096918Y2474976D01*
X4094276Y2467610D01*
X4092397Y2463596D01*
X4090365Y2459939D01*
X4085691Y2452878D01*
X4080967Y2447544D01*
X4075988Y2442565D01*
X4072686Y2440178D01*
X4071772Y2439162D01*
X4070096Y2436469D01*
X4068978Y2436368D01*
X4067911Y2435707D01*
X4066235Y2433929D01*
X4069689Y2432456D01*
X4080001Y2438603D01*
X4084777Y2442768D01*
X4089349Y2447594D01*
X4094226Y2454452D01*
X4096461Y2457043D01*
X4096461Y2459431D01*
X4099915Y2463342D01*
X4100931Y2469591D01*
X4103776Y2473960D01*
X4104944Y2482545D01*
X4105503Y2484882D01*
X4106367Y2486863D01*
X4109364Y2491638D01*
X4110482Y2490571D01*
X4111193Y2461107D01*
X4110380Y2456992D01*
X4109821Y2456992D01*
X4109110Y2457805D01*
X4107179Y2462022D01*
X4106418Y2463088D01*
X4105859Y2463444D01*
X4104589Y2460345D01*
X4103878Y2430373D01*
X4102760Y2426766D01*
X4101846Y2424836D01*
X4100017Y2421788D01*
X4099102Y2419553D01*
X4094581Y2411628D01*
X4094022Y2410968D01*
X4093464Y2410714D01*
X4091533Y2408021D01*
X4089501Y2405735D01*
X4080713Y2397912D01*
X4077309Y2395372D01*
X4072432Y2392527D01*
X4069638Y2390343D01*
X4067200Y2390343D01*
X4063949Y2387904D01*
X4055516Y2385466D01*
X4052671Y2384348D01*
X4045965Y2382723D01*
X4037736Y2382672D01*
X4030776Y2380538D01*
X4037279Y2378049D01*
X4057345Y2378608D01*
X4062222Y2380894D01*
X4065371Y2382012D01*
X4069334Y2382774D01*
X4071874Y2384450D01*
X4077563Y2387396D01*
X4084828Y2392730D01*
X4092803Y2399944D01*
X4094784Y2402027D01*
X4097782Y2406040D01*
X4099763Y2407818D01*
X4101287Y2412136D01*
X4102506Y2412136D01*
X4102506Y2402941D01*
X4100677Y2397099D01*
X4099560Y2392121D01*
X4098340Y2384298D01*
X4097020Y2382672D01*
X4093514Y2375255D01*
X4092905Y2374849D01*
X4092194Y2373833D01*
X4091025Y2371242D01*
X4084370Y2364841D01*
X4078630Y2362454D01*
X4077614Y2361488D01*
X4075633Y2360625D01*
X4073296Y2359914D01*
X4069892Y2359406D01*
X4066895Y2358288D01*
X4066387Y2357678D01*
X4066895Y2357120D01*
X4069943Y2355443D01*
X4081424Y2355494D01*
X4091482Y2360218D01*
X4098391Y2367330D01*
X4101490Y2372614D01*
X4104487Y2376373D01*
X4104487Y2380234D01*
X4107789Y2386533D01*
X4111294Y2412441D01*
X4111701Y2429713D01*
X4112564Y2439720D01*
X4113987Y2447493D01*
X4116476Y2446832D01*
X4117949Y2445969D01*
X4119118Y2439162D01*
X4120337Y2427478D01*
X4122826Y2415641D01*
X4122928Y2388768D01*
X4121251Y2385771D01*
X4120083Y2382570D01*
X4118559Y2376779D01*
X4116679Y2374392D01*
X4115562Y2372309D01*
X4114342Y2368905D01*
X4112615Y2367686D01*
X4111955Y2366772D01*
X4111751Y2365959D01*
X4106164Y2358999D01*
X4102811Y2355545D01*
X4096156Y2349347D01*
X4089958Y2346248D01*
X4086453Y2344826D01*
X4082592Y2343861D01*
X4078122Y2343048D01*
X4069689Y2342184D01*
X4068013Y2343505D01*
X4059682Y2344826D01*
X4049928Y2349754D01*
X4047490Y2351633D01*
X4045508Y2352497D01*
X4042054Y2355189D01*
X4039666Y2356612D01*
X4037533Y2358440D01*
X4035450Y2357678D01*
X4036263Y2353513D01*
X4038498Y2351532D01*
X4039615Y2350109D01*
X4040682Y2348179D01*
X4041546Y2347772D01*
X4050436Y2340965D01*
X4053586Y2339289D01*
X4057446Y2336647D01*
X4061307Y2335631D01*
X4064101Y2334514D01*
X4067911Y2332634D01*
X4080103Y2331212D01*
X4087368Y2331415D01*
X4092295Y2331821D01*
X4098544Y2332736D01*
X4106824Y2337054D01*
X4109872Y2338933D01*
X4112107Y2340610D01*
X4113326Y2341880D01*
X4113936Y2342997D01*
X4115206Y2342235D01*
X4115206Y2338476D01*
X4113479Y2336749D01*
X4109212Y2330805D01*
X4106418Y2327706D01*
X4102912Y2324506D01*
X4094530Y2318156D01*
X4088790Y2316581D01*
X4082745Y2311552D01*
X4084777Y2310231D01*
X4096156Y2310739D01*
X4105503Y2313686D01*
X4108399Y2315667D01*
X4113022Y2318359D01*
X4116324Y2321052D01*
X4119270Y2323896D01*
X4120591Y2325522D01*
X4120845Y2326182D01*
X4122572Y2327757D01*
X4122572Y2321356D01*
X4120642Y2319832D01*
X4119727Y2315718D01*
X4113784Y2307539D01*
X4110990Y2304491D01*
X4107332Y2301595D01*
X4100169Y2296769D01*
X4096613Y2294839D01*
X4092194Y2293162D01*
X4091686Y2291740D01*
X4094327Y2290826D01*
X4096613Y2290470D01*
X4100169Y2290470D01*
X4104944Y2292654D01*
X4107484Y2293467D01*
X4109821Y2293620D01*
X4115511Y2298598D01*
X4122877Y2305812D01*
X4124604Y2307793D01*
X4125315Y2309012D01*
X4129989Y2309012D01*
X4131360Y2305558D01*
X4132326Y2295448D01*
X4135120Y2278786D01*
X4136593Y2266594D01*
X4138015Y2264968D01*
X4140657Y2251760D01*
X4141825Y2250186D01*
X4142841Y2247138D01*
X4144568Y2240330D01*
X4146448Y2238248D01*
X4148074Y2230932D01*
X4150461Y2227986D01*
X4151731Y2223414D01*
X4152849Y2220823D01*
X4154576Y2217724D01*
X4156862Y2212136D01*
X4158183Y2210003D01*
X4161028Y2203602D01*
X4161688Y2203043D01*
X4162958Y2201062D01*
X4165142Y2196795D01*
X4168851Y2190445D01*
X4181195Y2171242D01*
X4182719Y2169566D01*
X4182922Y2168753D01*
X4194149Y2150973D01*
X4212031Y2119122D01*
X4214368Y2115769D01*
X4217517Y2110536D01*
X4223613Y2102002D01*
X4243832Y2082546D01*
X4251502Y2074824D01*
X4262374Y2062022D01*
X4264914Y2057450D01*
X4266895Y2054961D01*
X4268978Y2051151D01*
X4271873Y2047239D01*
X4274108Y2043328D01*
X4278477Y2038350D01*
X4284522Y2032304D01*
X4291177Y2026259D01*
X4295241Y2023262D01*
X4300626Y2019757D01*
X4306316Y2016455D01*
X4315866Y2011883D01*
X4321911Y2009393D01*
X4323283Y2009139D01*
X4331970Y2006041D01*
X4339590Y2004314D01*
X4347718Y2001926D01*
X4390542Y2001875D01*
X4396435Y2003907D01*
X4400194Y2004872D01*
X4404563Y2005584D01*
X4412996Y2009546D01*
X4418939Y2013102D01*
X4460849Y2042261D01*
X4461764Y2043277D01*
X4461764Y2043836D01*
X4463745Y2043836D01*
X4466945Y2046528D01*
X4468520Y2047544D01*
X4469739Y2048052D01*
X4471314Y2049475D01*
X4473295Y2050440D01*
X4480102Y2055164D01*
X4481931Y2056130D01*
X4485233Y2058771D01*
X4493869Y2064613D01*
X4495342Y2066086D01*
X4498136Y2067661D01*
X4506214Y2073503D01*
X4528312Y2090877D01*
X4553966Y2112213D01*
X4557826Y2115007D01*
X4565751Y2122119D01*
X4616145Y2164384D01*
X4622444Y2169261D01*
X4629810Y2176018D01*
X4633671Y2178710D01*
X4636922Y2181809D01*
X4650790Y2193798D01*
X4663998Y2205685D01*
X4673193Y2214575D01*
X4680813Y2222398D01*
X4690059Y2233828D01*
X4690872Y2235809D01*
X4693208Y2239111D01*
X4699000Y2249678D01*
X4702200Y2255062D01*
X4702606Y2256434D01*
X4702606Y2257450D01*
X4707636Y2262784D01*
X4711649Y2264257D01*
X4715205Y2265121D01*
X4729683Y2267458D01*
X4731359Y2268778D01*
X4738420Y2272538D01*
X4742942Y2276094D01*
X4747920Y2280920D01*
X4758029Y2292350D01*
X4760823Y2292350D01*
X4770069Y2286457D01*
X4773828Y2284476D01*
X4775809Y2283104D01*
X4777536Y2282240D01*
X4778756Y2281986D01*
X4787950Y2278430D01*
X4792319Y2277262D01*
X4797958Y2274976D01*
X4817008Y2273554D01*
X4834077Y2274874D01*
X4839868Y2277668D01*
X4842256Y2276957D01*
X4841290Y2271826D01*
X4839716Y2269947D01*
X4834534Y2261108D01*
X4836515Y2258415D01*
X4845354Y2258161D01*
X4847132Y2257653D01*
X4847132Y2255266D01*
X4850384Y2251710D01*
X4859832Y2252014D01*
X4865014Y2254199D01*
X4869992Y2255723D01*
X4871262Y2256282D01*
X4873650Y2257958D01*
X4875987Y2259177D01*
X4878425Y2260803D01*
X4886401Y2268423D01*
X4887772Y2270506D01*
X4889398Y2272487D01*
X4891532Y2275586D01*
X4894681Y2280869D01*
X4896459Y2289048D01*
X4899355Y2292908D01*
X4902860Y2294077D01*
X4910023Y2297379D01*
X4911293Y2297633D01*
X4919827Y2301290D01*
X4922570Y2302256D01*
X4924806Y2303983D01*
X4929327Y2306320D01*
X4932172Y2308606D01*
X4935778Y2310434D01*
X4939893Y2313990D01*
X4944414Y2318664D01*
X4948174Y2323439D01*
X4950561Y2327148D01*
X4955540Y2336952D01*
X4955540Y2347925D01*
X4957521Y2349500D01*
X4957521Y2354580D01*
X4956657Y2353919D01*
X4956098Y2352497D01*
X4955438Y2349347D01*
X4953355Y2349093D01*
X4952390Y2348230D01*
X4951476Y2346706D01*
X4949088Y2341067D01*
X4948377Y2340305D01*
X4945888Y2335936D01*
X4942941Y2331415D01*
X4935372Y2323642D01*
X4930851Y2319375D01*
X4927447Y2316683D01*
X4916424Y2310028D01*
X4912563Y2308504D01*
X4909464Y2306980D01*
X4903978Y2305100D01*
X4900980Y2303424D01*
X4893310Y2301595D01*
X4891633Y2300884D01*
X4888738Y2292400D01*
X4885283Y2284171D01*
X4882540Y2280158D01*
X4881321Y2277973D01*
X4880203Y2276551D01*
X4879594Y2276195D01*
X4878628Y2275179D01*
X4876952Y2272487D01*
X4875276Y2272487D01*
X4872329Y2268677D01*
X4870653Y2268626D01*
X4869789Y2268270D01*
X4869129Y2267356D01*
X4868519Y2267712D01*
X4868011Y2268372D01*
X4867960Y2269286D01*
X4868367Y2270455D01*
X4870500Y2273604D01*
X4871516Y2279599D01*
X4873193Y2286508D01*
X4873244Y2289403D01*
X4870145Y2286609D01*
X4868011Y2286609D01*
X4864506Y2280869D01*
X4861763Y2279446D01*
X4860645Y2276652D01*
X4859680Y2280310D01*
X4861915Y2284780D01*
X4863439Y2294280D01*
X4861814Y2309571D01*
X4863795Y2314143D01*
X4870500Y2320645D01*
X4871262Y2322728D01*
X4873548Y2326233D01*
X4878628Y2336749D01*
X4880457Y2342845D01*
X4882896Y2349703D01*
X4882946Y2363876D01*
X4881067Y2366060D01*
X4879390Y2363774D01*
X4877308Y2353056D01*
X4875885Y2351379D01*
X4873498Y2345385D01*
X4869535Y2337409D01*
X4864658Y2329891D01*
X4862728Y2327554D01*
X4849774Y2314803D01*
X4845202Y2312263D01*
X4844338Y2311552D01*
X4842764Y2310688D01*
X4837379Y2308504D01*
X4832096Y2306015D01*
X4827524Y2305354D01*
X4824780Y2304643D01*
X4821885Y2303322D01*
X4809185Y2301544D01*
X4802886Y2300325D01*
X4802073Y2299817D01*
X4808016Y2297988D01*
X4832096Y2297938D01*
X4838547Y2300274D01*
X4844745Y2301900D01*
X4852670Y2305304D01*
X4853736Y2303627D01*
X4851958Y2300884D01*
X4848402Y2296160D01*
X4844796Y2292299D01*
X4840630Y2290470D01*
X4838801Y2289454D01*
X4837938Y2288387D01*
X4831994Y2287066D01*
X4826762Y2286254D01*
X4818278Y2285339D01*
X4801463Y2287270D01*
X4791049Y2291994D01*
X4782972Y2296160D01*
X4784140Y2299970D01*
X4782261Y2300630D01*
X4782261Y2303627D01*
X4778248Y2307336D01*
X4778248Y2311095D01*
X4780635Y2310384D01*
X4789932Y2308910D01*
X4803851Y2309723D01*
X4807254Y2311400D01*
X4804867Y2312466D01*
X4800803Y2313330D01*
X4791964Y2314752D01*
X4788154Y2316530D01*
X4786122Y2317242D01*
X4783785Y2317648D01*
X4779721Y2319223D01*
X4777435Y2320950D01*
X4774184Y2322474D01*
X4767935Y2322474D01*
X4763414Y2320899D01*
X4762246Y2322728D01*
X4764430Y2326538D01*
X4767275Y2330500D01*
X4769764Y2333447D01*
X4770729Y2334971D01*
X4770983Y2335936D01*
X4771847Y2337562D01*
X4774031Y2340711D01*
X4776266Y2348077D01*
X4780889Y2348077D01*
X4782667Y2344978D01*
X4784801Y2342489D01*
X4788916Y2338730D01*
X4789373Y2340051D01*
X4789576Y2342896D01*
X4787138Y2344572D01*
X4786172Y2348890D01*
X4785512Y2350465D01*
X4788154Y2351125D01*
X4791151Y2348077D01*
X4794300Y2348077D01*
X4795113Y2350008D01*
X4790948Y2357831D01*
X4791811Y2358898D01*
X4792370Y2358898D01*
X4792878Y2358491D01*
X4793691Y2356459D01*
X4797247Y2354834D01*
X4798415Y2352852D01*
X4800142Y2350973D01*
X4807712Y2343759D01*
X4826711Y2326284D01*
X4826711Y2318054D01*
X4828336Y2316480D01*
X4833721Y2319934D01*
X4836261Y2323439D01*
X4837480Y2324811D01*
X4838395Y2325014D01*
X4839512Y2330399D01*
X4840274Y2332634D01*
X4840782Y2333294D01*
X4841087Y2334158D01*
X4841138Y2335936D01*
X4840173Y2335834D01*
X4839563Y2335428D01*
X4838750Y2334310D01*
X4832502Y2332736D01*
X4828082Y2334209D01*
X4824831Y2337308D01*
X4815789Y2347417D01*
X4814671Y2350566D01*
X4813960Y2351735D01*
X4813350Y2352192D01*
X4812284Y2353767D01*
X4807000Y2363927D01*
X4806950Y2366314D01*
X4806137Y2371140D01*
X4804410Y2371140D01*
X4803597Y2373579D01*
X4804460Y2376932D01*
X4806188Y2375560D01*
X4807051Y2371140D01*
X4808880Y2371140D01*
X4809439Y2372715D01*
X4809693Y2377897D01*
X4807000Y2380081D01*
X4807254Y2384653D01*
X4807864Y2385720D01*
X4808728Y2385060D01*
X4810455Y2379522D01*
X4812893Y2378760D01*
X4814671Y2374392D01*
X4816652Y2371394D01*
X4820361Y2366772D01*
X4824933Y2362149D01*
X4825796Y2365451D01*
X4823206Y2369566D01*
X4822291Y2375712D01*
X4820513Y2378811D01*
X4817567Y2387498D01*
X4815789Y2391308D01*
X4814265Y2399334D01*
X4811725Y2403551D01*
X4810353Y2412695D01*
X4807559Y2417876D01*
X4806746Y2424531D01*
X4806391Y2430983D01*
X4806340Y2442108D01*
X4808677Y2444800D01*
X4812487Y2442565D01*
X4818786Y2431389D01*
X4820361Y2428951D01*
X4822393Y2426868D01*
X4822393Y2423515D01*
X4824577Y2419146D01*
X4826355Y2421432D01*
X4826406Y2429357D01*
X4827930Y2430272D01*
X4829251Y2428392D01*
X4830114Y2426512D01*
X4831080Y2423109D01*
X4831791Y2422906D01*
X4832553Y2421991D01*
X4833416Y2420112D01*
X4834077Y2417826D01*
X4834890Y2413254D01*
X4835956Y2410866D01*
X4837226Y2410917D01*
X4837938Y2411323D01*
X4838700Y2412390D01*
X4838496Y2421686D01*
X4836210Y2426157D01*
X4835093Y2429154D01*
X4834331Y2432964D01*
X4833416Y2433929D01*
X4832553Y2435504D01*
X4830724Y2440940D01*
X4830419Y2444140D01*
X4832654Y2444140D01*
X4836718Y2439822D01*
X4840782Y2434742D01*
X4845304Y2428443D01*
X4848047Y2421382D01*
X4849063Y2419299D01*
X4850892Y2411628D01*
X4852720Y2401824D01*
X4856835Y2402230D01*
X4857851Y2408631D01*
X4857191Y2413812D01*
X4855260Y2423718D01*
X4855159Y2426563D01*
X4850231Y2436469D01*
X4848301Y2439670D01*
X4845354Y2443581D01*
X4841798Y2447696D01*
X4833213Y2456230D01*
X4830419Y2457043D01*
X4830419Y2458313D01*
X4823155Y2461666D01*
X4805984Y2471826D01*
X4801768Y2474823D01*
X4800955Y2475026D01*
X4796231Y2478735D01*
X4787290Y2485237D01*
X4774184Y2496413D01*
X4763262Y2506827D01*
X4760722Y2509570D01*
X4758486Y2509164D01*
X4758080Y2507030D01*
X4765090Y2497277D01*
X4766056Y2495651D01*
X4767275Y2494280D01*
X4769510Y2492806D01*
X4769510Y2489657D01*
X4768138Y2489758D01*
X4760010Y2493924D01*
X4756810Y2495905D01*
X4751628Y2499614D01*
X4745888Y2503068D01*
X4742129Y2505811D01*
X4740097Y2506827D01*
X4736846Y2509774D01*
X4724603Y2519476D01*
X4713681Y2529332D01*
X4698492Y2544368D01*
X4697780Y2545638D01*
X4694072Y2549347D01*
X4692904Y2551430D01*
X4690110Y2552598D01*
X4687925Y2557526D01*
X4686554Y2557526D01*
X4686554Y2553055D01*
X4689906Y2550972D01*
X4689906Y2548737D01*
X4692700Y2545689D01*
X4693767Y2544114D01*
X4694275Y2542794D01*
X4697323Y2538831D01*
X4706772Y2527909D01*
X4715510Y2518613D01*
X4724755Y2509418D01*
X4732985Y2501900D01*
X4741570Y2494534D01*
X4742891Y2493619D01*
X4743602Y2493416D01*
X4744415Y2492857D01*
X4745634Y2491486D01*
X4744262Y2490165D01*
X4739233Y2491892D01*
X4738573Y2493111D01*
X4733594Y2496312D01*
X4733290Y2496921D01*
X4730140Y2498801D01*
X4721809Y2505202D01*
X4720590Y2506370D01*
X4718354Y2505964D01*
X4717897Y2503678D01*
X4722723Y2496820D01*
X4724908Y2494178D01*
X4732375Y2486761D01*
X4742434Y2477566D01*
X4745532Y2475128D01*
X4747158Y2474264D01*
X4748022Y2474264D01*
X4750866Y2470759D01*
X4755083Y2469083D01*
X4752898Y2467051D01*
X4748834Y2468626D01*
X4747107Y2469540D01*
X4746396Y2470150D01*
X4743094Y2471267D01*
X4739792Y2472029D01*
X4739335Y2468981D01*
X4747056Y2461971D01*
X4750460Y2459278D01*
X4752390Y2458313D01*
X4753559Y2457094D01*
X4750054Y2453995D01*
X4750714Y2452522D01*
X4751222Y2451912D01*
X4751730Y2451709D01*
X4752390Y2450693D01*
X4753406Y2448001D01*
X4755642Y2447086D01*
X4757115Y2446121D01*
X4758944Y2444242D01*
X4762144Y2443530D01*
X4770983Y2440025D01*
X4772812Y2439670D01*
X4774082Y2435250D01*
X4772761Y2425750D01*
X4771948Y2421585D01*
X4771339Y2419908D01*
X4769358Y2408986D01*
X4768596Y2406396D01*
X4764582Y2397048D01*
X4762500Y2393645D01*
X4761585Y2391359D01*
X4757318Y2385009D01*
X4751222Y2376779D01*
X4748123Y2375662D01*
X4744262Y2376424D01*
X4743246Y2378659D01*
X4742840Y2380081D01*
X4742789Y2381758D01*
X4738624Y2387193D01*
X4737506Y2391968D01*
X4738624Y2396236D01*
X4739944Y2399436D01*
X4742434Y2404110D01*
X4742383Y2418842D01*
X4738928Y2425242D01*
X4738065Y2430627D01*
X4739436Y2433269D01*
X4740097Y2433828D01*
X4740554Y2433929D01*
X4741062Y2432913D01*
X4748530Y2424938D01*
X4752644Y2424938D01*
X4753406Y2426868D01*
X4751120Y2429256D01*
X4750257Y2430475D01*
X4750003Y2431237D01*
X4746904Y2435656D01*
X4746650Y2436672D01*
X4745685Y2438196D01*
X4743145Y2441143D01*
X4742230Y2450388D01*
X4740503Y2453030D01*
X4736795Y2453741D01*
X4734306Y2458567D01*
X4732426Y2468829D01*
X4732070Y2468422D01*
X4730597Y2463698D01*
X4731359Y2455367D01*
X4729632Y2442210D01*
X4728159Y2440787D01*
X4726889Y2441549D01*
X4725974Y2458923D01*
X4724552Y2462733D01*
X4722012Y2462733D01*
X4722012Y2442159D01*
X4720945Y2435453D01*
X4718862Y2427274D01*
X4717999Y2422906D01*
X4717237Y2416606D01*
X4716424Y2416505D01*
X4715865Y2415844D01*
X4715256Y2414066D01*
X4716119Y2411374D01*
X4718354Y2415641D01*
X4720285Y2415641D01*
X4720945Y2413000D01*
X4721250Y2409190D01*
X4721352Y2401316D01*
X4720336Y2398826D01*
X4716678Y2393594D01*
X4710226Y2386330D01*
X4708601Y2383790D01*
X4706772Y2381605D01*
X4705299Y2379421D01*
X4702708Y2374849D01*
X4700981Y2370277D01*
X4700524Y2368042D01*
X4699965Y2366518D01*
X4698441Y2363774D01*
X4697679Y2345436D01*
X4697882Y2337003D01*
X4698644Y2332736D01*
X4700574Y2332736D01*
X4701540Y2334717D01*
X4702962Y2341270D01*
X4705858Y2351430D01*
X4707229Y2358948D01*
X4709617Y2363927D01*
X4710531Y2366416D01*
X4710633Y2368397D01*
X4714849Y2373884D01*
X4716475Y2376678D01*
X4721555Y2378964D01*
X4728362Y2378100D01*
X4732324Y2374392D01*
X4733848Y2372664D01*
X4734966Y2370582D01*
X4737100Y2367838D01*
X4737303Y2351633D01*
X4738522Y2347772D01*
X4740706Y2347366D01*
X4743754Y2353106D01*
X4753406Y2361234D01*
X4757064Y2366365D01*
X4761687Y2372258D01*
X4764278Y2376576D01*
X4765344Y2377846D01*
X4767326Y2381808D01*
X4769815Y2385669D01*
X4771491Y2389886D01*
X4774895Y2396286D01*
X4774996Y2398674D01*
X4777232Y2405989D01*
X4778298Y2410206D01*
X4779213Y2415540D01*
X4780889Y2422906D01*
X4782312Y2427071D01*
X4782870Y2429967D01*
X4784140Y2434742D01*
X4786934Y2443073D01*
X4786934Y2448763D01*
X4788916Y2455621D01*
X4791303Y2461158D01*
X4792167Y2462377D01*
X4793132Y2462428D01*
X4796586Y2461666D01*
X4798212Y2456637D01*
X4798314Y2443632D01*
X4796840Y2433726D01*
X4795062Y2430424D01*
X4794402Y2428494D01*
X4794097Y2426157D01*
X4792675Y2421940D01*
X4790389Y2417114D01*
X4788611Y2412695D01*
X4785106Y2405024D01*
X4784852Y2403856D01*
X4784344Y2402941D01*
X4783531Y2402078D01*
X4782413Y2400046D01*
X4780838Y2396388D01*
X4777689Y2391359D01*
X4772456Y2381402D01*
X4770475Y2378710D01*
X4769662Y2376017D01*
X4766411Y2370175D01*
X4764176Y2359558D01*
X4762804Y2357374D01*
X4760214Y2350617D01*
X4758080Y2347112D01*
X4755692Y2342642D01*
X4753864Y2340508D01*
X4746904Y2330348D01*
X4745075Y2327198D01*
X4744008Y2324252D01*
X4742281Y2320848D01*
X4740554Y2306980D01*
X4739233Y2305558D01*
X4738166Y2303475D01*
X4736592Y2299208D01*
X4731867Y2293162D01*
X4728768Y2289911D01*
X4725568Y2287066D01*
X4722723Y2284882D01*
X4719675Y2282901D01*
X4716272Y2282291D01*
X4713173Y2282037D01*
X4707991Y2282088D01*
X4705807Y2283155D01*
X4703775Y2284476D01*
X4699050Y2288641D01*
X4696917Y2291181D01*
X4693208Y2293772D01*
X4691938Y2294280D01*
X4691227Y2294280D01*
X4690364Y2291943D01*
X4688382Y2282444D01*
X4686757Y2278989D01*
X4685690Y2275687D01*
X4684369Y2269947D01*
X4682642Y2267966D01*
X4681982Y2266746D01*
X4681118Y2264156D01*
X4677359Y2256028D01*
X4672787Y2247646D01*
X4671212Y2245614D01*
X4670602Y2245614D01*
X4669129Y2241194D01*
X4665929Y2237333D01*
X4664659Y2235504D01*
X4664405Y2234692D01*
X4663694Y2233930D01*
X4662627Y2233218D01*
X4661916Y2232406D01*
X4661408Y2231085D01*
X4654702Y2224227D01*
X4629048Y2199894D01*
X4607102Y2180082D01*
X4599279Y2173325D01*
X4598263Y2173935D01*
X4598263Y2178558D01*
X4602276Y2185365D01*
X4602276Y2188311D01*
X4605578Y2192985D01*
X4606696Y2197455D01*
X4607763Y2200198D01*
X4609541Y2203297D01*
X4610963Y2210612D01*
X4613757Y2215743D01*
X4615078Y2223516D01*
X4617567Y2227630D01*
X4618888Y2236470D01*
X4621682Y2242566D01*
X4621784Y2253437D01*
X4620056Y2254504D01*
X4618482Y2253234D01*
X4617008Y2245461D01*
X4614976Y2241956D01*
X4613656Y2239060D01*
X4611471Y2233371D01*
X4610404Y2231237D01*
X4609439Y2227834D01*
X4608372Y2225141D01*
X4606188Y2220722D01*
X4604461Y2216251D01*
X4601667Y2210358D01*
X4601006Y2208479D01*
X4598670Y2204161D01*
X4595622Y2197506D01*
X4593590Y2194102D01*
X4590796Y2188057D01*
X4588205Y2183079D01*
X4587036Y2180386D01*
X4586071Y2179066D01*
X4580280Y2168702D01*
X4567428Y2150211D01*
X4560366Y2142083D01*
X4551070Y2132533D01*
X4540605Y2122678D01*
X4525518Y2109622D01*
X4516983Y2103069D01*
X4514799Y2101697D01*
X4513884Y2101443D01*
X4513275Y2100884D01*
X4512665Y2099564D01*
X4510633Y2099564D01*
X4510735Y2100935D01*
X4513783Y2108047D01*
X4515307Y2112975D01*
X4517288Y2114042D01*
X4518507Y2120188D01*
X4521454Y2123998D01*
X4522571Y2131822D01*
X4525264Y2135327D01*
X4526584Y2143099D01*
X4529277Y2148890D01*
X4531360Y2160524D01*
X4533290Y2164130D01*
X4534763Y2176119D01*
X4537557Y2183790D01*
X4537710Y2199436D01*
X4535474Y2201570D01*
X4534001Y2198878D01*
X4532630Y2188413D01*
X4530039Y2183536D01*
X4527854Y2172919D01*
X4526584Y2170734D01*
X4525467Y2167636D01*
X4524451Y2163876D01*
X4521047Y2154224D01*
X4519879Y2148890D01*
X4518558Y2147519D01*
X4517847Y2146046D01*
X4516882Y2142337D01*
X4515205Y2137511D01*
X4514392Y2136444D01*
X4512513Y2131517D01*
X4507026Y2119071D01*
X4505350Y2116378D01*
X4504486Y2114042D01*
X4500727Y2106168D01*
X4490516Y2088642D01*
X4488789Y2086508D01*
X4485741Y2082139D01*
X4481830Y2078126D01*
X4476750Y2073859D01*
X4433265Y2043988D01*
X4412538Y2030171D01*
X4410913Y2029256D01*
X4410100Y2029053D01*
X4406087Y2026107D01*
X4401413Y2024024D01*
X4395622Y2022144D01*
X4379823Y2018944D01*
X4362399Y2018893D01*
X4345736Y2021687D01*
X4336542Y2022754D01*
X4332935Y2024430D01*
X4327702Y2025904D01*
X4322572Y2027936D01*
X4314139Y2031949D01*
X4309973Y2034489D01*
X4301185Y2040889D01*
X4299153Y2042820D01*
X4297019Y2045309D01*
X4292092Y2053082D01*
X4279696Y2070862D01*
X4277410Y2073402D01*
X4277106Y2074113D01*
X4274312Y2077974D01*
X4268774Y2084070D01*
X4267352Y2086102D01*
X4262120Y2091639D01*
X4260646Y2093823D01*
X4258360Y2096211D01*
X4256176Y2099614D01*
X4253890Y2102612D01*
X4251960Y2106777D01*
X4249470Y2110841D01*
X4248454Y2113686D01*
X4245000Y2120036D01*
X4244898Y2122170D01*
X4244390Y2123795D01*
X4242765Y2126792D01*
X4241190Y2130755D01*
X4240326Y2135327D01*
X4237126Y2141524D01*
X4236415Y2147925D01*
X4234840Y2151024D01*
X4232503Y2158644D01*
X4230319Y2164384D01*
X4229354Y2167585D01*
X4228592Y2171090D01*
X4225188Y2180996D01*
X4224070Y2185416D01*
X4222953Y2188260D01*
X4221530Y2191054D01*
X4220210Y2198827D01*
X4217670Y2202992D01*
X4216298Y2210054D01*
X4213910Y2214524D01*
X4212996Y2216708D01*
X4212742Y2217978D01*
X4209034Y2224176D01*
X4208119Y2226614D01*
X4204258Y2234082D01*
X4202226Y2237384D01*
X4201160Y2239568D01*
X4200398Y2241854D01*
X4199331Y2244140D01*
X4197604Y2246680D01*
X4195927Y2252980D01*
X4192981Y2257450D01*
X4192168Y2262784D01*
X4188815Y2269185D01*
X4188815Y2272944D01*
X4185310Y2279243D01*
X4184396Y2285593D01*
X4183684Y2288946D01*
X4182618Y2291740D01*
X4180789Y2291740D01*
X4179773Y2288184D01*
X4180078Y2275382D01*
X4185158Y2256231D01*
X4186783Y2252218D01*
X4188307Y2246782D01*
X4192727Y2236470D01*
X4199890Y2221687D01*
X4200245Y2220468D01*
X4202125Y2217826D01*
X4203903Y2213813D01*
X4204208Y2212238D01*
X4204208Y2211070D01*
X4206646Y2208784D01*
X4207967Y2204161D01*
X4209034Y2201468D01*
X4210100Y2199436D01*
X4213047Y2190394D01*
X4214164Y2188006D01*
X4215384Y2184298D01*
X4217416Y2176881D01*
X4218787Y2174189D01*
X4220819Y2162657D01*
X4222242Y2159660D01*
X4225086Y2148433D01*
X4226814Y2143556D01*
X4228947Y2135581D01*
X4231436Y2128926D01*
X4232249Y2124354D01*
X4232300Y2122525D01*
X4229963Y2122982D01*
X4228439Y2126843D01*
X4227525Y2128520D01*
X4226407Y2129637D01*
X4225696Y2130856D01*
X4224680Y2134260D01*
X4224223Y2136597D01*
X4222800Y2137867D01*
X4219143Y2145182D01*
X4217365Y2147976D01*
X4216603Y2150211D01*
X4208119Y2165553D01*
X4205224Y2169972D01*
X4204258Y2172309D01*
X4201464Y2176526D01*
X4200448Y2179015D01*
X4197400Y2183485D01*
X4191965Y2192578D01*
X4189272Y2196490D01*
X4188155Y2198979D01*
X4187037Y2200808D01*
X4185767Y2202383D01*
X4184904Y2203907D01*
X4184650Y2205075D01*
X4183583Y2207260D01*
X4180941Y2211730D01*
X4180433Y2213152D01*
X4173982Y2226005D01*
X4171442Y2232863D01*
X4170679Y2234031D01*
X4165295Y2247950D01*
X4164177Y2251862D01*
X4161282Y2258974D01*
X4159656Y2264918D01*
X4158640Y2267407D01*
X4157370Y2269693D01*
X4155998Y2280107D01*
X4155084Y2282240D01*
X4154170Y2285136D01*
X4153408Y2289352D01*
X4151731Y2308707D01*
X4149750Y2324049D01*
X4149648Y2374646D01*
X4152036Y2398369D01*
X4153204Y2441295D01*
X4154830Y2446680D01*
X4155948Y2452166D01*
X4157472Y2461768D01*
X4160012Y2466594D01*
X4161485Y2475788D01*
X4162196Y2478125D01*
X4158437Y2478125D01*
X4154017Y2474010D01*
X4153458Y2474772D01*
X4152493Y2480005D01*
X4154932Y2488946D01*
X4154017Y2489860D01*
X4151579Y2487726D01*
X4148124Y2487726D01*
X4147210Y2491638D01*
X4148328Y2516124D01*
X4149090Y2527452D01*
X4150004Y2535123D01*
X4153255Y2535123D01*
X4153662Y2534513D01*
X4154119Y2531567D01*
X4155338Y2518460D01*
X4156557Y2510637D01*
X4158132Y2509164D01*
X4159402Y2510942D01*
X4160113Y2512822D01*
X4162094Y2521000D01*
X4163923Y2521000D01*
X4164329Y2522016D01*
X4164736Y2535682D01*
X4164736Y2548280D01*
X4165752Y2556052D01*
X4166615Y2560675D01*
X4167479Y2564079D01*
X4168343Y2569006D01*
X4169308Y2577693D01*
X4171187Y2583281D01*
X4172762Y2590139D01*
X4173829Y2593898D01*
X4178655Y2607665D01*
X4180382Y2611170D01*
X4181246Y2613406D01*
X4182516Y2615742D01*
X4184650Y2618790D01*
X4185361Y2620467D01*
X4188612Y2624734D01*
X4189069Y2625902D01*
X4190695Y2627426D01*
X4191508Y2626055D01*
X4192219Y2624277D01*
X4193184Y2620721D01*
X4194708Y2620213D01*
X4196994Y2626004D01*
X4199686Y2627985D01*
X4202328Y2631287D01*
X4209135Y2637536D01*
X4211116Y2638856D01*
X4219905Y2642971D01*
X4242257Y2643784D01*
X4244340Y2645410D01*
X4244390Y2647086D01*
X4244746Y2647899D01*
X4245610Y2648508D01*
X4254703Y2647035D01*
X4259072Y2644546D01*
X4263085Y2645359D01*
X4263085Y2647086D01*
X4261053Y2647797D01*
X4261053Y2650388D01*
X4257852Y2653385D01*
X4257700Y2654249D01*
X4262831Y2654249D01*
X4264101Y2653284D01*
X4265422Y2652623D01*
X4266793Y2652369D01*
X4268317Y2652623D01*
X4272838Y2654249D01*
X4275429Y2654503D01*
X4279138Y2652166D01*
X4279138Y2655112D01*
X4276293Y2660700D01*
X4265879Y2669844D01*
X4256328Y2674721D01*
X4240784Y2677414D01*
X4234840Y2676702D01*
X4230725Y2675991D01*
X4225290Y2674721D01*
X4222800Y2672181D01*
X4220921Y2670657D01*
X4218381Y2669032D01*
X4211421Y2667508D01*
X4208018Y2666441D01*
X4205274Y2665222D01*
X4204208Y2665120D01*
X4204208Y2670098D01*
X4202226Y2670860D01*
X4200499Y2668930D01*
X4200194Y2668117D01*
X4200194Y2667355D01*
X4197400Y2666085D01*
X4194200Y2660904D01*
X4192981Y2659430D01*
X4189933Y2653995D01*
X4185818Y2645816D01*
X4184802Y2644140D01*
X4184802Y2640787D01*
X4187139Y2639720D01*
X4188155Y2638856D01*
X4187037Y2635859D01*
X4184446Y2632354D01*
X4183532Y2630322D01*
X4180535Y2626004D01*
X4179417Y2623718D01*
X4178655Y2621584D01*
X4176725Y2621584D01*
X4175963Y2623464D01*
X4177385Y2635758D01*
X4179265Y2639822D01*
X4180484Y2643632D01*
X4182110Y2649982D01*
X4184040Y2652014D01*
X4185361Y2657551D01*
X4188206Y2660446D01*
X4189526Y2665120D01*
X4191304Y2666898D01*
X4196486Y2673400D01*
X4199940Y2677109D01*
X4204106Y2681173D01*
X4207357Y2682494D01*
X4209592Y2683967D01*
X4220260Y2688437D01*
X4228541Y2690926D01*
X4232960Y2692755D01*
X4243882Y2694584D01*
X4248708Y2697734D01*
X4254957Y2699308D01*
X4254296Y2700375D01*
X4244543Y2700375D01*
X4220768Y2697175D01*
X4219143Y2696108D01*
X4216095Y2695092D01*
X4209338Y2693416D01*
X4208526Y2692400D01*
X4203852Y2690114D01*
X4200144Y2687929D01*
X4190187Y2681122D01*
X4183075Y2672588D01*
X4182668Y2671775D01*
X4181805Y2671165D01*
X4179570Y2670352D01*
X4178655Y2665120D01*
X4177436Y2665120D01*
X4177436Y2670048D01*
X4179976Y2672842D01*
X4180890Y2679801D01*
X4184802Y2684526D01*
X4184802Y2687574D01*
X4188206Y2691130D01*
X4190390Y2695092D01*
X4194556Y2700121D01*
X4200448Y2706268D01*
X4207306Y2712669D01*
X4211472Y2716276D01*
X4216247Y2718460D01*
X4216247Y2720035D01*
X4220464Y2721610D01*
X4222343Y2722626D01*
X4223867Y2723946D01*
X4228338Y2726131D01*
X4227880Y2728214D01*
X4222597Y2727807D01*
X4219244Y2724861D01*
X4215333Y2723946D01*
X4212590Y2721813D01*
X4210050Y2720594D01*
X4207662Y2718917D01*
X4202531Y2714701D01*
X4200855Y2713685D01*
X4195978Y2709316D01*
X4192828Y2708554D01*
X4192727Y2707335D01*
X4192015Y2706319D01*
X4190187Y2704693D01*
X4189323Y2706776D01*
X4190085Y2708706D01*
X4192828Y2708706D01*
X4192828Y2711856D01*
X4201160Y2721660D01*
X4204766Y2725267D01*
X4208780Y2728823D01*
X4216755Y2734767D01*
X4223004Y2738831D01*
X4224731Y2739593D01*
X4226204Y2740558D01*
X4229354Y2743200D01*
X4232859Y2744012D01*
X4235196Y2746502D01*
X4240631Y2747873D01*
X4244238Y2750769D01*
X4249877Y2751632D01*
X4253585Y2754172D01*
X4258462Y2755138D01*
X4262170Y2756306D01*
X4267403Y2758541D01*
X4277715Y2759760D01*
X4282846Y2762300D01*
X4296410Y2763012D01*
X4305249Y2763723D01*
X4316018Y2764942D01*
X4317746Y2767177D01*
X4325620Y2768803D01*
X4316018Y2768904D01*
X4312259Y2767482D01*
X4280154Y2766517D01*
X4274769Y2763926D01*
X4264761Y2763012D01*
X4259884Y2760929D01*
X4256481Y2759964D01*
X4252010Y2759202D01*
X4248099Y2757068D01*
X4239971Y2754020D01*
X4237431Y2752547D01*
X4235450Y2751886D01*
X4233316Y2751480D01*
X4230624Y2749143D01*
X4224832Y2747518D01*
X4223562Y2745181D01*
X4218990Y2745181D01*
X4222140Y2748686D01*
X4222445Y2749245D01*
X4225848Y2751429D01*
X4232554Y2757068D01*
X4235704Y2759049D01*
X4237024Y2760116D01*
X4238345Y2761742D01*
X4242816Y2763164D01*
X4245914Y2766314D01*
X4248302Y2766314D01*
X4251502Y2768904D01*
X4256938Y2771800D01*
X4258614Y2773070D01*
X4260951Y2774442D01*
X4265015Y2776067D01*
X4264253Y2777845D01*
X4258462Y2777845D01*
X4253534Y2774645D01*
X4251452Y2774594D01*
X4249775Y2774086D01*
X4234484Y2766517D01*
X4228592Y2763062D01*
X4222394Y2759100D01*
X4220514Y2757678D01*
X4220159Y2757068D01*
X4218178Y2756103D01*
X4216450Y2754985D01*
X4206494Y2746705D01*
X4197908Y2738882D01*
X4195572Y2736392D01*
X4193946Y2734310D01*
X4191508Y2733598D01*
X4190695Y2730449D01*
X4189476Y2730449D01*
X4189476Y2734157D01*
X4192828Y2736240D01*
X4192828Y2738780D01*
X4196181Y2740863D01*
X4196181Y2742539D01*
X4205274Y2751785D01*
X4219346Y2763113D01*
X4229912Y2770784D01*
X4231944Y2771902D01*
X4231944Y2773680D01*
X4228388Y2774086D01*
X4212640Y2766314D01*
X4211370Y2765298D01*
X4210812Y2764383D01*
X4208780Y2764383D01*
X4209745Y2768295D01*
X4210304Y2769616D01*
X4210964Y2770530D01*
X4211574Y2770835D01*
X4212234Y2770835D01*
X4212234Y2772714D01*
X4214977Y2775762D01*
X4216552Y2777896D01*
X4217568Y2779674D01*
X4220819Y2783433D01*
X4221226Y2784297D01*
X4236313Y2802686D01*
X4236313Y2805379D01*
G37*
G36*
X4691380Y2785770D02*
G01*
X4687468Y2785465D01*
X4684928Y2784805D01*
X4684572Y2784398D01*
X4685080Y2783840D01*
X4688281Y2782570D01*
X4692446Y2781655D01*
X4695494Y2778506D01*
X4700270Y2777744D01*
X4703673Y2775661D01*
X4717592Y2769362D01*
X4724298Y2765145D01*
X4726279Y2763520D01*
X4729175Y2762453D01*
X4738547Y2753309D01*
X4748784Y2753309D01*
X4749546Y2753918D01*
X4752594Y2754172D01*
X4754930Y2751683D01*
X4759147Y2750820D01*
X4765090Y2747111D01*
X4767376Y2747111D01*
X4773117Y2742793D01*
X4773879Y2742488D01*
X4774742Y2741472D01*
X4776266Y2738780D01*
X4780076Y2738780D01*
X4788712Y2734919D01*
X4793183Y2729636D01*
X4793691Y2707081D01*
X4792218Y2705150D01*
X4789627Y2708605D01*
X4787239Y2711196D01*
X4784750Y2718765D01*
X4783328Y2724607D01*
X4782210Y2731109D01*
X4781397Y2734411D01*
X4780534Y2736189D01*
X4778857Y2735173D01*
X4777841Y2729433D01*
X4777181Y2726893D01*
X4776266Y2725775D01*
X4759553Y2743250D01*
X4755388Y2747060D01*
X4751476Y2749854D01*
X4751476Y2751531D01*
X4748784Y2753309D01*
X4738547Y2753309D01*
X4743348Y2748381D01*
X4751882Y2739085D01*
X4757775Y2731820D01*
X4763363Y2723997D01*
X4768494Y2717342D01*
X4770018Y2714752D01*
X4773625Y2710434D01*
X4776978Y2705455D01*
X4777841Y2703779D01*
X4778502Y2701696D01*
X4778959Y2699359D01*
X4779213Y2694279D01*
X4784344Y2694279D01*
X4790084Y2687624D01*
X4791202Y2681325D01*
X4791760Y2679852D01*
X4795977Y2679801D01*
X4807305Y2667203D01*
X4809439Y2666187D01*
X4810201Y2665526D01*
X4811064Y2664358D01*
X4815840Y2659481D01*
X4828082Y2647797D01*
X4850638Y2624836D01*
X4853584Y2621483D01*
X4854854Y2619654D01*
X4859274Y2614726D01*
X4865674Y2606548D01*
X4868672Y2602280D01*
X4870450Y2599334D01*
X4871770Y2597759D01*
X4873447Y2596743D01*
X4876241Y2591155D01*
X4878222Y2591155D01*
X4878679Y2596794D01*
X4875377Y2603042D01*
X4874514Y2605430D01*
X4870450Y2613609D01*
X4867554Y2618892D01*
X4866487Y2621737D01*
X4865674Y2622448D01*
X4859324Y2632557D01*
X4859020Y2633421D01*
X4855311Y2638298D01*
X4855057Y2639009D01*
X4853127Y2641142D01*
X4849012Y2646883D01*
X4841392Y2654858D01*
X4829556Y2665933D01*
X4817821Y2676144D01*
X4807407Y2686100D01*
X4798771Y2695498D01*
X4799888Y2715869D01*
X4800092Y2726283D01*
X4800549Y2726537D01*
X4802073Y2726080D01*
X4808524Y2722626D01*
X4823053Y2712567D01*
X4833772Y2704744D01*
X4839766Y2699715D01*
X4850180Y2690215D01*
X4860798Y2680106D01*
X4867656Y2673045D01*
X4876292Y2662732D01*
X4885994Y2650591D01*
X4887874Y2647696D01*
X4889398Y2646375D01*
X4891938Y2641549D01*
X4894630Y2640685D01*
X4895291Y2638247D01*
X4895900Y2636875D01*
X4896916Y2635554D01*
X4898542Y2637688D01*
X4897475Y2640533D01*
X4896662Y2641904D01*
X4895443Y2642717D01*
X4894529Y2647797D01*
X4891836Y2651099D01*
X4890770Y2652776D01*
X4889957Y2654909D01*
X4886452Y2660802D01*
X4883353Y2665222D01*
X4883099Y2666034D01*
X4879289Y2671673D01*
X4878070Y2674010D01*
X4865268Y2690317D01*
X4856886Y2699715D01*
X4847539Y2708859D01*
X4837125Y2718308D01*
X4826711Y2726994D01*
X4814214Y2735681D01*
X4803444Y2742488D01*
X4798415Y2745130D01*
X4795621Y2746908D01*
X4780584Y2754833D01*
X4776114Y2756509D01*
X4773472Y2757728D01*
X4769713Y2759811D01*
X4766564Y2760878D01*
X4760722Y2763418D01*
X4756048Y2765094D01*
X4754626Y2765958D01*
X4746142Y2768803D01*
X4744415Y2770073D01*
X4737557Y2771952D01*
X4731766Y2774188D01*
X4724501Y2776270D01*
X4720437Y2777845D01*
X4712360Y2779928D01*
X4706315Y2782163D01*
X4696256Y2783789D01*
X4694224Y2785211D01*
X4692904Y2785618D01*
G37*
G36*
X4500422Y2762504D02*
G01*
X4485843Y2762148D01*
X4484116Y2761894D01*
X4483303Y2761437D01*
X4483201Y2760726D01*
X4487113Y2760065D01*
X4501032Y2758846D01*
X4503775Y2756204D01*
X4510176Y2754985D01*
X4514291Y2754782D01*
X4518914Y2752801D01*
X4531817Y2748635D01*
X4535576Y2747213D01*
X4536948Y2746959D01*
X4545228Y2743403D01*
X4546396Y2743149D01*
X4556506Y2738120D01*
X4560316Y2735580D01*
X4562602Y2735580D01*
X4566158Y2732938D01*
X4569663Y2731160D01*
X4573371Y2728518D01*
X4575606Y2727401D01*
X4587900Y2718460D01*
X4597704Y2710230D01*
X4610150Y2698902D01*
X4614011Y2695143D01*
X4616094Y2692450D01*
X4617669Y2693365D01*
X4617669Y2696870D01*
X4615789Y2698038D01*
X4614570Y2699512D01*
X4611878Y2703576D01*
X4608068Y2708046D01*
X4602835Y2713583D01*
X4587392Y2728468D01*
X4583023Y2730703D01*
X4582871Y2731008D01*
X4578756Y2734310D01*
X4569409Y2739948D01*
X4559604Y2745384D01*
X4547311Y2750413D01*
X4538014Y2753512D01*
X4536287Y2754782D01*
X4528769Y2756306D01*
X4524959Y2757373D01*
X4521911Y2758694D01*
X4505147Y2760573D01*
G37*
G36*
X4716018Y2754782D02*
G01*
X4716018Y2753004D01*
X4719624Y2751328D01*
X4721910Y2749804D01*
X4729734Y2743504D01*
X4736084Y2737916D01*
X4741773Y2732176D01*
X4746396Y2726994D01*
X4751628Y2720136D01*
X4756200Y2713634D01*
X4758791Y2709011D01*
X4759706Y2708097D01*
X4761128Y2705912D01*
X4768900Y2691485D01*
X4777079Y2677566D01*
X4783023Y2668778D01*
X4790186Y2660294D01*
X4798415Y2651607D01*
X4805680Y2644952D01*
X4814925Y2639060D01*
X4819650Y2636316D01*
X4824120Y2633014D01*
X4830775Y2626868D01*
X4837430Y2619857D01*
X4842103Y2614117D01*
X4852822Y2598623D01*
X4854549Y2594203D01*
X4857191Y2591917D01*
X4857191Y2588260D01*
X4856378Y2588310D01*
X4854752Y2589377D01*
X4848504Y2591968D01*
X4845354Y2593898D01*
X4841240Y2595524D01*
X4837176Y2597861D01*
X4824069Y2604566D01*
X4814620Y2610053D01*
X4812385Y2611069D01*
X4810302Y2612898D01*
X4807661Y2614168D01*
X4800041Y2619197D01*
X4793081Y2624582D01*
X4790998Y2625953D01*
X4783683Y2631998D01*
X4776673Y2639568D01*
X4769053Y2648356D01*
X4766818Y2652064D01*
X4766106Y2653842D01*
X4768088Y2655722D01*
X4781956Y2645714D01*
X4783378Y2644343D01*
X4784699Y2643479D01*
X4785664Y2643225D01*
X4788712Y2641041D01*
X4792472Y2638704D01*
X4793742Y2637688D01*
X4794300Y2636875D01*
X4798009Y2634488D01*
X4799888Y2633014D01*
X4801565Y2631998D01*
X4802530Y2631694D01*
X4806950Y2628138D01*
X4808626Y2627376D01*
X4812893Y2624124D01*
X4822037Y2617876D01*
X4823612Y2617012D01*
X4826000Y2616301D01*
X4828286Y2613558D01*
X4829911Y2615082D01*
X4828997Y2616454D01*
X4826406Y2616454D01*
X4826406Y2619349D01*
X4815586Y2629408D01*
X4795266Y2646172D01*
X4794859Y2646832D01*
X4791608Y2648712D01*
X4779111Y2658516D01*
X4768088Y2667660D01*
X4763262Y2671927D01*
X4755337Y2679801D01*
X4752238Y2683306D01*
X4735474Y2706217D01*
X4721352Y2722118D01*
X4717338Y2726232D01*
X4716678Y2727248D01*
X4716678Y2727807D01*
X4713732Y2728214D01*
X4712919Y2731414D01*
X4710836Y2731820D01*
X4710074Y2729941D01*
X4713884Y2726740D01*
X4714748Y2722930D01*
X4717034Y2720848D01*
X4717897Y2719679D01*
X4718151Y2718816D01*
X4719218Y2717241D01*
X4720793Y2715463D01*
X4721860Y2713888D01*
X4722164Y2712923D01*
X4725974Y2707640D01*
X4727143Y2705608D01*
X4727803Y2705252D01*
X4729124Y2703474D01*
X4734915Y2693771D01*
X4736490Y2691688D01*
X4739843Y2686100D01*
X4741976Y2682036D01*
X4744161Y2678938D01*
X4746396Y2674315D01*
X4748580Y2670606D01*
X4753660Y2660091D01*
X4762144Y2644343D01*
X4764786Y2640177D01*
X4767732Y2636113D01*
X4775454Y2626918D01*
X4785918Y2618536D01*
X4793030Y2613355D01*
X4796383Y2611678D01*
X4800346Y2609138D01*
X4818989Y2599334D01*
X4820208Y2598470D01*
X4823155Y2597251D01*
X4826558Y2595016D01*
X4832908Y2591866D01*
X4836210Y2589682D01*
X4837176Y2589377D01*
X4843068Y2585872D01*
X4844643Y2585720D01*
X4846777Y2583637D01*
X4848606Y2582418D01*
X4853635Y2579674D01*
X4865065Y2572207D01*
X4867148Y2567533D01*
X4867605Y2565654D01*
X4868468Y2564282D01*
X4871923Y2567381D01*
X4876952Y2564892D01*
X4893106Y2553716D01*
X4899863Y2548585D01*
X4902809Y2546756D01*
X4906975Y2543403D01*
X4910124Y2540558D01*
X4911394Y2539746D01*
X4912258Y2539492D01*
X4918049Y2534158D01*
X4923688Y2529382D01*
X4932730Y2520746D01*
X4938674Y2514701D01*
X4945024Y2507335D01*
X4948123Y2503322D01*
X4953457Y2495702D01*
X4956048Y2490470D01*
X4956911Y2489454D01*
X4958029Y2487422D01*
X4960162Y2482596D01*
X4961991Y2479294D01*
X4964277Y2474518D01*
X4967528Y2465984D01*
X4969052Y2462885D01*
X4972100Y2452878D01*
X4973421Y2450236D01*
X4975047Y2441194D01*
X4976114Y2436774D01*
X4977434Y2433574D01*
X4979111Y2416302D01*
X4978400Y2384907D01*
X4977282Y2379116D01*
X4976571Y2376525D01*
X4975961Y2375204D01*
X4974691Y2369464D01*
X4973726Y2363622D01*
X4972100Y2360472D01*
X4969002Y2351684D01*
X4967782Y2349195D01*
X4966665Y2344572D01*
X4963464Y2339898D01*
X4963871Y2335682D01*
X4965242Y2335276D01*
X4967122Y2338222D01*
X4968443Y2339848D01*
X4970475Y2341829D01*
X4973624Y2346248D01*
X4976977Y2352141D01*
X4978095Y2353564D01*
X4980940Y2359304D01*
X4982057Y2360980D01*
X4986172Y2370023D01*
X4988763Y2377795D01*
X4990998Y2382774D01*
X4992065Y2389733D01*
X4992928Y2393492D01*
X4993741Y2395880D01*
X4994656Y2399690D01*
X4995824Y2406904D01*
X4995214Y2442565D01*
X4992979Y2447290D01*
X4990846Y2459177D01*
X4989017Y2462784D01*
X4987950Y2465832D01*
X4986832Y2470759D01*
X4984953Y2473756D01*
X4981651Y2481529D01*
X4979720Y2484780D01*
X4979466Y2485898D01*
X4975758Y2491638D01*
X4975453Y2492502D01*
X4971745Y2497937D01*
X4971440Y2498902D01*
X4967732Y2503678D01*
X4967020Y2504998D01*
X4959553Y2513939D01*
X4954625Y2519273D01*
X4940808Y2533040D01*
X4924399Y2546604D01*
X4920030Y2549245D01*
X4917135Y2551785D01*
X4908804Y2557526D01*
X4898085Y2564434D01*
X4897221Y2564688D01*
X4894072Y2567025D01*
X4893208Y2567279D01*
X4888026Y2570784D01*
X4885893Y2571699D01*
X4879644Y2575356D01*
X4877358Y2576372D01*
X4875987Y2577592D01*
X4873802Y2578811D01*
X4869281Y2580741D01*
X4863693Y2592120D01*
X4863185Y2593848D01*
X4863185Y2595118D01*
X4860442Y2599131D01*
X4859375Y2601163D01*
X4859020Y2602331D01*
X4857953Y2604211D01*
X4855768Y2607310D01*
X4854600Y2609799D01*
X4851755Y2613304D01*
X4850993Y2614930D01*
X4848352Y2617876D01*
X4844491Y2622702D01*
X4832654Y2634894D01*
X4822748Y2643225D01*
X4820970Y2644190D01*
X4814620Y2648915D01*
X4813249Y2649118D01*
X4811166Y2651810D01*
X4810099Y2652826D01*
X4807102Y2654909D01*
X4802225Y2659634D01*
X4796790Y2665323D01*
X4787087Y2676753D01*
X4784852Y2680411D01*
X4780076Y2687167D01*
X4778197Y2693162D01*
X4775606Y2693822D01*
X4774844Y2696565D01*
X4772050Y2701594D01*
X4770780Y2704388D01*
X4769104Y2706979D01*
X4765802Y2713024D01*
X4763109Y2716530D01*
X4762042Y2718409D01*
X4758283Y2722981D01*
X4758029Y2723743D01*
X4747818Y2734919D01*
X4743551Y2739034D01*
X4739589Y2742488D01*
X4734560Y2746044D01*
X4731512Y2748534D01*
X4729480Y2749905D01*
X4727600Y2750870D01*
X4723028Y2752191D01*
X4721352Y2754782D01*
G37*
G36*
X4503166Y2732125D02*
G01*
X4501083Y2731973D01*
X4499914Y2731668D01*
X4499914Y2730042D01*
X4502912Y2728620D01*
X4510836Y2728112D01*
X4512513Y2726182D01*
X4513884Y2725420D01*
X4515662Y2724810D01*
X4520946Y2723896D01*
X4525721Y2720848D01*
X4531918Y2719781D01*
X4535373Y2717139D01*
X4540300Y2716276D01*
X4544415Y2713329D01*
X4549089Y2712415D01*
X4551578Y2710332D01*
X4553712Y2709164D01*
X4555744Y2708402D01*
X4560112Y2705760D01*
X4564888Y2704084D01*
X4566056Y2702407D01*
X4566869Y2701747D01*
X4567682Y2701442D01*
X4569409Y2700274D01*
X4572355Y2697835D01*
X4574438Y2696565D01*
X4589221Y2684119D01*
X4595977Y2677972D01*
X4599228Y2674721D01*
X4601616Y2674721D01*
X4601616Y2677515D01*
X4594098Y2686608D01*
X4589119Y2691841D01*
X4584090Y2696464D01*
X4573270Y2704896D01*
X4572304Y2705404D01*
X4571390Y2705608D01*
X4569968Y2706471D01*
X4567580Y2708351D01*
X4562195Y2711297D01*
X4554270Y2715209D01*
X4553407Y2715971D01*
X4546650Y2718816D01*
X4545279Y2720136D01*
X4540097Y2721660D01*
X4536998Y2722829D01*
X4533696Y2724556D01*
X4528058Y2725420D01*
X4524654Y2728010D01*
X4515916Y2729179D01*
X4510786Y2731668D01*
G37*
G36*
X4462780Y2709265D02*
G01*
X4455007Y2708198D01*
X4453686Y2706928D01*
X4459630Y2705963D01*
X4465675Y2705404D01*
X4476292Y2704896D01*
X4481322Y2703169D01*
X4488840Y2701594D01*
X4498238Y2700528D01*
X4502810Y2698902D01*
X4507179Y2697835D01*
X4514545Y2696514D01*
X4519574Y2694279D01*
X4522216Y2693466D01*
X4524451Y2693314D01*
X4528261Y2690926D01*
X4530801Y2689707D01*
X4534052Y2688793D01*
X4536541Y2686608D01*
X4537913Y2685745D01*
X4538827Y2685491D01*
X4543958Y2681935D01*
X4546955Y2680360D01*
X4553508Y2673858D01*
X4556810Y2670200D01*
X4562856Y2662123D01*
X4565091Y2658008D01*
X4565599Y2656484D01*
X4566259Y2655824D01*
X4568088Y2654858D01*
X4569053Y2651404D01*
X4569409Y2649372D01*
X4569510Y2647086D01*
X4567224Y2647543D01*
X4563872Y2653030D01*
X4561433Y2656484D01*
X4558436Y2659786D01*
X4555845Y2663037D01*
X4553712Y2664206D01*
X4550867Y2666542D01*
X4546244Y2669540D01*
X4540808Y2672486D01*
X4538065Y2674620D01*
X4534204Y2675432D01*
X4531512Y2677871D01*
X4527245Y2678988D01*
X4523079Y2680716D01*
X4520488Y2682087D01*
X4510328Y2682087D01*
X4509871Y2680055D01*
X4512767Y2679039D01*
X4515510Y2678430D01*
X4520336Y2677769D01*
X4523079Y2674924D01*
X4528210Y2674010D01*
X4531258Y2671876D01*
X4535982Y2669844D01*
X4541977Y2666238D01*
X4547260Y2662478D01*
X4555134Y2654554D01*
X4557674Y2650744D01*
X4561332Y2645918D01*
X4561535Y2645156D01*
X4563110Y2643327D01*
X4564532Y2641092D01*
X4567021Y2636469D01*
X4568190Y2634843D01*
X4570171Y2630068D01*
X4572152Y2627172D01*
X4573676Y2623515D01*
X4574743Y2621483D01*
X4576114Y2620213D01*
X4577588Y2613355D01*
X4579975Y2610358D01*
X4581245Y2605328D01*
X4584039Y2598724D01*
X4586274Y2591511D01*
X4587290Y2589225D01*
X4588256Y2587802D01*
X4590288Y2579319D01*
X4590999Y2577998D01*
X4593437Y2577998D01*
X4593844Y2579014D01*
X4594148Y2581910D01*
X4593996Y2592832D01*
X4593285Y2598978D01*
X4590237Y2612186D01*
X4589576Y2617520D01*
X4586986Y2623159D01*
X4585512Y2632862D01*
X4582210Y2639110D01*
X4582210Y2642514D01*
X4579823Y2647035D01*
X4577740Y2652318D01*
X4576521Y2654858D01*
X4574286Y2658567D01*
X4574032Y2659532D01*
X4569358Y2666949D01*
X4565345Y2672588D01*
X4562652Y2675737D01*
X4552950Y2685389D01*
X4541621Y2693162D01*
X4534357Y2695397D01*
X4532884Y2697124D01*
X4526889Y2698648D01*
X4523790Y2699715D01*
X4521352Y2701137D01*
X4513376Y2702814D01*
X4509617Y2703830D01*
X4507382Y2704846D01*
X4493412Y2706624D01*
X4486859Y2707690D01*
X4482846Y2708757D01*
G37*
G36*
X4719523Y2682341D02*
G01*
X4718761Y2682189D01*
X4718304Y2681630D01*
X4718050Y2679954D01*
X4717999Y2676194D01*
X4720945Y2670657D01*
X4722876Y2665933D01*
X4724704Y2663037D01*
X4727041Y2657906D01*
X4733747Y2645867D01*
X4736287Y2642616D01*
X4738928Y2637840D01*
X4749241Y2623820D01*
X4753711Y2619095D01*
X4754930Y2617114D01*
X4760366Y2611374D01*
X4768697Y2603246D01*
X4777486Y2595270D01*
X4785410Y2588768D01*
X4792218Y2583891D01*
X4801666Y2577998D01*
X4809794Y2572613D01*
X4811268Y2571140D01*
X4813503Y2570327D01*
X4818634Y2567178D01*
X4821072Y2566111D01*
X4828235Y2560929D01*
X4830724Y2559405D01*
X4832146Y2558796D01*
X4833061Y2558796D01*
X4835194Y2555646D01*
X4837480Y2554833D01*
X4840020Y2553208D01*
X4845913Y2548585D01*
X4853127Y2542540D01*
X4860645Y2535478D01*
X4867757Y2528265D01*
X4875631Y2519222D01*
X4878730Y2516022D01*
X4877816Y2513330D01*
X4877104Y2513330D01*
X4875174Y2514447D01*
X4862626Y2523439D01*
X4850993Y2530703D01*
X4848098Y2532126D01*
X4842713Y2534005D01*
X4839157Y2535834D01*
X4833010Y2538222D01*
X4829657Y2540050D01*
X4825390Y2541676D01*
X4821580Y2543810D01*
X4816500Y2545994D01*
X4814163Y2547670D01*
X4812080Y2548382D01*
X4808016Y2550668D01*
X4804206Y2552395D01*
X4790948Y2560320D01*
X4786426Y2563469D01*
X4785207Y2563926D01*
X4784293Y2563926D01*
X4782108Y2567127D01*
X4780686Y2567279D01*
X4779162Y2568194D01*
X4761687Y2582468D01*
X4753457Y2590393D01*
X4751171Y2592120D01*
X4750917Y2591562D01*
X4750816Y2588361D01*
X4754168Y2585821D01*
X4754168Y2583992D01*
X4757877Y2580436D01*
X4764582Y2573375D01*
X4771288Y2567127D01*
X4777587Y2561640D01*
X4782159Y2558389D01*
X4782515Y2557780D01*
X4788662Y2553309D01*
X4789119Y2552598D01*
X4792980Y2550566D01*
X4795621Y2548585D01*
X4808677Y2540457D01*
X4812995Y2538374D01*
X4814316Y2537409D01*
X4815179Y2536393D01*
X4820716Y2534970D01*
X4823460Y2532583D01*
X4826812Y2531872D01*
X4828946Y2531008D01*
X4843119Y2523693D01*
X4856734Y2515108D01*
X4861712Y2511348D01*
X4871059Y2503728D01*
X4878374Y2497175D01*
X4884318Y2490622D01*
X4887671Y2486558D01*
X4888331Y2486253D01*
X4894630Y2477312D01*
X4895291Y2475788D01*
X4895291Y2474925D01*
X4896612Y2474925D01*
X4899964Y2468575D01*
X4902657Y2466797D01*
X4904028Y2459532D01*
X4905298Y2459532D01*
X4906721Y2464663D01*
X4904740Y2468016D01*
X4903520Y2469438D01*
X4902657Y2477566D01*
X4900015Y2481173D01*
X4898491Y2488031D01*
X4895494Y2491892D01*
X4894732Y2496769D01*
X4890617Y2501188D01*
X4890617Y2503678D01*
X4886706Y2507945D01*
X4885791Y2511501D01*
X4882591Y2513482D01*
X4882591Y2514854D01*
X4882337Y2516073D01*
X4881727Y2517241D01*
X4880864Y2518105D01*
X4880051Y2518460D01*
X4879289Y2518460D01*
X4877866Y2524150D01*
X4875326Y2524912D01*
X4874056Y2528366D01*
X4865928Y2536748D01*
X4862017Y2541168D01*
X4853127Y2549499D01*
X4843018Y2558034D01*
X4835194Y2563723D01*
X4832959Y2564688D01*
X4829810Y2567025D01*
X4828997Y2567279D01*
X4826203Y2569514D01*
X4823917Y2571038D01*
X4818634Y2573985D01*
X4803343Y2584754D01*
X4788306Y2597099D01*
X4786122Y2598521D01*
X4779111Y2604820D01*
X4768037Y2615692D01*
X4761534Y2622753D01*
X4754168Y2631389D01*
X4747514Y2639720D01*
X4739284Y2650998D01*
X4738166Y2653334D01*
X4735322Y2656840D01*
X4734153Y2659075D01*
X4731359Y2662986D01*
X4730140Y2665476D01*
X4727295Y2669743D01*
X4725619Y2673248D01*
X4723130Y2677160D01*
X4720996Y2682087D01*
G37*
G36*
X4707940Y2678531D02*
G01*
X4707331Y2678277D01*
X4706315Y2676347D01*
X4706315Y2656382D01*
X4707940Y2654452D01*
X4710582Y2643835D01*
X4714087Y2638298D01*
X4715306Y2635656D01*
X4718659Y2635656D01*
X4718761Y2634386D01*
X4719320Y2633472D01*
X4720691Y2632303D01*
X4720691Y2635046D01*
X4718862Y2635758D01*
X4718050Y2643327D01*
X4714798Y2649423D01*
X4713884Y2656941D01*
X4711141Y2662885D01*
X4709210Y2676347D01*
X4708499Y2678226D01*
G37*
G36*
X4455414Y2674721D02*
G01*
X4454093Y2674670D01*
X4448505Y2671064D01*
X4447540Y2670810D01*
X4443425Y2668422D01*
X4442460Y2668422D01*
X4441393Y2669133D01*
X4439716Y2670911D01*
X4438142Y2670708D01*
X4435754Y2669540D01*
X4432909Y2667762D01*
X4430572Y2666593D01*
X4426610Y2665171D01*
X4420971Y2662377D01*
X4419498Y2659329D01*
X4418939Y2658821D01*
X4418177Y2659075D01*
X4415485Y2661259D01*
X4411980Y2658668D01*
X4409897Y2657449D01*
X4407712Y2656738D01*
X4406950Y2653995D01*
X4403598Y2656992D01*
X4401718Y2655468D01*
X4400143Y2649524D01*
X4396892Y2645816D01*
X4396892Y2638958D01*
X4397806Y2636672D01*
X4398721Y2635656D01*
X4400042Y2636774D01*
X4405172Y2642260D01*
X4406696Y2643581D01*
X4407458Y2643936D01*
X4411065Y2640736D01*
X4415383Y2643174D01*
X4421632Y2644038D01*
X4427169Y2645613D01*
X4431538Y2647289D01*
X4434687Y2644140D01*
X4438751Y2643530D01*
X4440986Y2642920D01*
X4442917Y2641854D01*
X4447489Y2643174D01*
X4455261Y2636977D01*
X4457954Y2638602D01*
X4459071Y2638806D01*
X4460240Y2638450D01*
X4463237Y2636367D01*
X4465472Y2637637D01*
X4471365Y2639669D01*
X4474413Y2636316D01*
X4476089Y2636418D01*
X4481931Y2639263D01*
X4485944Y2640736D01*
X4488383Y2642108D01*
X4490516Y2642819D01*
X4493209Y2642006D01*
X4493209Y2640126D01*
X4489856Y2638907D01*
X4489856Y2637586D01*
X4492599Y2637586D01*
X4493310Y2639415D01*
X4501591Y2640279D01*
X4503369Y2641650D01*
X4504537Y2639822D01*
X4510532Y2639974D01*
X4513376Y2641650D01*
X4523638Y2645918D01*
X4526940Y2645765D01*
X4531461Y2644952D01*
X4540605Y2642870D01*
X4543399Y2641092D01*
X4545380Y2640177D01*
X4548022Y2639517D01*
X4549546Y2642158D01*
X4545787Y2647289D01*
X4543704Y2649321D01*
X4541520Y2650896D01*
X4537506Y2652826D01*
X4536897Y2653487D01*
X4537252Y2654300D01*
X4540402Y2657602D01*
X4538929Y2658211D01*
X4532782Y2663037D01*
X4521149Y2665120D01*
X4519320Y2666542D01*
X4496816Y2667254D01*
X4487214Y2665018D01*
X4487214Y2667050D01*
X4483760Y2667863D01*
X4476191Y2666847D01*
X4473803Y2666288D01*
X4473803Y2670860D01*
X4471263Y2672130D01*
X4460087Y2670048D01*
X4459173Y2668676D01*
X4458411Y2669438D01*
X4459732Y2672791D01*
X4456785Y2674721D01*
G37*
G36*
X4704130Y2638552D02*
G01*
X4702505Y2634691D01*
X4701844Y2624480D01*
X4702911Y2620518D01*
X4706620Y2609799D01*
X4708144Y2608834D01*
X4709414Y2607208D01*
X4710938Y2604566D01*
X4711649Y2603804D01*
X4712360Y2603804D01*
X4713986Y2605176D01*
X4713986Y2608580D01*
X4710785Y2614218D01*
X4709820Y2619959D01*
X4706823Y2623820D01*
X4706112Y2629865D01*
G37*
G36*
X4522165Y2635656D02*
G01*
X4520641Y2633929D01*
X4523181Y2632913D01*
X4525213Y2632506D01*
X4528362Y2632456D01*
X4530648Y2628646D01*
X4534052Y2628646D01*
X4534052Y2626207D01*
X4536033Y2624632D01*
X4536846Y2626715D01*
X4533138Y2631897D01*
X4529175Y2634183D01*
X4527854Y2635656D01*
G37*
G36*
X4547616Y2631744D02*
G01*
X4546854Y2631592D01*
X4545330Y2630017D01*
X4548174Y2628798D01*
X4549241Y2628036D01*
X4549902Y2627071D01*
X4561738Y2615082D01*
X4563211Y2612999D01*
X4565497Y2613863D01*
X4565497Y2617571D01*
X4561890Y2623058D01*
X4555794Y2628646D01*
X4554169Y2628747D01*
G37*
G36*
X4294936Y2603500D02*
G01*
X4288739Y2602992D01*
X4281932Y2601772D01*
X4279239Y2601061D01*
X4275734Y2597048D01*
X4276140Y2594508D01*
X4279646Y2592222D01*
X4291025Y2582824D01*
X4295089Y2579166D01*
X4297883Y2576118D01*
X4301236Y2571800D01*
X4302302Y2570835D01*
X4303115Y2569768D01*
X4304944Y2565704D01*
X4307840Y2561234D01*
X4308551Y2557729D01*
X4311243Y2550414D01*
X4311243Y2540812D01*
X4309364Y2536799D01*
X4306976Y2529078D01*
X4303979Y2524404D01*
X4303674Y2523439D01*
X4299407Y2516733D01*
X4299102Y2515819D01*
X4298391Y2514803D01*
X4297324Y2513787D01*
X4296613Y2512771D01*
X4296359Y2511907D01*
X4292650Y2507030D01*
X4292396Y2506167D01*
X4286351Y2498852D01*
X4282897Y2495194D01*
X4276445Y2488946D01*
X4276445Y2487117D01*
X4278376Y2486202D01*
X4279950Y2485847D01*
X4282287Y2485796D01*
X4282998Y2484983D01*
X4283608Y2483764D01*
X4283913Y2481884D01*
X4283913Y2479192D01*
X4283049Y2471064D01*
X4282490Y2470759D01*
X4281525Y2468880D01*
X4278274Y2459939D01*
X4277664Y2459278D01*
X4276750Y2457602D01*
X4275175Y2453843D01*
X4267555Y2442718D01*
X4248454Y2420315D01*
X4247032Y2418181D01*
X4246727Y2417419D01*
X4245305Y2415895D01*
X4245000Y2415235D01*
X4245000Y2414676D01*
X4247134Y2414676D01*
X4247845Y2417267D01*
X4250944Y2417267D01*
X4252417Y2418689D01*
X4252976Y2419553D01*
X4253026Y2420467D01*
X4255109Y2420467D01*
X4258208Y2423668D01*
X4260240Y2422956D01*
X4259275Y2419096D01*
X4258259Y2416657D01*
X4256481Y2413762D01*
X4254296Y2403500D01*
X4252925Y2402687D01*
X4250994Y2393899D01*
X4249470Y2391562D01*
X4247438Y2386330D01*
X4246067Y2383434D01*
X4241901Y2376220D01*
X4239666Y2373630D01*
X4239666Y2371293D01*
X4241495Y2369820D01*
X4251350Y2371293D01*
X4262374Y2370632D01*
X4273092Y2364435D01*
X4275378Y2362809D01*
X4277614Y2362809D01*
X4285386Y2357272D01*
X4280916Y2354021D01*
X4281881Y2352548D01*
X4284370Y2352649D01*
X4286554Y2353157D01*
X4290009Y2354478D01*
X4295190Y2354478D01*
X4295089Y2353665D01*
X4294378Y2352751D01*
X4292498Y2351074D01*
X4292498Y2348941D01*
X4289145Y2345944D01*
X4289145Y2342489D01*
X4291076Y2340965D01*
X4292701Y2343251D01*
X4293666Y2344115D01*
X4294378Y2344369D01*
X4296562Y2346452D01*
X4297984Y2347518D01*
X4300677Y2348890D01*
X4301845Y2349906D01*
X4303318Y2350719D01*
X4318101Y2353360D01*
X4336389Y2355697D01*
X4340606Y2357983D01*
X4342739Y2358847D01*
X4344009Y2359101D01*
X4345990Y2360117D01*
X4348175Y2361641D01*
X4350054Y2362657D01*
X4354169Y2363927D01*
X4360418Y2366467D01*
X4378706Y2368804D01*
X4382516Y2367381D01*
X4399330Y2366518D01*
X4400854Y2368042D01*
X4401566Y2369261D01*
X4400753Y2370480D01*
X4398619Y2372309D01*
X4395571Y2374442D01*
X4387189Y2379116D01*
X4368444Y2379167D01*
X4364482Y2377236D01*
X4361281Y2376068D01*
X4356404Y2374849D01*
X4334459Y2364841D01*
X4330446Y2363470D01*
X4314799Y2363470D01*
X4306874Y2364943D01*
X4304131Y2367076D01*
X4302150Y2368042D01*
X4299559Y2368753D01*
X4288129Y2379472D01*
X4284319Y2383840D01*
X4280966Y2388514D01*
X4276852Y2395778D01*
X4276852Y2425903D01*
X4279798Y2431745D01*
X4280966Y2434488D01*
X4281271Y2435758D01*
X4282084Y2437485D01*
X4284472Y2441397D01*
X4285284Y2443276D01*
X4290771Y2452420D01*
X4293362Y2457145D01*
X4294428Y2458415D01*
X4297172Y2460802D01*
X4297324Y2462123D01*
X4298137Y2463444D01*
X4301540Y2467610D01*
X4304842Y2472436D01*
X4307941Y2477465D01*
X4312158Y2485999D01*
X4313631Y2491587D01*
X4316374Y2500223D01*
X4317441Y2508656D01*
X4318762Y2515412D01*
X4319676Y2517597D01*
X4320540Y2520594D01*
X4321911Y2527503D01*
X4325162Y2534564D01*
X4325620Y2536393D01*
X4332935Y2551125D01*
X4332935Y2568092D01*
X4330395Y2572766D01*
X4329430Y2575153D01*
X4329328Y2577134D01*
X4326940Y2580284D01*
X4325670Y2582672D01*
X4324451Y2586024D01*
X4323080Y2586888D01*
X4319016Y2592679D01*
X4315612Y2596743D01*
X4308246Y2601569D01*
X4297680Y2603246D01*
G37*
G36*
X4225290Y2601772D02*
G01*
X4218076Y2599232D01*
X4213250Y2597759D01*
X4211320Y2596134D01*
X4207764Y2593848D01*
X4204614Y2590952D01*
X4201464Y2587701D01*
X4196689Y2581554D01*
X4196232Y2580538D01*
X4196029Y2579370D01*
X4192828Y2572562D01*
X4192879Y2569819D01*
X4193235Y2568295D01*
X4194098Y2566822D01*
X4206290Y2578760D01*
X4208221Y2578049D01*
X4208068Y2576677D01*
X4207205Y2575356D01*
X4204868Y2573070D01*
X4203446Y2569311D01*
X4202176Y2566924D01*
X4200245Y2564231D01*
X4197858Y2553766D01*
X4197248Y2551887D01*
X4196892Y2549601D01*
X4196842Y2545943D01*
X4199280Y2543098D01*
X4201668Y2540711D01*
X4204309Y2538577D01*
X4206849Y2536952D01*
X4208983Y2536037D01*
X4210710Y2535682D01*
X4212742Y2537612D01*
X4212082Y2545689D01*
X4213656Y2551328D01*
X4219397Y2556510D01*
X4221937Y2558491D01*
X4224731Y2559862D01*
X4228338Y2562199D01*
X4234891Y2563520D01*
X4239463Y2564180D01*
X4245508Y2564688D01*
X4249623Y2562047D01*
X4250334Y2561386D01*
X4249318Y2560878D01*
X4243374Y2559456D01*
X4236364Y2552852D01*
X4234383Y2547924D01*
X4232960Y2545232D01*
X4232960Y2539238D01*
X4237329Y2529382D01*
X4243832Y2524201D01*
X4259173Y2524201D01*
X4263034Y2527909D01*
X4269790Y2529484D01*
X4272381Y2531567D01*
X4275124Y2539238D01*
X4275023Y2542692D01*
X4274515Y2545537D01*
X4273194Y2549956D01*
X4273550Y2550871D01*
X4274464Y2551684D01*
X4276140Y2551328D01*
X4278833Y2549550D01*
X4287113Y2542641D01*
X4288637Y2538222D01*
X4287723Y2534869D01*
X4283659Y2530398D01*
X4286656Y2528062D01*
X4290466Y2528062D01*
X4297832Y2532024D01*
X4299610Y2533345D01*
X4300524Y2534767D01*
X4301388Y2538882D01*
X4298391Y2543251D01*
X4297070Y2545638D01*
X4296359Y2547924D01*
X4294581Y2547924D01*
X4293717Y2550566D01*
X4294530Y2551328D01*
X4297781Y2549601D01*
X4299508Y2548077D01*
X4301540Y2546959D01*
X4306824Y2544673D01*
X4308551Y2545334D01*
X4308551Y2549144D01*
X4307179Y2550058D01*
X4305960Y2551684D01*
X4303979Y2555290D01*
X4299407Y2557881D01*
X4298950Y2558440D01*
X4294225Y2560777D01*
X4289247Y2564282D01*
X4284522Y2566873D01*
X4282338Y2568702D01*
X4281373Y2569057D01*
X4280458Y2569057D01*
X4280458Y2564587D01*
X4277766Y2564587D01*
X4277004Y2566416D01*
X4269435Y2568549D01*
X4266742Y2570784D01*
X4262932Y2571445D01*
X4260088Y2572359D01*
X4256074Y2574340D01*
X4243984Y2576068D01*
X4235551Y2576017D01*
X4229709Y2575661D01*
X4222089Y2574747D01*
X4220972Y2576423D01*
X4228134Y2582672D01*
X4231030Y2584602D01*
X4233926Y2585567D01*
X4242003Y2586482D01*
X4250182Y2585364D01*
X4252620Y2584805D01*
X4254601Y2584094D01*
X4263694Y2579725D01*
X4267809Y2577338D01*
X4270502Y2574798D01*
X4273042Y2574798D01*
X4274972Y2572156D01*
X4275734Y2573375D01*
X4274566Y2576931D01*
X4273550Y2578455D01*
X4267758Y2584399D01*
X4260342Y2591054D01*
X4257497Y2593238D01*
X4253839Y2595219D01*
X4250131Y2597861D01*
X4247896Y2598013D01*
X4245000Y2598877D01*
X4239310Y2601163D01*
G37*
G36*
X4488129Y2600299D02*
G01*
X4482693Y2599893D01*
X4465370Y2597404D01*
X4462272Y2595981D01*
X4458970Y2595067D01*
X4452975Y2593949D01*
X4447540Y2591358D01*
X4444593Y2590190D01*
X4441799Y2589428D01*
X4441088Y2587650D01*
X4444034Y2586126D01*
X4459427Y2585618D01*
X4463135Y2584297D01*
X4463034Y2582875D01*
X4462424Y2581198D01*
X4461713Y2579928D01*
X4460849Y2579928D01*
X4458462Y2579116D01*
X4449216Y2574493D01*
X4445304Y2572258D01*
X4441850Y2569870D01*
X4434128Y2563622D01*
X4428185Y2558237D01*
X4424019Y2555392D01*
X4422698Y2554986D01*
X4419701Y2557729D01*
X4420463Y2559304D01*
X4421022Y2561082D01*
X4421632Y2564282D01*
X4425645Y2568498D01*
X4425645Y2571140D01*
X4427220Y2572308D01*
X4427677Y2572918D01*
X4427626Y2573121D01*
X4426153Y2572969D01*
X4419701Y2571140D01*
X4416552Y2569819D01*
X4410913Y2566924D01*
X4403953Y2560370D01*
X4401312Y2557475D01*
X4399686Y2554478D01*
X4396943Y2550515D01*
X4395774Y2544775D01*
X4394860Y2541727D01*
X4393539Y2539034D01*
X4393539Y2534716D01*
X4395317Y2532380D01*
X4397654Y2537917D01*
X4400245Y2539695D01*
X4402175Y2544064D01*
X4406646Y2544064D01*
X4410964Y2539441D01*
X4420717Y2539949D01*
X4422698Y2541676D01*
X4424781Y2542895D01*
X4428642Y2544572D01*
X4430979Y2547264D01*
X4432960Y2547264D01*
X4434281Y2549601D01*
X4439818Y2551988D01*
X4441037Y2550160D01*
X4438243Y2547823D01*
X4436211Y2545334D01*
X4431588Y2542133D01*
X4426254Y2539238D01*
X4423664Y2535072D01*
X4423664Y2531211D01*
X4426712Y2528265D01*
X4438700Y2527350D01*
X4440986Y2528163D01*
X4441850Y2530754D01*
X4438802Y2534716D01*
X4440834Y2536037D01*
X4441596Y2536952D01*
X4441698Y2538018D01*
X4444847Y2539898D01*
X4447692Y2542133D01*
X4452518Y2546502D01*
X4456887Y2550007D01*
X4461814Y2553360D01*
X4463288Y2554986D01*
X4465320Y2555087D01*
X4475429Y2557576D01*
X4480864Y2558186D01*
X4484878Y2557018D01*
X4482795Y2556865D01*
X4479848Y2554274D01*
X4477715Y2552750D01*
X4474616Y2551176D01*
X4469384Y2545435D01*
X4468317Y2541727D01*
X4467148Y2532888D01*
X4469485Y2524658D01*
X4474616Y2520696D01*
X4488891Y2520594D01*
X4497882Y2518968D01*
X4504893Y2520594D01*
X4509414Y2525166D01*
X4511141Y2534615D01*
X4508957Y2546299D01*
X4511598Y2546654D01*
X4521555Y2537764D01*
X4521403Y2528824D01*
X4523943Y2526639D01*
X4538827Y2528519D01*
X4540961Y2530602D01*
X4538624Y2534564D01*
X4536694Y2537206D01*
X4531004Y2543098D01*
X4519218Y2554122D01*
X4516628Y2556256D01*
X4515713Y2556662D01*
X4512614Y2559304D01*
X4507484Y2563114D01*
X4503775Y2564333D01*
X4501794Y2565247D01*
X4500067Y2566568D01*
X4490466Y2568905D01*
X4484116Y2570073D01*
X4477461Y2570937D01*
X4473549Y2571699D01*
X4471670Y2572715D01*
X4474972Y2577693D01*
X4482846Y2581554D01*
X4498898Y2581554D01*
X4502810Y2579624D01*
X4505553Y2578658D01*
X4509160Y2577998D01*
X4512716Y2575661D01*
X4516526Y2573528D01*
X4521758Y2570226D01*
X4524146Y2568295D01*
X4527905Y2564739D01*
X4530140Y2562910D01*
X4532020Y2562047D01*
X4532985Y2559862D01*
X4534154Y2558186D01*
X4541266Y2550210D01*
X4542434Y2548229D01*
X4545076Y2548229D01*
X4545482Y2554224D01*
X4543196Y2558643D01*
X4540250Y2565247D01*
X4537151Y2570530D01*
X4533747Y2575763D01*
X4530140Y2580690D01*
X4529886Y2581503D01*
X4528820Y2582621D01*
X4526127Y2584602D01*
X4525518Y2586786D01*
X4518812Y2592273D01*
X4515764Y2594356D01*
X4513478Y2595372D01*
X4511548Y2596845D01*
X4509566Y2597556D01*
X4506112Y2598267D01*
X4493310Y2600045D01*
G37*
G36*
X4697933Y2592730D02*
G01*
X4697933Y2584653D01*
X4701133Y2580538D01*
X4702657Y2574798D01*
X4703927Y2574798D01*
X4706975Y2569413D01*
X4710531Y2564739D01*
X4714443Y2560523D01*
X4722368Y2552852D01*
X4726787Y2550210D01*
X4728718Y2548534D01*
X4728718Y2548026D01*
X4732629Y2547213D01*
X4736033Y2544165D01*
X4742078Y2543302D01*
X4742180Y2542489D01*
X4742891Y2541828D01*
X4744770Y2540863D01*
X4747717Y2541676D01*
X4748022Y2542133D01*
X4747361Y2542692D01*
X4743348Y2544165D01*
X4742484Y2546350D01*
X4741824Y2547162D01*
X4739538Y2548432D01*
X4735728Y2551379D01*
X4730953Y2555443D01*
X4726025Y2560015D01*
X4719878Y2566212D01*
X4714189Y2572562D01*
X4709668Y2578201D01*
X4705146Y2585262D01*
X4702302Y2589276D01*
X4700422Y2592730D01*
G37*
G36*
X4742688Y2563266D02*
G01*
X4743094Y2560421D01*
X4746091Y2559151D01*
X4746091Y2556967D01*
X4750104Y2554224D01*
X4750155Y2552700D01*
X4760772Y2543149D01*
X4767376Y2538069D01*
X4776165Y2532430D01*
X4781905Y2529128D01*
X4786020Y2527198D01*
X4788103Y2525979D01*
X4788865Y2525318D01*
X4794808Y2523185D01*
X4798822Y2521051D01*
X4805324Y2519680D01*
X4807966Y2517952D01*
X4810455Y2516886D01*
X4815687Y2515158D01*
X4820158Y2513076D01*
X4824882Y2511247D01*
X4828540Y2509367D01*
X4831232Y2508250D01*
X4837836Y2504338D01*
X4845608Y2499258D01*
X4850892Y2495143D01*
X4855921Y2490520D01*
X4858258Y2487879D01*
X4858512Y2487218D01*
X4858512Y2486406D01*
X4860544Y2485644D01*
X4861915Y2482443D01*
X4862423Y2480614D01*
X4862525Y2478735D01*
X4860442Y2478735D01*
X4856124Y2481834D01*
X4853990Y2483053D01*
X4852974Y2483358D01*
X4851654Y2484170D01*
X4850231Y2485390D01*
X4844186Y2488539D01*
X4842814Y2489504D01*
X4835702Y2492756D01*
X4830013Y2494940D01*
X4826304Y2496769D01*
X4823155Y2497937D01*
X4816348Y2499918D01*
X4816348Y2501087D01*
X4809083Y2502509D01*
X4805832Y2504948D01*
X4801362Y2505964D01*
X4798872Y2506827D01*
X4795316Y2508504D01*
X4792370Y2509367D01*
X4789932Y2507589D01*
X4791862Y2506218D01*
X4793183Y2505710D01*
X4795062Y2505659D01*
X4799076Y2501798D01*
X4801565Y2501798D01*
X4804511Y2499512D01*
X4806746Y2498242D01*
X4811420Y2496058D01*
X4815535Y2493619D01*
X4816551Y2493365D01*
X4822647Y2490165D01*
X4824425Y2489606D01*
X4829505Y2486812D01*
X4833924Y2485237D01*
X4846878Y2479141D01*
X4855057Y2473960D01*
X4862068Y2468016D01*
X4865674Y2463901D01*
X4873091Y2454503D01*
X4873802Y2453284D01*
X4874056Y2452319D01*
X4874971Y2450541D01*
X4876444Y2448356D01*
X4877866Y2445512D01*
X4879289Y2441295D01*
X4883251Y2437841D01*
X4883302Y2435453D01*
X4883708Y2433675D01*
X4884775Y2431034D01*
X4885537Y2433015D01*
X4885842Y2435199D01*
X4885944Y2439162D01*
X4884521Y2444648D01*
X4883607Y2449626D01*
X4882540Y2457907D01*
X4880305Y2462580D01*
X4879238Y2465832D01*
X4878425Y2470099D01*
X4871059Y2483967D01*
X4866944Y2490165D01*
X4862728Y2495702D01*
X4859070Y2499664D01*
X4851908Y2505760D01*
X4842764Y2511501D01*
X4840173Y2512872D01*
X4835702Y2514701D01*
X4834432Y2515565D01*
X4833670Y2516479D01*
X4828590Y2517902D01*
X4826203Y2518918D01*
X4823917Y2520238D01*
X4817567Y2522626D01*
X4810861Y2525572D01*
X4807966Y2526538D01*
X4804968Y2528316D01*
X4801514Y2529382D01*
X4794402Y2532532D01*
X4791506Y2533548D01*
X4787849Y2535732D01*
X4782007Y2538171D01*
X4780076Y2539593D01*
X4775250Y2541981D01*
X4770323Y2544826D01*
X4768291Y2545791D01*
X4759553Y2551938D01*
X4752340Y2557424D01*
X4747463Y2560828D01*
X4744770Y2562961D01*
X4743704Y2563266D01*
G37*
G36*
X4202582Y2533192D02*
G01*
X4200550Y2533091D01*
X4199077Y2532786D01*
X4196892Y2531973D01*
X4195470Y2529230D01*
X4194911Y2527655D01*
X4194810Y2526131D01*
X4184294Y2516225D01*
X4182059Y2510790D01*
X4180890Y2508808D01*
X4179671Y2507437D01*
X4178706Y2506929D01*
X4178249Y2507183D01*
X4177131Y2509824D01*
X4174744Y2517495D01*
X4172813Y2522626D01*
X4172762Y2526842D01*
X4170781Y2531364D01*
X4169511Y2530856D01*
X4168597Y2529840D01*
X4167378Y2527503D01*
X4165955Y2516835D01*
X4168749Y2503474D01*
X4170730Y2500579D01*
X4170781Y2495092D01*
X4172458Y2491892D01*
X4174591Y2491486D01*
X4178300Y2498598D01*
X4182211Y2498598D01*
X4185310Y2491790D01*
X4188815Y2489301D01*
X4191203Y2487980D01*
X4194251Y2486914D01*
X4195673Y2488285D01*
X4192625Y2492959D01*
X4192066Y2509824D01*
X4193844Y2515565D01*
X4198213Y2517698D01*
X4205833Y2515768D01*
X4209338Y2513380D01*
X4213961Y2512364D01*
X4222597Y2509469D01*
X4241647Y2509469D01*
X4247692Y2511044D01*
X4247489Y2511704D01*
X4245406Y2513025D01*
X4240377Y2514549D01*
X4232757Y2516174D01*
X4217974Y2518511D01*
X4216196Y2519883D01*
X4213910Y2520950D01*
X4209288Y2522524D01*
X4204208Y2527300D01*
X4204208Y2531668D01*
G37*
G36*
X4892294Y2532380D02*
G01*
X4890617Y2531821D01*
X4890617Y2529687D01*
X4898339Y2522270D01*
X4903165Y2517190D01*
X4914290Y2504338D01*
X4920488Y2496362D01*
X4926177Y2488539D01*
X4927092Y2486710D01*
X4930394Y2481884D01*
X4935423Y2472588D01*
X4936845Y2470505D01*
X4938522Y2466441D01*
X4941925Y2459177D01*
X4946700Y2444800D01*
X4946904Y2443327D01*
X4947615Y2441244D01*
X4949342Y2437434D01*
X4952034Y2413254D01*
X4952136Y2408072D01*
X4951171Y2393543D01*
X4949799Y2380792D01*
X4949088Y2377795D01*
X4946904Y2372766D01*
X4945989Y2364689D01*
X4943297Y2361438D01*
X4944922Y2358034D01*
X4947513Y2362809D01*
X4949342Y2362809D01*
X4950866Y2365908D01*
X4951628Y2368346D01*
X4952492Y2369870D01*
X4954727Y2372766D01*
X4955540Y2376576D01*
X4956657Y2379827D01*
X4958943Y2384907D01*
X4959553Y2389886D01*
X4962906Y2404313D01*
X4962906Y2426614D01*
X4960620Y2435301D01*
X4959553Y2440432D01*
X4958892Y2445918D01*
X4956556Y2450795D01*
X4955641Y2453284D01*
X4955387Y2454808D01*
X4950866Y2465425D01*
X4943043Y2479751D01*
X4940249Y2483510D01*
X4939131Y2485898D01*
X4937048Y2488387D01*
X4934254Y2492400D01*
X4923840Y2504541D01*
X4921148Y2507437D01*
X4911242Y2516987D01*
X4903317Y2523794D01*
X4900472Y2525979D01*
X4897932Y2528722D01*
X4896002Y2528722D01*
X4894935Y2530500D01*
X4893970Y2531465D01*
G37*
G36*
X4435094Y2523642D02*
G01*
X4433824Y2521000D01*
X4433824Y2519730D01*
X4434484Y2518257D01*
X4438040Y2513533D01*
X4442714Y2510739D01*
X4453432Y2505710D01*
X4470146Y2502357D01*
X4484878Y2501138D01*
X4491126Y2501696D01*
X4494936Y2502255D01*
X4499254Y2503220D01*
X4499254Y2504287D01*
X4484217Y2508351D01*
X4478578Y2509367D01*
X4468215Y2510790D01*
X4465167Y2512466D01*
X4462627Y2513330D01*
X4458766Y2514041D01*
X4454804Y2516225D01*
X4441952Y2521204D01*
X4436465Y2522778D01*
G37*
G36*
X4687722Y2523032D02*
G01*
X4686808Y2521508D01*
X4686249Y2520035D01*
X4686554Y2510231D01*
X4687011Y2504795D01*
X4687925Y2499715D01*
X4687925Y2484577D01*
X4686452Y2480970D01*
X4685690Y2464054D01*
X4687976Y2463190D01*
X4689856Y2465628D01*
X4690567Y2469997D01*
X4693920Y2481376D01*
X4693920Y2500223D01*
X4692548Y2504998D01*
X4691634Y2507284D01*
X4690414Y2508859D01*
X4689348Y2519629D01*
X4688586Y2522423D01*
G37*
G36*
X4425899Y2509469D02*
G01*
X4424324Y2507945D01*
X4424324Y2503627D01*
X4428794Y2499614D01*
X4433519Y2496108D01*
X4442104Y2490470D01*
X4446930Y2488895D01*
X4449165Y2487828D01*
X4450486Y2486507D01*
X4453788Y2485745D01*
X4457039Y2484577D01*
X4462780Y2481935D01*
X4467453Y2481935D01*
X4473854Y2478684D01*
X4482846Y2477922D01*
X4488383Y2474874D01*
X4499559Y2474112D01*
X4502658Y2472182D01*
X4505401Y2471013D01*
X4515612Y2470251D01*
X4519980Y2467762D01*
X4522673Y2466594D01*
X4525822Y2465882D01*
X4530293Y2462733D01*
X4533900Y2462733D01*
X4534458Y2461412D01*
X4535068Y2460904D01*
X4536033Y2460802D01*
X4536033Y2462733D01*
X4534712Y2462733D01*
X4534712Y2465374D01*
X4528566Y2471623D01*
X4523435Y2474163D01*
X4516069Y2475128D01*
X4511548Y2475484D01*
X4506417Y2475534D01*
X4501997Y2478125D01*
X4487672Y2479344D01*
X4484674Y2482037D01*
X4476445Y2483154D01*
X4472990Y2484983D01*
X4470247Y2486101D01*
X4467504Y2486914D01*
X4455566Y2491638D01*
X4452518Y2494026D01*
X4451604Y2494280D01*
X4447286Y2497226D01*
X4444034Y2499106D01*
X4431487Y2509469D01*
G37*
G36*
X4706620Y2493568D02*
G01*
X4706620Y2482240D01*
X4709363Y2477160D01*
X4709210Y2450134D01*
X4706569Y2437790D01*
X4704638Y2427427D01*
X4701946Y2421788D01*
X4701946Y2418130D01*
X4699203Y2412796D01*
X4698746Y2411272D01*
X4698746Y2410104D01*
X4699965Y2407716D01*
X4705807Y2413762D01*
X4706620Y2416098D01*
X4707686Y2418029D01*
X4709871Y2420874D01*
X4710988Y2426157D01*
X4712157Y2429916D01*
X4714341Y2434894D01*
X4714341Y2473960D01*
X4712614Y2478582D01*
X4709972Y2480868D01*
X4709617Y2489301D01*
X4708956Y2493162D01*
G37*
G36*
X4262374Y2492756D02*
G01*
X4260037Y2492349D01*
X4258970Y2491943D01*
X4258259Y2491384D01*
X4257852Y2490724D01*
X4249216Y2489708D01*
X4243984Y2487168D01*
X4230522Y2485491D01*
X4227626Y2484526D01*
X4227626Y2480513D01*
X4246473Y2482494D01*
X4251401Y2485644D01*
X4254754Y2486355D01*
X4256786Y2487066D01*
X4259072Y2488387D01*
X4259072Y2490927D01*
X4263085Y2491740D01*
X4262932Y2492603D01*
G37*
G36*
X4547971Y2487066D02*
G01*
X4546244Y2486964D01*
X4542993Y2486152D01*
X4541723Y2485440D01*
X4540910Y2484374D01*
X4535068Y2483154D01*
X4529429Y2482494D01*
X4519625Y2481783D01*
X4517034Y2480462D01*
X4519269Y2479802D01*
X4533442Y2477211D01*
X4545431Y2474163D01*
X4548428Y2473045D01*
X4551781Y2471166D01*
X4557420Y2471064D01*
X4557420Y2473096D01*
X4550105Y2479751D01*
X4550105Y2485034D01*
G37*
G36*
X4185818Y2474925D02*
G01*
X4179976Y2471166D01*
X4174744Y2467305D01*
X4165396Y2457805D01*
X4165498Y2455519D01*
X4166209Y2454452D01*
X4171848Y2458313D01*
X4176166Y2461666D01*
X4180636Y2464765D01*
X4183786Y2466594D01*
X4186682Y2468727D01*
X4191762Y2472944D01*
X4190593Y2473909D01*
X4189018Y2474468D01*
G37*
G36*
X4704283Y2468829D02*
G01*
X4702352Y2463038D01*
X4698847Y2459837D01*
X4696612Y2449068D01*
X4695139Y2447340D01*
X4694224Y2445562D01*
X4693208Y2442260D01*
X4694631Y2439670D01*
X4696561Y2439670D01*
X4698288Y2442260D01*
X4702048Y2446528D01*
X4702911Y2453843D01*
X4704689Y2463444D01*
G37*
G36*
X4214215Y2443378D02*
G01*
X4213199Y2442870D01*
X4208881Y2439568D01*
X4208932Y2437485D01*
X4209389Y2436215D01*
X4210558Y2434691D01*
X4214063Y2433929D01*
X4216450Y2436469D01*
X4216450Y2440330D01*
X4214876Y2443022D01*
G37*
G36*
X4929073Y2436418D02*
G01*
X4927092Y2435250D01*
X4927092Y2415641D01*
X4928971Y2402484D01*
X4926888Y2378151D01*
X4925923Y2370328D01*
X4925009Y2365044D01*
X4923129Y2359558D01*
X4921605Y2354072D01*
X4919726Y2349500D01*
X4917389Y2344724D01*
X4913833Y2338882D01*
X4911293Y2335733D01*
X4910531Y2334412D01*
X4907940Y2331364D01*
X4903470Y2326690D01*
X4901488Y2324912D01*
X4900218Y2324100D01*
X4899304Y2323084D01*
X4898644Y2321458D01*
X4894529Y2319985D01*
X4894986Y2317699D01*
X4897424Y2317242D01*
X4901133Y2319528D01*
X4903063Y2320391D01*
X4904638Y2320544D01*
X4912309Y2327452D01*
X4919370Y2334158D01*
X4919370Y2335936D01*
X4920437Y2336139D01*
X4925974Y2343962D01*
X4926990Y2346045D01*
X4928819Y2350719D01*
X4929936Y2352700D01*
X4930851Y2355088D01*
X4932578Y2361133D01*
X4934864Y2367432D01*
X4936337Y2385263D01*
X4936947Y2395169D01*
X4935067Y2414117D01*
X4934305Y2419197D01*
X4933492Y2422499D01*
X4931664Y2425903D01*
X4930749Y2433421D01*
G37*
G36*
X4407103Y2428036D02*
G01*
X4406392Y2427884D01*
X4405630Y2426258D01*
X4406239Y2425903D01*
X4407052Y2424430D01*
X4409592Y2417927D01*
X4411522Y2414320D01*
X4413504Y2408936D01*
X4415282Y2405278D01*
X4416806Y2398928D01*
X4418482Y2388666D01*
X4416907Y2376932D01*
X4415485Y2369972D01*
X4413707Y2368346D01*
X4413046Y2367330D01*
X4412945Y2366060D01*
X4406798Y2359710D01*
X4403699Y2358999D01*
X4402937Y2357069D01*
X4411065Y2352243D01*
X4414215Y2350668D01*
X4420006Y2350719D01*
X4425035Y2351024D01*
X4432960Y2351887D01*
X4436465Y2353614D01*
X4434586Y2355088D01*
X4428794Y2355748D01*
X4424781Y2356459D01*
X4419549Y2357831D01*
X4420260Y2360168D01*
X4420311Y2361488D01*
X4424883Y2365502D01*
X4425594Y2368042D01*
X4426712Y2370226D01*
X4428998Y2373680D01*
X4430979Y2387193D01*
X4430166Y2394762D01*
X4431080Y2397099D01*
X4433062Y2393543D01*
X4434738Y2393543D01*
X4449775Y2376119D01*
X4454093Y2370836D01*
X4454804Y2370328D01*
X4459122Y2364333D01*
X4471314Y2348382D01*
X4473448Y2345232D01*
X4474718Y2343810D01*
X4475378Y2343454D01*
X4478426Y2338730D01*
X4480001Y2336901D01*
X4481017Y2335377D01*
X4481322Y2334463D01*
X4482134Y2333447D01*
X4483455Y2332278D01*
X4484878Y2330551D01*
X4486554Y2327605D01*
X4489043Y2326335D01*
X4490720Y2322474D01*
X4492548Y2322474D01*
X4492548Y2326944D01*
X4490770Y2328722D01*
X4489907Y2330196D01*
X4489348Y2331720D01*
X4484725Y2339644D01*
X4482846Y2341981D01*
X4481982Y2343454D01*
X4481728Y2344420D01*
X4478121Y2349754D01*
X4477156Y2351735D01*
X4476292Y2353005D01*
X4475632Y2353411D01*
X4472178Y2359152D01*
X4471060Y2360422D01*
X4470044Y2362047D01*
X4469384Y2363571D01*
X4468672Y2364587D01*
X4468063Y2364994D01*
X4463846Y2371344D01*
X4461865Y2373579D01*
X4459833Y2377389D01*
X4454753Y2383942D01*
X4447844Y2392070D01*
X4440326Y2400249D01*
X4429302Y2411171D01*
X4413961Y2424836D01*
X4408424Y2427579D01*
G37*
G36*
X4582515Y2370480D02*
G01*
X4580026Y2367127D01*
X4579366Y2361742D01*
X4583074Y2358948D01*
X4584446Y2359355D01*
X4586173Y2360320D01*
X4587849Y2361946D01*
X4589068Y2363774D01*
X4589576Y2365451D01*
X4589576Y2366568D01*
X4585462Y2370480D01*
G37*
G36*
X4238396Y2368956D02*
G01*
X4237278Y2364435D01*
X4232910Y2363165D01*
X4225544Y2356510D01*
X4218990Y2355037D01*
X4217568Y2353411D01*
X4220819Y2351786D01*
X4228592Y2351633D01*
X4229049Y2354478D01*
X4231182Y2355596D01*
X4235297Y2358796D01*
X4238802Y2359914D01*
X4240530Y2360828D01*
X4241850Y2362149D01*
X4248708Y2362149D01*
X4250537Y2361031D01*
X4247642Y2358948D01*
X4246524Y2357882D01*
X4246372Y2357069D01*
X4249521Y2357069D01*
X4252569Y2354681D01*
X4251807Y2352700D01*
X4248099Y2350973D01*
X4245457Y2346147D01*
X4246473Y2345182D01*
X4248505Y2348077D01*
X4251350Y2348077D01*
X4256735Y2351227D01*
X4262882Y2351430D01*
X4265574Y2351887D01*
X4267657Y2352497D01*
X4268774Y2353208D01*
X4269130Y2353818D01*
X4267708Y2356358D01*
X4266539Y2357882D01*
X4264761Y2359507D01*
X4260342Y2360625D01*
X4257243Y2361742D01*
X4253026Y2363673D01*
X4252976Y2364689D01*
X4252671Y2365552D01*
X4251858Y2366772D01*
G37*
G36*
X4363821Y2353868D02*
G01*
X4362196Y2353665D01*
X4360164Y2352903D01*
X4356557Y2350973D01*
X4354728Y2349703D01*
X4353052Y2348128D01*
X4348683Y2342743D01*
X4348734Y2337511D01*
X4349902Y2335733D01*
X4352086Y2336546D01*
X4353915Y2340508D01*
X4354982Y2342235D01*
X4355795Y2342997D01*
X4357878Y2346655D01*
X4358538Y2347315D01*
X4359198Y2347264D01*
X4360773Y2345690D01*
X4362246Y2337816D01*
X4363008Y2337968D01*
X4365701Y2342794D01*
X4368139Y2345639D01*
X4367276Y2350312D01*
G37*
G36*
X4385614Y2351125D02*
G01*
X4382668Y2350516D01*
X4383379Y2345639D01*
X4388916Y2334717D01*
X4389729Y2319578D01*
X4390948Y2316429D01*
X4395520Y2325370D01*
X4395470Y2330450D01*
X4395114Y2333853D01*
X4394149Y2338019D01*
X4395571Y2339441D01*
X4396384Y2336546D01*
X4399483Y2335784D01*
X4400956Y2332126D01*
X4402988Y2329840D01*
X4404004Y2329535D01*
X4404868Y2329535D01*
X4406392Y2332228D01*
X4404715Y2339746D01*
X4399737Y2346147D01*
X4397959Y2347722D01*
X4395622Y2348839D01*
X4389374Y2350770D01*
X4387342Y2351125D01*
G37*
G36*
X4230979Y2350008D02*
G01*
X4220667Y2348077D01*
X4215434Y2344775D01*
X4210050Y2343759D01*
X4208221Y2342896D01*
X4208221Y2340965D01*
X4211015Y2339441D01*
X4212082Y2338578D01*
X4212234Y2337816D01*
X4205122Y2337816D01*
X4204004Y2336698D01*
X4203598Y2335631D01*
X4203547Y2333955D01*
X4208221Y2331313D01*
X4208221Y2325624D01*
X4209897Y2325014D01*
X4217924Y2332126D01*
X4223258Y2331770D01*
X4224731Y2329027D01*
X4226052Y2327554D01*
X4228236Y2329891D01*
X4230827Y2347569D01*
G37*
G36*
X4426813Y2348077D02*
G01*
X4420362Y2347772D01*
X4418939Y2347315D01*
X4418939Y2345436D01*
X4423867Y2343505D01*
X4428490Y2339594D01*
X4431233Y2336800D01*
X4435094Y2332228D01*
X4438091Y2326894D01*
X4440072Y2323998D01*
X4441342Y2315464D01*
X4442155Y2311400D01*
X4443171Y2308707D01*
X4445711Y2315667D01*
X4445711Y2321560D01*
X4447489Y2323896D01*
X4455820Y2315921D01*
X4457700Y2312466D01*
X4459122Y2310638D01*
X4461154Y2309164D01*
X4462119Y2303678D01*
X4463694Y2303170D01*
X4464964Y2307590D01*
X4462881Y2314803D01*
X4463694Y2315565D01*
X4470044Y2313482D01*
X4477562Y2313482D01*
X4480153Y2315311D01*
X4478629Y2316835D01*
X4470501Y2317750D01*
X4468215Y2319680D01*
X4462983Y2322830D01*
X4460798Y2324557D01*
X4459122Y2326284D01*
X4458411Y2327503D01*
X4458411Y2328265D01*
X4463948Y2330348D01*
X4461611Y2332024D01*
X4454347Y2332888D01*
X4451400Y2333498D01*
X4449114Y2334209D01*
X4445355Y2336139D01*
X4442053Y2337206D01*
X4439208Y2339746D01*
X4431385Y2344521D01*
G37*
G36*
X4338675Y2347976D02*
G01*
X4335475Y2347366D01*
X4328718Y2341575D01*
X4327550Y2338273D01*
X4326585Y2336596D01*
X4325112Y2335326D01*
X4324502Y2329840D01*
X4325975Y2326233D01*
X4328922Y2326640D01*
X4330192Y2330805D01*
X4331309Y2330805D01*
X4331309Y2329078D01*
X4331716Y2326640D01*
X4333748Y2319934D01*
X4334560Y2318359D01*
X4335119Y2318004D01*
X4336796Y2328773D01*
X4337456Y2334666D01*
X4339793Y2339086D01*
X4340961Y2342134D01*
X4341876Y2346198D01*
G37*
G36*
X4262678Y2333244D02*
G01*
X4261713Y2333142D01*
X4260596Y2332380D01*
X4256633Y2328570D01*
X4254550Y2323795D01*
X4253636Y2322271D01*
X4252518Y2318816D01*
X4254347Y2314702D01*
X4255922Y2315616D01*
X4257090Y2316835D01*
X4258868Y2319324D01*
X4261053Y2303678D01*
X4262729Y2302662D01*
X4263593Y2303729D01*
X4264202Y2305659D01*
X4264964Y2309977D01*
X4263694Y2319578D01*
X4264609Y2332177D01*
G37*
G36*
X4421632Y2332177D02*
G01*
X4420819Y2330145D01*
X4423714Y2325928D01*
X4424832Y2323795D01*
X4425137Y2322525D01*
X4426204Y2320493D01*
X4428998Y2316530D01*
X4428998Y2310231D01*
X4431080Y2305507D01*
X4433011Y2309825D01*
X4432909Y2318969D01*
X4427931Y2327910D01*
X4425188Y2329078D01*
X4423968Y2331720D01*
G37*
G36*
X4306214Y2332126D02*
G01*
X4305046Y2330958D01*
X4304385Y2329535D01*
X4300270Y2323693D01*
X4300423Y2312517D01*
X4301744Y2309571D01*
X4302302Y2309114D01*
X4302963Y2309317D01*
X4304538Y2311552D01*
X4305350Y2320848D01*
X4308652Y2328062D01*
X4308246Y2331720D01*
G37*
G36*
X4246016Y2331262D02*
G01*
X4245457Y2331008D01*
X4245000Y2329383D01*
X4245000Y2328214D01*
X4241749Y2326995D01*
X4240174Y2324252D01*
X4240682Y2313686D01*
X4242562Y2311501D01*
X4244136Y2315159D01*
X4245152Y2325370D01*
X4246372Y2326843D01*
X4246981Y2328316D01*
X4247337Y2331008D01*
G37*
G36*
X4366971Y2326995D02*
G01*
X4365345Y2325116D01*
X4364177Y2317191D01*
X4361789Y2313838D01*
X4360875Y2312212D01*
X4360621Y2311298D01*
X4359706Y2309926D01*
X4357370Y2307183D01*
X4354728Y2300325D01*
X4353407Y2297785D01*
X4353407Y2291892D01*
X4355388Y2290267D01*
X4355592Y2291334D01*
X4359148Y2296210D01*
X4360773Y2298852D01*
X4362297Y2302459D01*
X4366717Y2310892D01*
X4368292Y2313381D01*
X4369104Y2314295D01*
X4369104Y2324049D01*
G37*
G36*
X4277817Y2318054D02*
G01*
X4276445Y2314702D01*
X4276852Y2306116D01*
X4277512Y2303576D01*
X4279442Y2303576D01*
X4281170Y2309977D01*
X4280814Y2317648D01*
G37*
G36*
X4210456Y2312009D02*
G01*
X4209643Y2311603D01*
X4207154Y2308047D01*
X4203750Y2306472D01*
X4201820Y2305100D01*
X4200906Y2302713D01*
X4198416Y2293620D01*
X4197350Y2287727D01*
X4202633Y2288590D01*
X4204157Y2281580D01*
X4204208Y2279650D01*
X4207459Y2275890D01*
X4208678Y2274011D01*
X4209135Y2272792D01*
X4209846Y2272334D01*
X4210964Y2272182D01*
X4214215Y2272639D01*
X4216146Y2268626D01*
X4217720Y2266289D01*
X4218990Y2265629D01*
X4222750Y2264816D01*
X4226712Y2264918D01*
X4228439Y2261362D01*
X4230065Y2258974D01*
X4232757Y2255926D01*
X4238244Y2253843D01*
X4238955Y2251760D01*
X4241342Y2247696D01*
X4245559Y2242108D01*
X4247235Y2239365D01*
X4251604Y2230577D01*
X4255058Y2217267D01*
X4257090Y2179929D01*
X4258259Y2175205D01*
X4259326Y2166975D01*
X4260951Y2149856D01*
X4262424Y2147062D01*
X4262983Y2145334D01*
X4263390Y2142337D01*
X4265066Y2135936D01*
X4269384Y2124252D01*
X4270603Y2121966D01*
X4273550Y2114804D01*
X4283405Y2096262D01*
X4289450Y2086152D01*
X4290618Y2084781D01*
X4293260Y2080463D01*
X4294987Y2078380D01*
X4297273Y2076297D01*
X4303522Y2071573D01*
X4311497Y2068830D01*
X4313732Y2067509D01*
X4326280Y2065934D01*
X4335830Y2066036D01*
X4341215Y2066340D01*
X4346346Y2067052D01*
X4353255Y2071370D01*
X4359046Y2075434D01*
X4367784Y2084832D01*
X4376064Y2095195D01*
X4379772Y2100275D01*
X4384649Y2105609D01*
X4389475Y2110333D01*
X4394708Y2113940D01*
X4403496Y2120544D01*
X4404614Y2120849D01*
X4409541Y2124405D01*
X4410557Y2124811D01*
X4424984Y2136952D01*
X4429404Y2141270D01*
X4432503Y2144674D01*
X4434484Y2147925D01*
X4435906Y2149297D01*
X4436262Y2150008D01*
X4436211Y2150618D01*
X4434890Y2151583D01*
X4432757Y2149754D01*
X4416450Y2139797D01*
X4414926Y2138375D01*
X4412843Y2137460D01*
X4407103Y2134209D01*
X4403953Y2133142D01*
X4401312Y2132990D01*
X4399229Y2133752D01*
X4397959Y2134666D01*
X4403547Y2143607D01*
X4404969Y2144217D01*
X4405477Y2144776D01*
X4405731Y2145588D01*
X4406900Y2147265D01*
X4412792Y2154021D01*
X4415637Y2157882D01*
X4419295Y2162048D01*
X4436313Y2180082D01*
X4445101Y2190496D01*
X4446219Y2192477D01*
X4449064Y2195220D01*
X4449064Y2198827D01*
X4446574Y2198827D01*
X4444644Y2196896D01*
X4440478Y2194204D01*
X4430522Y2187143D01*
X4427677Y2185924D01*
X4427626Y2184450D01*
X4424984Y2187498D01*
X4425746Y2195982D01*
X4431436Y2207310D01*
X4433316Y2209596D01*
X4434230Y2211578D01*
X4442764Y2221941D01*
X4445050Y2224227D01*
X4446320Y2226970D01*
X4449978Y2229154D01*
X4452366Y2230170D01*
X4455160Y2230932D01*
X4458360Y2228951D01*
X4460697Y2226818D01*
X4463948Y2223058D01*
X4463186Y2215032D01*
X4468520Y2217572D01*
X4471263Y2223160D01*
X4475124Y2220976D01*
X4477105Y2223516D01*
X4477969Y2230120D01*
X4477258Y2233117D01*
X4476597Y2234844D01*
X4475581Y2236520D01*
X4467961Y2235809D01*
X4466437Y2238451D01*
X4470247Y2241042D01*
X4472330Y2246122D01*
X4471009Y2247392D01*
X4466590Y2246122D01*
X4463542Y2245664D01*
X4459681Y2245614D01*
X4460443Y2246477D01*
X4461865Y2247036D01*
X4465066Y2247646D01*
X4465828Y2249932D01*
X4464913Y2251710D01*
X4463897Y2252218D01*
X4454956Y2253386D01*
X4456887Y2255418D01*
X4458208Y2257806D01*
X4461002Y2260447D01*
X4461865Y2265019D01*
X4463796Y2266848D01*
X4463796Y2270760D01*
X4461764Y2269134D01*
X4461764Y2266238D01*
X4456836Y2265375D01*
X4454956Y2264664D01*
X4455972Y2271268D01*
X4456379Y2272842D01*
X4455160Y2274722D01*
X4451705Y2271115D01*
X4449165Y2271979D01*
X4447387Y2272131D01*
X4445558Y2272030D01*
X4442663Y2271217D01*
X4437380Y2275687D01*
X4434484Y2277618D01*
X4433671Y2277160D01*
X4431538Y2274265D01*
X4430928Y2275128D01*
X4430471Y2276500D01*
X4430522Y2280615D01*
X4431741Y2284272D01*
X4430979Y2286101D01*
X4429658Y2285187D01*
X4424984Y2283561D01*
X4423664Y2282596D01*
X4423664Y2279497D01*
X4422698Y2280107D01*
X4422140Y2282037D01*
X4419447Y2288286D01*
X4418939Y2290114D01*
X4418939Y2291435D01*
X4416653Y2294737D01*
X4415739Y2296464D01*
X4415536Y2297785D01*
X4414570Y2295347D01*
X4411421Y2282748D01*
X4410354Y2282850D01*
X4409186Y2283561D01*
X4407103Y2285339D01*
X4406087Y2283968D01*
X4403445Y2277567D01*
X4402175Y2278684D01*
X4401515Y2279853D01*
X4400905Y2281986D01*
X4398568Y2282850D01*
X4396994Y2281072D01*
X4392625Y2277872D01*
X4390847Y2275840D01*
X4388205Y2276500D01*
X4389272Y2280310D01*
X4389069Y2281072D01*
X4388154Y2282748D01*
X4386783Y2282698D01*
X4373930Y2275230D01*
X4370628Y2272995D01*
X4369816Y2274316D01*
X4369511Y2275433D01*
X4369460Y2277211D01*
X4370933Y2278989D01*
X4376216Y2288082D01*
X4375658Y2289302D01*
X4374794Y2289810D01*
X4373219Y2289048D01*
X4367174Y2284730D01*
X4361332Y2279446D01*
X4360011Y2275738D01*
X4359503Y2273554D01*
X4359402Y2271217D01*
X4358030Y2271268D01*
X4357471Y2271572D01*
X4357268Y2272030D01*
X4356404Y2272690D01*
X4354068Y2273757D01*
X4351274Y2279446D01*
X4349496Y2278837D01*
X4348734Y2275128D01*
X4348683Y2272639D01*
X4346803Y2271115D01*
X4344974Y2273757D01*
X4343603Y2275281D01*
X4341520Y2276957D01*
X4339996Y2282799D01*
X4337405Y2283764D01*
X4335983Y2284679D01*
X4334662Y2286203D01*
X4334713Y2284374D01*
X4335068Y2283358D01*
X4335983Y2282393D01*
X4336846Y2273249D01*
X4333087Y2271369D01*
X4331462Y2270201D01*
X4330852Y2268982D01*
X4329277Y2270048D01*
X4322470Y2272487D01*
X4316425Y2278024D01*
X4310176Y2285136D01*
X4308297Y2287778D01*
X4307128Y2289860D01*
X4305554Y2289352D01*
X4304690Y2284374D01*
X4306468Y2280564D01*
X4307128Y2278583D01*
X4307230Y2277008D01*
X4306366Y2277110D01*
X4305858Y2277821D01*
X4305300Y2279650D01*
X4300880Y2279243D01*
X4300423Y2275687D01*
X4305452Y2267813D01*
X4314190Y2259685D01*
X4322419Y2259685D01*
X4325366Y2257450D01*
X4332071Y2250846D01*
X4334764Y2245461D01*
X4336034Y2242108D01*
X4337354Y2237333D01*
X4337964Y2236368D01*
X4338574Y2236012D01*
X4344568Y2240229D01*
X4345838Y2242362D01*
X4350054Y2246630D01*
X4353610Y2249627D01*
X4355846Y2250795D01*
X4359757Y2252116D01*
X4378604Y2251964D01*
X4381703Y2254199D01*
X4382820Y2254504D01*
X4383938Y2254199D01*
X4386986Y2252014D01*
X4389577Y2252675D01*
X4393031Y2254504D01*
X4395825Y2255672D01*
X4399280Y2258314D01*
X4400499Y2257501D01*
X4401210Y2256231D01*
X4402023Y2253589D01*
X4405630Y2254148D01*
X4411878Y2255824D01*
X4415383Y2257094D01*
X4416806Y2257145D01*
X4423003Y2251252D01*
X4426254Y2253030D01*
X4428490Y2253945D01*
X4431334Y2254554D01*
X4432401Y2253792D01*
X4435703Y2250287D01*
X4431030Y2245614D01*
X4429252Y2243429D01*
X4427728Y2240584D01*
X4425137Y2236724D01*
X4423562Y2232456D01*
X4420971Y2227021D01*
X4419904Y2223617D01*
X4417568Y2218537D01*
X4415129Y2211781D01*
X4413554Y2208276D01*
X4411421Y2201214D01*
X4410252Y2198522D01*
X4409084Y2196592D01*
X4407408Y2188260D01*
X4406138Y2186584D01*
X4405071Y2183688D01*
X4403394Y2177389D01*
X4401464Y2175256D01*
X4399534Y2167229D01*
X4397756Y2164232D01*
X4396638Y2161489D01*
X4395825Y2158695D01*
X4394708Y2155952D01*
X4392980Y2152497D01*
X4392726Y2151329D01*
X4386884Y2138527D01*
X4385919Y2137257D01*
X4382871Y2130704D01*
X4381042Y2127707D01*
X4379214Y2123948D01*
X4377131Y2120798D01*
X4370984Y2109927D01*
X4369409Y2108250D01*
X4363161Y2098598D01*
X4357725Y2091283D01*
X4346854Y2080158D01*
X4335068Y2077313D01*
X4328718Y2078939D01*
X4321606Y2080361D01*
X4310786Y2087067D01*
X4309567Y2088286D01*
X4304690Y2094890D01*
X4301236Y2101443D01*
X4300474Y2103526D01*
X4289298Y2124252D01*
X4289044Y2125319D01*
X4286605Y2129332D01*
X4285234Y2132076D01*
X4283303Y2136749D01*
X4281728Y2139188D01*
X4280763Y2145385D01*
X4279646Y2149703D01*
X4277715Y2155545D01*
X4276699Y2163826D01*
X4275886Y2168448D01*
X4274616Y2173376D01*
X4273854Y2177999D01*
X4272788Y2189886D01*
X4272432Y2196592D01*
X4269790Y2204618D01*
X4268520Y2226056D01*
X4269587Y2235200D01*
X4272584Y2241702D01*
X4273804Y2246528D01*
X4275582Y2248560D01*
X4276852Y2250846D01*
X4278528Y2255062D01*
X4280357Y2256688D01*
X4281017Y2257602D01*
X4281525Y2258872D01*
X4283811Y2262124D01*
X4291787Y2265984D01*
X4295952Y2268423D01*
X4296613Y2269236D01*
X4295902Y2270150D01*
X4290771Y2272334D01*
X4284116Y2276246D01*
X4274820Y2283307D01*
X4273092Y2281936D01*
X4273194Y2279954D01*
X4273753Y2278583D01*
X4275074Y2276805D01*
X4274362Y2275687D01*
X4270552Y2275687D01*
X4266336Y2278786D01*
X4265574Y2279040D01*
X4264558Y2279853D01*
X4262780Y2282037D01*
X4261053Y2280666D01*
X4261053Y2275840D01*
X4263085Y2275128D01*
X4263085Y2272487D01*
X4260189Y2272487D01*
X4254500Y2278430D01*
X4252264Y2277618D01*
X4252366Y2267356D01*
X4250385Y2267356D01*
X4247438Y2271217D01*
X4245152Y2271217D01*
X4242866Y2267864D01*
X4242003Y2268931D01*
X4241292Y2271115D01*
X4240174Y2276043D01*
X4240377Y2294483D01*
X4238752Y2301341D01*
X4238244Y2301341D01*
X4236415Y2297938D01*
X4234738Y2293061D01*
X4233976Y2293213D01*
X4227118Y2298446D01*
X4224274Y2303576D01*
X4224070Y2307386D01*
X4223562Y2309114D01*
X4222851Y2310434D01*
X4222191Y2310942D01*
X4221632Y2310942D01*
X4219448Y2303830D01*
X4217720Y2303170D01*
X4212539Y2306269D01*
X4211066Y2311247D01*
G37*
G36*
X4475327Y2305151D02*
G01*
X4473803Y2303424D01*
X4475734Y2301900D01*
X4476496Y2297887D01*
X4479391Y2289708D01*
X4480610Y2284171D01*
X4478477Y2280259D01*
X4478477Y2276348D01*
X4479442Y2276398D01*
X4479798Y2276754D01*
X4480052Y2277465D01*
X4481474Y2279192D01*
X4485182Y2282901D01*
X4485182Y2288438D01*
X4487367Y2290521D01*
X4493361Y2284933D01*
X4495342Y2282748D01*
X4498035Y2284171D01*
X4497425Y2289708D01*
X4494225Y2293213D01*
X4490872Y2297379D01*
X4487418Y2299360D01*
X4486046Y2300376D01*
X4485538Y2301036D01*
X4483557Y2302408D01*
X4478274Y2305151D01*
G37*
G36*
X4499660Y2300630D02*
G01*
X4498848Y2300528D01*
X4497832Y2299462D01*
X4501032Y2298700D01*
X4502912Y2294636D01*
X4507280Y2293823D01*
X4509922Y2294432D01*
X4513580Y2296058D01*
X4511954Y2297988D01*
X4502404Y2298852D01*
X4500575Y2300376D01*
G37*
G36*
X4286808Y2293162D02*
G01*
X4285742Y2291791D01*
X4285132Y2290368D01*
X4284421Y2287778D01*
X4285335Y2283307D01*
X4288485Y2281885D01*
X4288485Y2279751D01*
X4291076Y2277516D01*
X4292295Y2279853D01*
X4292346Y2280615D01*
X4288485Y2284730D01*
X4288434Y2289505D01*
G37*
G36*
X4515154Y2278888D02*
G01*
X4512411Y2277719D01*
X4511954Y2277262D01*
X4512310Y2276602D01*
X4513224Y2275890D01*
X4515459Y2275078D01*
X4516628Y2275078D01*
X4520184Y2271268D01*
X4524451Y2269896D01*
X4526686Y2270709D01*
X4526584Y2272334D01*
X4526178Y2273452D01*
X4525010Y2275027D01*
G37*
G36*
X4491329Y2269185D02*
G01*
X4489907Y2265375D01*
X4492244Y2261971D01*
X4493971Y2260142D01*
X4496358Y2258517D01*
X4499914Y2252014D01*
X4499914Y2241194D01*
X4498746Y2240483D01*
X4497527Y2243175D01*
X4496816Y2244191D01*
X4496206Y2244547D01*
X4493361Y2248408D01*
X4483455Y2259888D01*
X4481017Y2257552D01*
X4481576Y2250287D01*
X4485690Y2245817D01*
X4485944Y2245156D01*
X4488637Y2242312D01*
X4486148Y2238654D01*
X4485081Y2236317D01*
X4484878Y2222042D01*
X4487519Y2219248D01*
X4491177Y2223414D01*
X4492193Y2222449D01*
X4492498Y2206853D01*
X4495546Y2195626D01*
X4497273Y2187956D01*
X4498695Y2180285D01*
X4501032Y2180285D01*
X4504537Y2183384D01*
X4504994Y2186736D01*
X4505401Y2196439D01*
X4505909Y2219655D01*
X4509770Y2232710D01*
X4510989Y2235962D01*
X4515510Y2244293D01*
X4517542Y2247087D01*
X4517542Y2254554D01*
X4515713Y2257806D01*
X4514342Y2257348D01*
X4511598Y2248611D01*
X4510532Y2250033D01*
X4507738Y2255672D01*
X4505147Y2259279D01*
X4502454Y2262276D01*
X4498848Y2264664D01*
X4496104Y2267305D01*
G37*
G36*
X4653991Y2244344D02*
G01*
X4650486Y2241702D01*
X4647692Y2226564D01*
X4651756Y2225954D01*
X4654397Y2228291D01*
X4655261Y2234031D01*
X4658461Y2238146D01*
X4658461Y2242769D01*
X4656886Y2244344D01*
G37*
G36*
X4374997Y2216200D02*
G01*
X4373473Y2214422D01*
X4372610Y2208123D01*
X4370070Y2205583D01*
X4369409Y2204466D01*
X4367225Y2196592D01*
X4365498Y2192680D01*
X4362805Y2181555D01*
X4362145Y2180031D01*
X4361535Y2179269D01*
X4359605Y2168347D01*
X4358538Y2163572D01*
X4357827Y2161540D01*
X4356862Y2157679D01*
X4355338Y2149195D01*
X4353509Y2146503D01*
X4351934Y2138375D01*
X4348683Y2132584D01*
X4348632Y2129942D01*
X4348276Y2128316D01*
X4347260Y2126386D01*
X4351680Y2126792D01*
X4353153Y2130399D01*
X4354525Y2132584D01*
X4356709Y2134971D01*
X4357624Y2139594D01*
X4360621Y2144064D01*
X4361840Y2149652D01*
X4362907Y2153158D01*
X4364685Y2157222D01*
X4366056Y2166772D01*
X4368698Y2173376D01*
X4369663Y2183790D01*
X4372711Y2192477D01*
X4373575Y2200452D01*
X4376978Y2209749D01*
X4376420Y2213457D01*
X4375912Y2215184D01*
G37*
G36*
X4459071Y2176475D02*
G01*
X4455718Y2172970D01*
X4454042Y2170836D01*
X4453178Y2168855D01*
X4455617Y2166721D01*
X4459732Y2167636D01*
X4461154Y2168347D01*
X4462272Y2169464D01*
X4464354Y2172970D01*
X4463542Y2173986D01*
X4462119Y2174951D01*
G37*
G36*
X3257042Y2595118D02*
G01*
X3227070Y2586990D01*
X3227070Y2581148D01*
X3242818Y2579624D01*
X3242564Y2459228D01*
X3227070Y2457196D01*
X3227070Y2451100D01*
X3274822Y2451100D01*
X3274822Y2457196D01*
X3259328Y2459228D01*
X3258820Y2491994D01*
X3258820Y2565908D01*
X3259836Y2593594D01*
G37*
G36*
X3596132Y2592324D02*
G01*
X3591153Y2591460D01*
X3587140Y2589022D01*
X3584397Y2585262D01*
X3583432Y2580386D01*
X3584397Y2575610D01*
X3587140Y2571699D01*
X3591153Y2569159D01*
X3596132Y2568194D01*
X3600958Y2569159D01*
X3604920Y2571699D01*
X3607612Y2575610D01*
X3608578Y2580386D01*
X3607612Y2585262D01*
X3604920Y2589022D01*
X3600958Y2591460D01*
G37*
G36*
X3393948Y2582418D02*
G01*
X3366494Y2501900D01*
X3374644Y2501900D01*
X3394456Y2562352D01*
X3414776Y2501900D01*
X3366494Y2501900D01*
X3352292Y2460244D01*
X3336544Y2457958D01*
X3336544Y2451100D01*
X3379978Y2451100D01*
X3379978Y2457958D01*
X3360928Y2460244D01*
X3372104Y2494280D01*
X3417315Y2494280D01*
X3428746Y2460244D01*
X3409442Y2457958D01*
X3409442Y2451100D01*
X3462528Y2451100D01*
X3462528Y2457958D01*
X3447287Y2459736D01*
X3405124Y2582418D01*
G37*
G36*
X2878836Y2581402D02*
G01*
X2878836Y2574544D01*
X2897124Y2572766D01*
X2897378Y2492654D01*
X2915158Y2492552D01*
X2915412Y2573782D01*
X2932430Y2573782D01*
X2937814Y2573528D01*
X2942894Y2572867D01*
X2947619Y2571699D01*
X2952089Y2570073D01*
X2956204Y2567990D01*
X2960014Y2565450D01*
X2963468Y2562453D01*
X2966618Y2559050D01*
X2969361Y2555189D01*
X2971800Y2550871D01*
X2973882Y2546146D01*
X2975559Y2541016D01*
X2976930Y2535428D01*
X2977896Y2529382D01*
X2978454Y2522982D01*
X2978658Y2516124D01*
X2978454Y2509520D01*
X2977896Y2503322D01*
X2976930Y2497480D01*
X2975559Y2491994D01*
X2973832Y2486863D01*
X2971698Y2482189D01*
X2969260Y2477922D01*
X2966415Y2474010D01*
X2963214Y2470556D01*
X2959608Y2467559D01*
X2955696Y2464968D01*
X2951429Y2462834D01*
X2946806Y2461158D01*
X2941878Y2459939D01*
X2936544Y2459228D01*
X2930906Y2458974D01*
X2915412Y2458974D01*
X2915158Y2492552D01*
X2897377Y2492552D01*
X2897124Y2459736D01*
X2878836Y2457958D01*
X2878836Y2451100D01*
X2932176Y2451100D01*
X2937865Y2451252D01*
X2943402Y2451811D01*
X2948787Y2452674D01*
X2953969Y2453843D01*
X2958896Y2455418D01*
X2963621Y2457297D01*
X2968142Y2459482D01*
X2972358Y2461971D01*
X2976372Y2464816D01*
X2980029Y2468016D01*
X2983484Y2471470D01*
X2986582Y2475230D01*
X2989376Y2479344D01*
X2991866Y2483713D01*
X2993948Y2488387D01*
X2995726Y2493365D01*
X2997149Y2498648D01*
X2998165Y2504186D01*
X2998774Y2510028D01*
X2998978Y2516124D01*
X2998673Y2523744D01*
X2997809Y2530957D01*
X2996387Y2537714D01*
X2994406Y2544013D01*
X2991916Y2549855D01*
X2988970Y2555189D01*
X2985465Y2560066D01*
X2981553Y2564485D01*
X2977184Y2568397D01*
X2972358Y2571800D01*
X2967177Y2574696D01*
X2961589Y2577084D01*
X2955645Y2578963D01*
X2949295Y2580335D01*
X2942691Y2581148D01*
X2935732Y2581402D01*
G37*
G36*
X3171698Y2546096D02*
G01*
X3164433Y2545689D01*
X3157829Y2544419D01*
X3151835Y2542387D01*
X3146602Y2539644D01*
X3142183Y2536190D01*
X3138576Y2532075D01*
X3135833Y2527300D01*
X3134106Y2521966D01*
X3134918Y2518765D01*
X3136595Y2516479D01*
X3139236Y2515057D01*
X3142742Y2514600D01*
X3146196Y2515158D01*
X3148939Y2516886D01*
X3151073Y2519730D01*
X3152648Y2523744D01*
X3156204Y2536952D01*
X3161995Y2538069D01*
X3167380Y2538476D01*
X3171952Y2538222D01*
X3175863Y2537409D01*
X3179064Y2535936D01*
X3181604Y2533650D01*
X3183534Y2530449D01*
X3184906Y2526284D01*
X3185668Y2520950D01*
X3185922Y2508250D01*
X3174187Y2505252D01*
X3163570Y2501900D01*
X3154883Y2498496D01*
X3147822Y2495092D01*
X3142183Y2491689D01*
X3137916Y2488234D01*
X3134817Y2484577D01*
X3132785Y2480767D01*
X3131667Y2476754D01*
X3131542Y2475230D01*
X3147822Y2475230D01*
X3148584Y2480513D01*
X3151530Y2485948D01*
X3157677Y2491282D01*
X3168142Y2496312D01*
X3175965Y2499258D01*
X3185922Y2502408D01*
X3185922Y2471420D01*
X3178911Y2465984D01*
X3173425Y2462479D01*
X3168650Y2460548D01*
X3163824Y2459990D01*
X3157474Y2460853D01*
X3152394Y2463596D01*
X3149041Y2468372D01*
X3147822Y2475230D01*
X3131542Y2475230D01*
X3131312Y2472436D01*
X3131820Y2466898D01*
X3133344Y2462072D01*
X3135782Y2457958D01*
X3138932Y2454605D01*
X3142792Y2451963D01*
X3147161Y2450084D01*
X3152038Y2448915D01*
X3157220Y2448560D01*
X3165195Y2449576D01*
X3172206Y2452522D01*
X3179013Y2457450D01*
X3186430Y2464308D01*
X3188411Y2457958D01*
X3192018Y2453182D01*
X3197148Y2450134D01*
X3203702Y2449068D01*
X3208578Y2449576D01*
X3212947Y2451252D01*
X3216859Y2454300D01*
X3220466Y2458974D01*
X3216910Y2462530D01*
X3215081Y2460650D01*
X3213252Y2459177D01*
X3211322Y2458262D01*
X3209036Y2457958D01*
X3206089Y2458567D01*
X3203854Y2460650D01*
X3202432Y2464511D01*
X3201924Y2470404D01*
X3201924Y2512568D01*
X3201466Y2520950D01*
X3200095Y2528011D01*
X3197809Y2533802D01*
X3194507Y2538374D01*
X3190290Y2541828D01*
X3185109Y2544267D01*
X3178911Y2545638D01*
G37*
G36*
X3669284Y2546096D02*
G01*
X3661562Y2545486D01*
X3654755Y2543860D01*
X3648913Y2541270D01*
X3644087Y2537815D01*
X3640277Y2533751D01*
X3637483Y2529179D01*
X3635806Y2524150D01*
X3635248Y2518918D01*
X3635705Y2514142D01*
X3636924Y2509875D01*
X3639007Y2506065D01*
X3641750Y2502662D01*
X3645204Y2499664D01*
X3649268Y2496972D01*
X3653942Y2494635D01*
X3659124Y2492502D01*
X3668268Y2489454D01*
X3676446Y2485847D01*
X3682034Y2481986D01*
X3685286Y2477414D01*
X3686301Y2471674D01*
X3684930Y2465374D01*
X3680815Y2460498D01*
X3673856Y2457297D01*
X3663950Y2456180D01*
X3659428Y2456383D01*
X3655263Y2456942D01*
X3651504Y2457907D01*
X3647948Y2459228D01*
X3643629Y2477262D01*
X3634486Y2477262D01*
X3634740Y2455926D01*
X3641801Y2452725D01*
X3648811Y2450439D01*
X3656126Y2449017D01*
X3664204Y2448560D01*
X3672890Y2449169D01*
X3680460Y2450795D01*
X3686911Y2453436D01*
X3692245Y2456891D01*
X3696411Y2461006D01*
X3699408Y2465679D01*
X3701186Y2470810D01*
X3701796Y2476246D01*
X3701440Y2480767D01*
X3700322Y2484932D01*
X3698443Y2488844D01*
X3695700Y2492451D01*
X3692042Y2495804D01*
X3687419Y2498902D01*
X3681831Y2501747D01*
X3668268Y2506980D01*
X3659987Y2510485D01*
X3654399Y2514092D01*
X3651250Y2518460D01*
X3650234Y2524252D01*
X3651453Y2529992D01*
X3655110Y2534513D01*
X3661054Y2537409D01*
X3669284Y2538476D01*
X3672840Y2538222D01*
X3676345Y2537561D01*
X3679799Y2536444D01*
X3683254Y2534920D01*
X3687064Y2518410D01*
X3695700Y2518410D01*
X3696462Y2537968D01*
X3690061Y2541473D01*
X3683558Y2544013D01*
X3676700Y2545588D01*
G37*
G36*
X3601974Y2545842D02*
G01*
X3572256Y2535428D01*
X3572256Y2529586D01*
X3588004Y2528062D01*
X3588512Y2502408D01*
X3588258Y2459228D01*
X3573272Y2457196D01*
X3573272Y2451100D01*
X3617976Y2451100D01*
X3617976Y2457196D01*
X3604768Y2459228D01*
X3604260Y2491994D01*
X3604260Y2518156D01*
X3604768Y2544064D01*
G37*
G36*
X3041904Y2544826D02*
G01*
X3013202Y2542032D01*
X3013202Y2536190D01*
X3027172Y2533396D01*
X3026664Y2483866D01*
X3027019Y2474925D01*
X3028289Y2467406D01*
X3030423Y2461310D01*
X3033369Y2456484D01*
X3037027Y2452878D01*
X3041396Y2450439D01*
X3046425Y2449017D01*
X3052064Y2448560D01*
X3056636Y2448864D01*
X3061208Y2449728D01*
X3065729Y2451201D01*
X3070250Y2453284D01*
X3074619Y2455875D01*
X3078835Y2459075D01*
X3082950Y2462784D01*
X3086862Y2467102D01*
X3088640Y2449576D01*
X3115564Y2451100D01*
X3115564Y2456942D01*
X3102356Y2459228D01*
X3102356Y2515362D01*
X3102864Y2542794D01*
X3101086Y2544826D01*
X3072892Y2541778D01*
X3072892Y2535936D01*
X3086862Y2533142D01*
X3086354Y2473960D01*
X3079750Y2468422D01*
X3072942Y2464460D01*
X3065983Y2462072D01*
X3058922Y2461260D01*
X3051911Y2462479D01*
X3046933Y2466492D01*
X3043936Y2473706D01*
X3042920Y2484628D01*
X3042920Y2515362D01*
X3043682Y2542794D01*
G37*
G36*
X3467608Y2543302D02*
G01*
X3467608Y2536952D01*
X3480308Y2534920D01*
X3507232Y2495296D01*
X3478529Y2459228D01*
X3466084Y2457196D01*
X3466084Y2451100D01*
X3504184Y2451100D01*
X3504184Y2457196D01*
X3488944Y2459482D01*
X3511550Y2489454D01*
X3532378Y2459228D01*
X3517646Y2457196D01*
X3517646Y2451100D01*
X3564382Y2451100D01*
X3564382Y2457196D01*
X3550920Y2459228D01*
X3522472Y2500122D01*
X3550920Y2534920D01*
X3562096Y2536952D01*
X3562096Y2543302D01*
X3526282Y2543302D01*
X3526282Y2536952D01*
X3539744Y2534666D01*
X3518408Y2505964D01*
X3498087Y2534920D01*
X3510787Y2536952D01*
X3510787Y2543302D01*
G37*
G36*
X3287522Y2505710D02*
G01*
X3287522Y2494280D01*
X3332734Y2494280D01*
X3332734Y2505710D01*
G37*
G36*
X2984246Y2391918D02*
G01*
X2954020Y2383790D01*
X2954020Y2377948D01*
X2970022Y2376424D01*
X2969971Y2280666D01*
X2969514Y2256028D01*
X2954020Y2253996D01*
X2954020Y2247900D01*
X3002026Y2247900D01*
X3002026Y2253996D01*
X2986278Y2256028D01*
X2986074Y2272436D01*
X2986024Y2362708D01*
X2986786Y2390394D01*
G37*
G36*
X3651504Y2391918D02*
G01*
X3621278Y2383790D01*
X3621278Y2377948D01*
X3637279Y2376424D01*
X3637229Y2280767D01*
X3636772Y2256028D01*
X3621532Y2253996D01*
X3621532Y2247900D01*
X3668776Y2247900D01*
X3668776Y2253996D01*
X3653536Y2256028D01*
X3653282Y2284222D01*
X3666236Y2297430D01*
X3696462Y2247900D01*
X3722878Y2247900D01*
X3722878Y2253996D01*
X3710178Y2255774D01*
X3677412Y2308606D01*
X3699764Y2331212D01*
X3717798Y2333752D01*
X3717798Y2340102D01*
X3673094Y2340102D01*
X3673094Y2333752D01*
X3688334Y2330704D01*
X3653282Y2294382D01*
X3653282Y2362708D01*
X3654044Y2390394D01*
G37*
G36*
X2797302Y2381250D02*
G01*
X2791256Y2380996D01*
X2785516Y2380183D01*
X2780131Y2378811D01*
X2775102Y2376982D01*
X2770479Y2374646D01*
X2766364Y2371801D01*
X2762707Y2368499D01*
X2759659Y2364790D01*
X2757170Y2360574D01*
X2755392Y2355951D01*
X2754274Y2350871D01*
X2753868Y2345436D01*
X2754477Y2338476D01*
X2756255Y2332278D01*
X2759100Y2326690D01*
X2763012Y2321712D01*
X2767838Y2317292D01*
X2773578Y2313330D01*
X2780131Y2309774D01*
X2800858Y2300986D01*
X2805988Y2298395D01*
X2810256Y2295753D01*
X2813659Y2292908D01*
X2816250Y2289759D01*
X2818028Y2286254D01*
X2819044Y2282342D01*
X2819400Y2277872D01*
X2818841Y2272284D01*
X2817164Y2267407D01*
X2814472Y2263241D01*
X2810814Y2259787D01*
X2806293Y2257044D01*
X2800959Y2255062D01*
X2794914Y2253894D01*
X2788158Y2253488D01*
X2782316Y2253792D01*
X2777134Y2254656D01*
X2772410Y2256180D01*
X2767838Y2258314D01*
X2762758Y2282698D01*
X2752852Y2282698D01*
X2751582Y2255266D01*
X2755138Y2253234D01*
X2759151Y2251303D01*
X2763570Y2249576D01*
X2768295Y2248103D01*
X2773324Y2246833D01*
X2778556Y2245918D01*
X2783941Y2245309D01*
X2789428Y2245106D01*
X2795981Y2245410D01*
X2802178Y2246223D01*
X2807970Y2247595D01*
X2813304Y2249525D01*
X2818180Y2251913D01*
X2822498Y2254859D01*
X2826308Y2258263D01*
X2829458Y2262124D01*
X2831998Y2266442D01*
X2833878Y2271166D01*
X2834995Y2276348D01*
X2835402Y2281936D01*
X2834944Y2288540D01*
X2833471Y2294483D01*
X2830982Y2299868D01*
X2827324Y2304796D01*
X2822498Y2309317D01*
X2816352Y2313584D01*
X2808833Y2317648D01*
X2799842Y2321560D01*
X2786938Y2326741D01*
X2782519Y2329078D01*
X2778709Y2331720D01*
X2775610Y2334666D01*
X2773121Y2337917D01*
X2771343Y2341524D01*
X2770225Y2345537D01*
X2769870Y2350008D01*
X2770378Y2355291D01*
X2771952Y2359863D01*
X2774391Y2363724D01*
X2777642Y2366924D01*
X2781655Y2369413D01*
X2786278Y2371191D01*
X2791409Y2372258D01*
X2797048Y2372614D01*
X2801416Y2372410D01*
X2805379Y2371750D01*
X2809138Y2370582D01*
X2812796Y2368804D01*
X2817876Y2345436D01*
X2828036Y2345436D01*
X2829306Y2370836D01*
X2822498Y2375154D01*
X2815031Y2378405D01*
X2806649Y2380538D01*
G37*
G36*
X3237484Y2378202D02*
G01*
X3235960Y2343658D01*
X3245612Y2343658D01*
X3250946Y2369820D01*
X3281679Y2369820D01*
X3281883Y2343861D01*
X3281883Y2275840D01*
X3281679Y2256790D01*
X3261614Y2254758D01*
X3261614Y2247900D01*
X3320287Y2247900D01*
X3320287Y2254758D01*
X3299968Y2256790D01*
X3299714Y2288895D01*
X3299968Y2369820D01*
X3330701Y2369820D01*
X3336290Y2343658D01*
X3345687Y2343658D01*
X3344418Y2378202D01*
G37*
G36*
X2896616Y2342896D02*
G01*
X2890926Y2342540D01*
X2885389Y2341473D01*
X2880004Y2339746D01*
X2874873Y2337308D01*
X2870098Y2334158D01*
X2865678Y2330399D01*
X2861767Y2325928D01*
X2858414Y2320798D01*
X2855671Y2315057D01*
X2853639Y2308606D01*
X2852369Y2301544D01*
X2851912Y2293874D01*
X2869692Y2293874D01*
X2870149Y2303373D01*
X2871520Y2311704D01*
X2873705Y2318816D01*
X2876753Y2324658D01*
X2880614Y2329281D01*
X2885236Y2332583D01*
X2890570Y2334615D01*
X2896616Y2335276D01*
X2902661Y2334615D01*
X2907995Y2332583D01*
X2912618Y2329281D01*
X2916478Y2324658D01*
X2919526Y2318816D01*
X2921711Y2311704D01*
X2923082Y2303373D01*
X2923540Y2293874D01*
X2923082Y2284374D01*
X2921711Y2276144D01*
X2919526Y2269083D01*
X2916478Y2263343D01*
X2912618Y2258822D01*
X2907995Y2255570D01*
X2902661Y2253640D01*
X2896616Y2252980D01*
X2890570Y2253640D01*
X2885236Y2255570D01*
X2880614Y2258822D01*
X2876753Y2263343D01*
X2873705Y2269083D01*
X2871520Y2276144D01*
X2870149Y2284374D01*
X2869692Y2293874D01*
X2851912Y2293874D01*
X2852369Y2286203D01*
X2853639Y2279192D01*
X2855671Y2272792D01*
X2858414Y2267051D01*
X2861767Y2262022D01*
X2865678Y2257602D01*
X2870098Y2253894D01*
X2874873Y2250846D01*
X2880004Y2248458D01*
X2885389Y2246731D01*
X2890926Y2245715D01*
X2896616Y2245360D01*
X2902305Y2245715D01*
X2907842Y2246731D01*
X2913227Y2248408D01*
X2918358Y2250744D01*
X2923133Y2253792D01*
X2927553Y2257501D01*
X2931464Y2261920D01*
X2934817Y2266950D01*
X2937560Y2272690D01*
X2939592Y2279091D01*
X2940862Y2286152D01*
X2941320Y2293874D01*
X2940862Y2301595D01*
X2939592Y2308707D01*
X2937510Y2315159D01*
X2934766Y2320899D01*
X2931363Y2326030D01*
X2927451Y2330500D01*
X2923032Y2334260D01*
X2918256Y2337358D01*
X2913126Y2339797D01*
X2907792Y2341524D01*
X2902254Y2342540D01*
G37*
G36*
X3054858Y2342896D02*
G01*
X3047593Y2342489D01*
X3040989Y2341219D01*
X3034995Y2339187D01*
X3029762Y2336444D01*
X3025343Y2332990D01*
X3021736Y2328875D01*
X3018993Y2324100D01*
X3017266Y2318766D01*
X3018078Y2315565D01*
X3019755Y2313279D01*
X3022396Y2311857D01*
X3025902Y2311400D01*
X3029356Y2311958D01*
X3032099Y2313686D01*
X3034233Y2316530D01*
X3035808Y2320544D01*
X3039364Y2333752D01*
X3045155Y2334869D01*
X3050540Y2335276D01*
X3055061Y2335022D01*
X3058922Y2334209D01*
X3062122Y2332736D01*
X3064662Y2330450D01*
X3066643Y2327249D01*
X3068015Y2323084D01*
X3068828Y2317750D01*
X3069082Y2305050D01*
X3057245Y2302052D01*
X3051708Y2300427D01*
X3046730Y2298700D01*
X3038043Y2295296D01*
X3030982Y2291892D01*
X3025343Y2288489D01*
X3021076Y2285034D01*
X3017977Y2281377D01*
X3015945Y2277567D01*
X3014827Y2273554D01*
X3014702Y2272030D01*
X3030982Y2272030D01*
X3031744Y2277313D01*
X3034639Y2282748D01*
X3040735Y2288082D01*
X3051048Y2293112D01*
X3059125Y2296058D01*
X3069082Y2299208D01*
X3069082Y2268220D01*
X3061970Y2262784D01*
X3056534Y2259279D01*
X3051810Y2257348D01*
X3046984Y2256790D01*
X3040634Y2257653D01*
X3035554Y2260396D01*
X3032201Y2265172D01*
X3030982Y2272030D01*
X3014702Y2272030D01*
X3014472Y2269236D01*
X3014980Y2263698D01*
X3016504Y2258872D01*
X3018942Y2254758D01*
X3022092Y2251405D01*
X3025952Y2248763D01*
X3030321Y2246884D01*
X3035198Y2245715D01*
X3040380Y2245360D01*
X3048355Y2246376D01*
X3055366Y2249322D01*
X3062173Y2254250D01*
X3069590Y2261108D01*
X3071571Y2254758D01*
X3075178Y2249982D01*
X3080308Y2246934D01*
X3086862Y2245868D01*
X3091738Y2246376D01*
X3096107Y2248052D01*
X3100019Y2251100D01*
X3103626Y2255774D01*
X3100070Y2259330D01*
X3098241Y2257450D01*
X3096412Y2255977D01*
X3094482Y2255062D01*
X3092196Y2254758D01*
X3089249Y2255367D01*
X3087014Y2257450D01*
X3085592Y2261311D01*
X3085084Y2267204D01*
X3085084Y2309368D01*
X3084626Y2317750D01*
X3083255Y2324811D01*
X3080969Y2330602D01*
X3077667Y2335174D01*
X3073450Y2338628D01*
X3068269Y2341067D01*
X3062071Y2342438D01*
G37*
G36*
X3171190Y2342896D02*
G01*
X3167075Y2342438D01*
X3163011Y2341168D01*
X3159048Y2339086D01*
X3155238Y2336190D01*
X3151632Y2332583D01*
X3148330Y2328214D01*
X3145332Y2323185D01*
X3142742Y2317496D01*
X3140710Y2340864D01*
X3138170Y2342642D01*
X3110738Y2331974D01*
X3110738Y2326132D01*
X3126232Y2324608D01*
X3126740Y2298954D01*
X3126486Y2256028D01*
X3112008Y2253996D01*
X3112008Y2247900D01*
X3159506Y2247900D01*
X3159506Y2253996D01*
X3143250Y2256282D01*
X3142996Y2304034D01*
X3145993Y2312314D01*
X3149752Y2319274D01*
X3154324Y2325116D01*
X3159760Y2329942D01*
X3162046Y2327656D01*
X3164890Y2325420D01*
X3167837Y2323744D01*
X3170936Y2322677D01*
X3174238Y2322322D01*
X3179267Y2323236D01*
X3182670Y2325878D01*
X3184550Y2330043D01*
X3185160Y2335530D01*
X3182874Y2338628D01*
X3179622Y2340914D01*
X3175609Y2342388D01*
G37*
G36*
X3410712Y2342896D02*
G01*
X3406597Y2342438D01*
X3402533Y2341168D01*
X3398570Y2339086D01*
X3394760Y2336190D01*
X3391154Y2332583D01*
X3387851Y2328214D01*
X3384854Y2323185D01*
X3382264Y2317496D01*
X3380232Y2340864D01*
X3377692Y2342642D01*
X3350260Y2331974D01*
X3350260Y2326132D01*
X3365754Y2324608D01*
X3366262Y2298954D01*
X3365754Y2256028D01*
X3351529Y2253996D01*
X3351529Y2247900D01*
X3399028Y2247900D01*
X3399028Y2253996D01*
X3382772Y2256282D01*
X3382518Y2304034D01*
X3385515Y2312314D01*
X3389274Y2319274D01*
X3393846Y2325116D01*
X3399282Y2329942D01*
X3401568Y2327656D01*
X3404412Y2325420D01*
X3407359Y2323744D01*
X3410458Y2322677D01*
X3413760Y2322322D01*
X3418789Y2323236D01*
X3422192Y2325878D01*
X3424072Y2330043D01*
X3424682Y2335530D01*
X3422396Y2338628D01*
X3419144Y2340914D01*
X3415131Y2342388D01*
G37*
G36*
X3473196Y2342896D02*
G01*
X3465880Y2342489D01*
X3459175Y2341219D01*
X3453180Y2339187D01*
X3447897Y2336444D01*
X3443427Y2332990D01*
X3439820Y2328875D01*
X3437077Y2324100D01*
X3435350Y2318766D01*
X3436162Y2315565D01*
X3437839Y2313279D01*
X3440480Y2311857D01*
X3443986Y2311400D01*
X3447440Y2311958D01*
X3450285Y2313686D01*
X3452418Y2316530D01*
X3453892Y2320544D01*
X3457701Y2333752D01*
X3463442Y2334869D01*
X3468624Y2335276D01*
X3473246Y2335022D01*
X3477158Y2334209D01*
X3480358Y2332736D01*
X3483000Y2330450D01*
X3484930Y2327249D01*
X3486353Y2323084D01*
X3487165Y2317750D01*
X3487420Y2305050D01*
X3475532Y2302052D01*
X3469894Y2300427D01*
X3464814Y2298700D01*
X3456127Y2295296D01*
X3449116Y2291892D01*
X3443528Y2288489D01*
X3439261Y2285034D01*
X3436213Y2281377D01*
X3434232Y2277567D01*
X3433165Y2273554D01*
X3433040Y2272030D01*
X3449320Y2272030D01*
X3450082Y2277313D01*
X3452977Y2282748D01*
X3459073Y2288082D01*
X3469386Y2293112D01*
X3477361Y2296058D01*
X3487420Y2299208D01*
X3487420Y2268220D01*
X3480308Y2262784D01*
X3474720Y2259279D01*
X3469894Y2257348D01*
X3465068Y2256790D01*
X3458768Y2257653D01*
X3453790Y2260396D01*
X3450488Y2265172D01*
X3449320Y2272030D01*
X3433040Y2272030D01*
X3432810Y2269236D01*
X3433318Y2263698D01*
X3434842Y2258872D01*
X3437178Y2254758D01*
X3440277Y2251405D01*
X3444087Y2248763D01*
X3448456Y2246884D01*
X3453282Y2245715D01*
X3458464Y2245360D01*
X3466439Y2246376D01*
X3473450Y2249322D01*
X3480257Y2254250D01*
X3487674Y2261108D01*
X3489706Y2254758D01*
X3493363Y2249982D01*
X3498596Y2246934D01*
X3505200Y2245868D01*
X3509975Y2246376D01*
X3514293Y2248052D01*
X3518255Y2251100D01*
X3521710Y2255774D01*
X3518154Y2259330D01*
X3516426Y2257450D01*
X3514648Y2255977D01*
X3512667Y2255062D01*
X3510534Y2254758D01*
X3507486Y2255367D01*
X3505250Y2257450D01*
X3503879Y2261311D01*
X3503422Y2267204D01*
X3503422Y2309368D01*
X3502964Y2317750D01*
X3501542Y2324811D01*
X3499205Y2330602D01*
X3495954Y2335174D01*
X3491687Y2338628D01*
X3486505Y2341067D01*
X3480308Y2342438D01*
G37*
G36*
X3576828Y2342896D02*
G01*
X3570986Y2342540D01*
X3565245Y2341422D01*
X3559708Y2339543D01*
X3554476Y2337003D01*
X3549599Y2333802D01*
X3545128Y2329891D01*
X3541115Y2325370D01*
X3537712Y2320239D01*
X3534918Y2314498D01*
X3532835Y2308199D01*
X3531565Y2301290D01*
X3531108Y2293874D01*
X3531463Y2286660D01*
X3532530Y2279954D01*
X3534308Y2273757D01*
X3536696Y2268067D01*
X3539693Y2262987D01*
X3543249Y2258466D01*
X3547414Y2254554D01*
X3552037Y2251354D01*
X3557168Y2248763D01*
X3562705Y2246884D01*
X3568700Y2245766D01*
X3575050Y2245360D01*
X3581603Y2245766D01*
X3587597Y2246934D01*
X3593033Y2248916D01*
X3597859Y2251557D01*
X3602075Y2254961D01*
X3605682Y2259076D01*
X3608730Y2263851D01*
X3611118Y2269236D01*
X3607308Y2271014D01*
X3602075Y2264867D01*
X3595624Y2260244D01*
X3588258Y2257298D01*
X3580129Y2256282D01*
X3575558Y2256586D01*
X3571189Y2257450D01*
X3567176Y2258872D01*
X3563416Y2260904D01*
X3560013Y2263444D01*
X3556965Y2266543D01*
X3554272Y2270150D01*
X3552037Y2274265D01*
X3550259Y2278888D01*
X3548938Y2284018D01*
X3548126Y2289606D01*
X3547872Y2295652D01*
X3548430Y2304592D01*
X3550056Y2312466D01*
X3552647Y2319223D01*
X3556203Y2324912D01*
X3560572Y2329383D01*
X3565651Y2332634D01*
X3571443Y2334615D01*
X3577844Y2335276D01*
X3582771Y2334869D01*
X3588258Y2333498D01*
X3593236Y2316226D01*
X3595268Y2313381D01*
X3598214Y2311552D01*
X3602228Y2310892D01*
X3605479Y2311349D01*
X3607968Y2312619D01*
X3609746Y2314854D01*
X3610864Y2318004D01*
X3609390Y2323134D01*
X3606901Y2327910D01*
X3603548Y2332126D01*
X3599383Y2335784D01*
X3594506Y2338781D01*
X3589070Y2341016D01*
X3583127Y2342388D01*
G37*
G36*
X3772662Y2342896D02*
G01*
X3766769Y2342489D01*
X3761079Y2341321D01*
X3755593Y2339390D01*
X3750462Y2336698D01*
X3745687Y2333396D01*
X3741369Y2329383D01*
X3737508Y2324760D01*
X3734257Y2319528D01*
X3731564Y2313736D01*
X3729634Y2307437D01*
X3728667Y2302256D01*
X3745229Y2302256D01*
X3746449Y2310333D01*
X3748582Y2317191D01*
X3751427Y2322880D01*
X3754831Y2327452D01*
X3758742Y2330907D01*
X3762959Y2333345D01*
X3767429Y2334818D01*
X3771900Y2335276D01*
X3776370Y2334818D01*
X3780485Y2333447D01*
X3784142Y2331313D01*
X3787241Y2328519D01*
X3789781Y2325166D01*
X3791661Y2321356D01*
X3792829Y2317140D01*
X3793236Y2312670D01*
X3792829Y2308301D01*
X3791254Y2304948D01*
X3788105Y2302764D01*
X3782822Y2302002D01*
X3728667Y2302256D01*
X3728364Y2300630D01*
X3727958Y2293366D01*
X3728313Y2286000D01*
X3729380Y2279243D01*
X3731158Y2272995D01*
X3733546Y2267356D01*
X3736543Y2262327D01*
X3740099Y2257958D01*
X3744264Y2254148D01*
X3748887Y2251049D01*
X3754018Y2248560D01*
X3759555Y2246782D01*
X3765550Y2245715D01*
X3771900Y2245360D01*
X3778148Y2245766D01*
X3783939Y2246934D01*
X3789273Y2248814D01*
X3794150Y2251405D01*
X3798519Y2254605D01*
X3802379Y2258415D01*
X3805834Y2262835D01*
X3808729Y2267712D01*
X3804920Y2270252D01*
X3799433Y2264511D01*
X3793286Y2260142D01*
X3786124Y2257298D01*
X3777487Y2256282D01*
X3770629Y2256891D01*
X3764432Y2258720D01*
X3758996Y2261768D01*
X3754323Y2265984D01*
X3750513Y2271471D01*
X3747719Y2278126D01*
X3745890Y2286050D01*
X3745229Y2295144D01*
X3807714Y2294890D01*
X3808780Y2299563D01*
X3809237Y2305812D01*
X3808933Y2311349D01*
X3807968Y2316480D01*
X3806494Y2321255D01*
X3804462Y2325573D01*
X3801872Y2329484D01*
X3798874Y2332939D01*
X3795369Y2335885D01*
X3791508Y2338374D01*
X3787292Y2340305D01*
X3782669Y2341727D01*
X3777792Y2342591D01*
G37*
G36*
X3885184Y2342896D02*
G01*
X3881069Y2342438D01*
X3877005Y2341168D01*
X3873042Y2339086D01*
X3869232Y2336190D01*
X3865626Y2332583D01*
X3862324Y2328214D01*
X3859326Y2323185D01*
X3856736Y2317496D01*
X3854704Y2340864D01*
X3852164Y2342642D01*
X3824732Y2331974D01*
X3824732Y2326132D01*
X3840226Y2324608D01*
X3840734Y2298954D01*
X3840479Y2256028D01*
X3826256Y2253996D01*
X3826256Y2247900D01*
X3873500Y2247900D01*
X3873500Y2253996D01*
X3857244Y2256282D01*
X3856990Y2304034D01*
X3860088Y2312314D01*
X3863848Y2319274D01*
X3868369Y2325116D01*
X3873754Y2329942D01*
X3876040Y2327656D01*
X3878884Y2325420D01*
X3881831Y2323744D01*
X3884929Y2322677D01*
X3888232Y2322322D01*
X3893261Y2323236D01*
X3896664Y2325878D01*
X3898544Y2330043D01*
X3899154Y2335530D01*
X3896868Y2338628D01*
X3893616Y2340914D01*
X3889603Y2342388D01*
G37*
D10*
G01*
X5785500Y3848100D03*
G01*
X6025498Y3848100D03*
G01*
X5239400Y3860800D03*
G01*
X5479398Y3860800D03*
D11*
G01*
X5975499Y3429000D03*
G01*
X5835500Y3429000D03*
G01*
X5429399Y3403600D03*
G01*
X5289400Y3403600D03*
D12*
G01*
X5444390Y3035300D03*
G01*
X5274391Y3035300D03*
D13*
G01*
X2095500Y2959100D03*
G01*
X2349500Y2959100D03*
G01*
X2603500Y2959100D03*
G01*
X2082800Y3441700D03*
G01*
X2336800Y3441700D03*
G01*
X2590800Y3441700D03*
D14*
G01*
X1447787Y3619487D03*
G01*
X1447787Y3365487D03*
G01*
X1447787Y4368787D03*
G01*
X1447787Y4114787D03*
G01*
X1447787Y5130787D03*
G01*
X1447787Y4876787D03*
G01*
X1460487Y5854687D03*
G01*
X1460487Y5600687D03*
D15*
G01*
X5980824Y3035300D03*
G01*
X5830175Y3035300D03*
D17*
G01*
X5073395Y4970602D03*
G01*
X5073395Y4470603D03*
G01*
X5073395Y5170601D03*
G01*
X6153404Y4310583D03*
G01*
X6153404Y5290591D03*
D18*
G01*
X2590800Y4018889D03*
G01*
X2590800Y5048910D03*
G01*
X2108200Y4031589D03*
G01*
X2108200Y5061610D03*
G01*
X2590800Y5530189D03*
G01*
X2590800Y6560210D03*
G01*
X2120900Y5542889D03*
G01*
X2120900Y6572910D03*
D19*
G01*
X4648200Y3416300D03*
D20*
G01*
X3124200Y3670300D03*
G01*
X3124200Y4178300D03*
G01*
X3124200Y4686300D03*
G01*
X3124200Y5194300D03*
G01*
X3124200Y5702300D03*
G01*
X3124200Y6210300D03*
G01*
X3124200Y6718300D03*
G01*
X4648200Y6972300D03*
G01*
X4648200Y6464300D03*
G01*
X4648200Y5956300D03*
G01*
X4648200Y5448300D03*
G01*
X4648200Y4940300D03*
G01*
X4648200Y4432300D03*
G01*
X4648200Y3924300D03*
G01*
X4648200Y3670300D03*
G01*
X4648200Y4178300D03*
G01*
X4648200Y4686300D03*
G01*
X4648200Y5194300D03*
G01*
X4648200Y5702300D03*
G01*
X4648200Y6210300D03*
G01*
X4648200Y6718300D03*
G01*
X3124200Y6972300D03*
G01*
X3124200Y6464300D03*
G01*
X3124200Y5956300D03*
G01*
X3124200Y5448300D03*
G01*
X3124200Y4940300D03*
G01*
X3124200Y4432300D03*
G01*
X3124200Y3924300D03*
D19*
G01*
X3124200Y3416300D03*
D21*
G01*
X5973894Y6121400D03*
D22*
G01*
X5379899Y5891402D03*
G01*
X5379899Y6121400D03*
G01*
X5379899Y6351397D03*
M02*
