G04 Layer: TopSilkscreenLayer*
G04 EasyEDA v6.5.51, 2026-05-29 21:27:25*
G04 98fb49a8f8dc4f8aa5796baa73e9f96a,10*
G04 Gerber Generator version 0.2*
G04 Scale: 100 percent, Rotated: No, Reflected: No *
G04 Dimensions in millimeters *
G04 leading zeros omitted , absolute positions ,4 integer and 5 decimal *
%FSLAX45Y45*%
%MOMM*%

%ADD10C,0.1524*%
%ADD11C,0.1500*%
%ADD12C,0.0800*%
%ADD13C,0.2540*%
%ADD14C,0.1520*%
%ADD15C,0.0154*%

%LPD*%
D10*
X5979540Y4067047D02*
G01*
X5974206Y4077462D01*
X5963793Y4087876D01*
X5953633Y4092955D01*
X5932804Y4092955D01*
X5922390Y4087876D01*
X5911977Y4077462D01*
X5906643Y4067047D01*
X5901563Y4051300D01*
X5901563Y4025392D01*
X5906643Y4009897D01*
X5911977Y3999484D01*
X5922390Y3989070D01*
X5932804Y3983989D01*
X5953633Y3983989D01*
X5963793Y3989070D01*
X5974206Y3999484D01*
X5979540Y4009897D01*
X6013831Y4072128D02*
G01*
X6024245Y4077462D01*
X6039738Y4092955D01*
X6039738Y3983989D01*
X5433440Y4079747D02*
G01*
X5428106Y4090162D01*
X5417693Y4100576D01*
X5407533Y4105655D01*
X5386704Y4105655D01*
X5376290Y4100576D01*
X5365877Y4090162D01*
X5360543Y4079747D01*
X5355463Y4064000D01*
X5355463Y4038092D01*
X5360543Y4022597D01*
X5365877Y4012184D01*
X5376290Y4001770D01*
X5386704Y3996689D01*
X5407533Y3996689D01*
X5417693Y4001770D01*
X5428106Y4012184D01*
X5433440Y4022597D01*
X5472811Y4079747D02*
G01*
X5472811Y4084828D01*
X5478145Y4095242D01*
X5483225Y4100576D01*
X5493638Y4105655D01*
X5514466Y4105655D01*
X5524881Y4100576D01*
X5529961Y4095242D01*
X5535295Y4084828D01*
X5535295Y4074413D01*
X5529961Y4064000D01*
X5519547Y4048505D01*
X5467731Y3996689D01*
X5540375Y3996689D01*
X5983477Y3620007D02*
G01*
X5978143Y3630421D01*
X5967729Y3640836D01*
X5957570Y3645915D01*
X5936741Y3645915D01*
X5926327Y3640836D01*
X5915913Y3630421D01*
X5910579Y3620007D01*
X5905500Y3604260D01*
X5905500Y3578352D01*
X5910579Y3562857D01*
X5915913Y3552444D01*
X5926327Y3542029D01*
X5936741Y3536950D01*
X5957570Y3536950D01*
X5967729Y3542029D01*
X5978143Y3552444D01*
X5983477Y3562857D01*
X6028181Y3645915D02*
G01*
X6085331Y3645915D01*
X6054090Y3604260D01*
X6069584Y3604260D01*
X6079997Y3599179D01*
X6085331Y3594100D01*
X6090411Y3578352D01*
X6090411Y3567937D01*
X6085331Y3552444D01*
X6074918Y3542029D01*
X6059170Y3536950D01*
X6043675Y3536950D01*
X6028181Y3542029D01*
X6022847Y3547110D01*
X6017768Y3557523D01*
X5437377Y3594607D02*
G01*
X5432043Y3605021D01*
X5421629Y3615436D01*
X5411470Y3620515D01*
X5390641Y3620515D01*
X5380227Y3615436D01*
X5369813Y3605021D01*
X5364479Y3594607D01*
X5359400Y3578860D01*
X5359400Y3552952D01*
X5364479Y3537457D01*
X5369813Y3527044D01*
X5380227Y3516629D01*
X5390641Y3511550D01*
X5411470Y3511550D01*
X5421629Y3516629D01*
X5432043Y3527044D01*
X5437377Y3537457D01*
X5523484Y3620515D02*
G01*
X5471668Y3547871D01*
X5549645Y3547871D01*
X5523484Y3620515D02*
G01*
X5523484Y3511550D01*
X5349425Y3269818D02*
G01*
X5349425Y3160852D01*
X5349425Y3160852D02*
G01*
X5411655Y3160852D01*
X5445945Y3269818D02*
G01*
X5445945Y3160852D01*
X5445945Y3269818D02*
G01*
X5513509Y3269818D01*
X5445945Y3218002D02*
G01*
X5487601Y3218002D01*
X5445945Y3160852D02*
G01*
X5513509Y3160852D01*
X5547799Y3269818D02*
G01*
X5547799Y3160852D01*
X5547799Y3269818D02*
G01*
X5584375Y3269818D01*
X5599869Y3264738D01*
X5610283Y3254324D01*
X5615363Y3243910D01*
X5620697Y3228162D01*
X5620697Y3202254D01*
X5615363Y3186760D01*
X5610283Y3176346D01*
X5599869Y3165932D01*
X5584375Y3160852D01*
X5547799Y3160852D01*
X5654987Y3248990D02*
G01*
X5665401Y3254324D01*
X5680895Y3269818D01*
X5680895Y3160852D01*
X2349500Y3226815D02*
G01*
X2349500Y3117850D01*
X2349500Y3226815D02*
G01*
X2391156Y3117850D01*
X2432558Y3226815D02*
G01*
X2391156Y3117850D01*
X2432558Y3226815D02*
G01*
X2432558Y3117850D01*
X2466847Y3205987D02*
G01*
X2477261Y3211321D01*
X2493009Y3226815D01*
X2493009Y3117850D01*
X2336800Y3709415D02*
G01*
X2336800Y3600450D01*
X2336800Y3709415D02*
G01*
X2378456Y3600450D01*
X2419858Y3709415D02*
G01*
X2378456Y3600450D01*
X2419858Y3709415D02*
G01*
X2419858Y3600450D01*
X2459481Y3683507D02*
G01*
X2459481Y3688587D01*
X2464561Y3699002D01*
X2469895Y3704336D01*
X2480309Y3709415D01*
X2500884Y3709415D01*
X2511297Y3704336D01*
X2516631Y3699002D01*
X2521711Y3688587D01*
X2521711Y3678173D01*
X2516631Y3667760D01*
X2506218Y3652265D01*
X2454147Y3600450D01*
X2527045Y3600450D01*
X1078534Y3492423D02*
G01*
X1187500Y3492423D01*
X1078534Y3492423D02*
G01*
X1078534Y3539159D01*
X1083614Y3554653D01*
X1088948Y3559987D01*
X1099362Y3565067D01*
X1109776Y3565067D01*
X1120190Y3559987D01*
X1125270Y3554653D01*
X1130350Y3539159D01*
X1130350Y3492423D01*
X1130350Y3528745D02*
G01*
X1187500Y3565067D01*
X1099362Y3599357D02*
G01*
X1094028Y3609771D01*
X1078534Y3625519D01*
X1187500Y3625519D01*
X1078534Y4241723D02*
G01*
X1187500Y4241723D01*
X1078534Y4241723D02*
G01*
X1078534Y4288459D01*
X1083614Y4303953D01*
X1088948Y4309287D01*
X1099362Y4314367D01*
X1109776Y4314367D01*
X1120190Y4309287D01*
X1125270Y4303953D01*
X1130350Y4288459D01*
X1130350Y4241723D01*
X1130350Y4278045D02*
G01*
X1187500Y4314367D01*
X1104442Y4353991D02*
G01*
X1099362Y4353991D01*
X1088948Y4359071D01*
X1083614Y4364405D01*
X1078534Y4374819D01*
X1078534Y4395393D01*
X1083614Y4405807D01*
X1088948Y4411141D01*
X1099362Y4416221D01*
X1109776Y4416221D01*
X1120190Y4411141D01*
X1135684Y4400727D01*
X1187500Y4348657D01*
X1187500Y4421555D01*
X1078534Y5003723D02*
G01*
X1187500Y5003723D01*
X1078534Y5003723D02*
G01*
X1078534Y5050459D01*
X1083614Y5065953D01*
X1088948Y5071287D01*
X1099362Y5076367D01*
X1109776Y5076367D01*
X1120190Y5071287D01*
X1125270Y5065953D01*
X1130350Y5050459D01*
X1130350Y5003723D01*
X1130350Y5040045D02*
G01*
X1187500Y5076367D01*
X1078534Y5121071D02*
G01*
X1078534Y5178221D01*
X1120190Y5147233D01*
X1120190Y5162727D01*
X1125270Y5173141D01*
X1130350Y5178221D01*
X1146098Y5183555D01*
X1156512Y5183555D01*
X1172006Y5178221D01*
X1182420Y5167807D01*
X1187500Y5152313D01*
X1187500Y5136819D01*
X1182420Y5121071D01*
X1177340Y5115991D01*
X1166926Y5110657D01*
X1091234Y5727623D02*
G01*
X1200200Y5727623D01*
X1091234Y5727623D02*
G01*
X1091234Y5774359D01*
X1096314Y5789853D01*
X1101648Y5795187D01*
X1112062Y5800267D01*
X1122476Y5800267D01*
X1132890Y5795187D01*
X1137970Y5789853D01*
X1143050Y5774359D01*
X1143050Y5727623D01*
X1143050Y5763945D02*
G01*
X1200200Y5800267D01*
X1091234Y5886627D02*
G01*
X1163878Y5834557D01*
X1163878Y5912535D01*
X1091234Y5886627D02*
G01*
X1200200Y5886627D01*
X5905500Y3252215D02*
G01*
X5905500Y3143250D01*
X5905500Y3252215D02*
G01*
X5952236Y3252215D01*
X5967729Y3247136D01*
X5973063Y3241802D01*
X5978143Y3231387D01*
X5978143Y3220973D01*
X5973063Y3210560D01*
X5967729Y3205479D01*
X5952236Y3200400D01*
X5905500Y3200400D01*
X5941822Y3200400D02*
G01*
X5978143Y3143250D01*
X6074918Y3252215D02*
G01*
X6022847Y3252215D01*
X6017768Y3205479D01*
X6022847Y3210560D01*
X6038595Y3215894D01*
X6054090Y3215894D01*
X6069584Y3210560D01*
X6079997Y3200400D01*
X6085331Y3184652D01*
X6085331Y3174237D01*
X6079997Y3158744D01*
X6069584Y3148329D01*
X6054090Y3143250D01*
X6038595Y3143250D01*
X6022847Y3148329D01*
X6017768Y3153410D01*
X6012434Y3163823D01*
X4829479Y4766805D02*
G01*
X4907457Y4766805D01*
X4922951Y4771885D01*
X4933365Y4782299D01*
X4938445Y4798047D01*
X4938445Y4808461D01*
X4933365Y4823955D01*
X4922951Y4834369D01*
X4907457Y4839449D01*
X4829479Y4839449D01*
X4850307Y4873739D02*
G01*
X4844973Y4884153D01*
X4829479Y4899901D01*
X4938445Y4899901D01*
X2323084Y4533900D02*
G01*
X2401061Y4533900D01*
X2416556Y4538979D01*
X2426970Y4549394D01*
X2432050Y4565142D01*
X2432050Y4575555D01*
X2426970Y4591050D01*
X2416556Y4601463D01*
X2401061Y4606544D01*
X2323084Y4606544D01*
X2348991Y4646168D02*
G01*
X2343911Y4646168D01*
X2333497Y4651247D01*
X2328163Y4656581D01*
X2323084Y4666995D01*
X2323084Y4687570D01*
X2328163Y4697984D01*
X2333497Y4703318D01*
X2343911Y4708397D01*
X2354325Y4708397D01*
X2364740Y4703318D01*
X2380234Y4692904D01*
X2432050Y4640834D01*
X2432050Y4713731D01*
X1840484Y4546600D02*
G01*
X1918462Y4546600D01*
X1933956Y4551679D01*
X1944370Y4562094D01*
X1949450Y4577842D01*
X1949450Y4588255D01*
X1944370Y4603750D01*
X1933956Y4614163D01*
X1918462Y4619244D01*
X1840484Y4619244D01*
X1840484Y4663947D02*
G01*
X1840484Y4721097D01*
X1882139Y4690110D01*
X1882139Y4705604D01*
X1887220Y4716018D01*
X1892300Y4721097D01*
X1908047Y4726431D01*
X1918462Y4726431D01*
X1933956Y4721097D01*
X1944370Y4710684D01*
X1949450Y4695189D01*
X1949450Y4679695D01*
X1944370Y4663947D01*
X1939290Y4658868D01*
X1928876Y4653534D01*
X2323084Y6045200D02*
G01*
X2401061Y6045200D01*
X2416556Y6050279D01*
X2426970Y6060694D01*
X2432050Y6076442D01*
X2432050Y6086855D01*
X2426970Y6102350D01*
X2416556Y6112763D01*
X2401061Y6117844D01*
X2323084Y6117844D01*
X2323084Y6204204D02*
G01*
X2395727Y6152134D01*
X2395727Y6230112D01*
X2323084Y6204204D02*
G01*
X2432050Y6204204D01*
X1853184Y6057900D02*
G01*
X1931161Y6057900D01*
X1946656Y6062979D01*
X1957070Y6073394D01*
X1962150Y6089142D01*
X1962150Y6099555D01*
X1957070Y6115050D01*
X1946656Y6125463D01*
X1931161Y6130544D01*
X1853184Y6130544D01*
X1853184Y6227318D02*
G01*
X1853184Y6175247D01*
X1899920Y6170168D01*
X1894839Y6175247D01*
X1889505Y6190995D01*
X1889505Y6206489D01*
X1894839Y6221984D01*
X1905000Y6232397D01*
X1920747Y6237731D01*
X1931161Y6237731D01*
X1946656Y6232397D01*
X1957070Y6221984D01*
X1962150Y6206489D01*
X1962150Y6190995D01*
X1957070Y6175247D01*
X1951990Y6170168D01*
X1941575Y6164834D01*
X4941315Y5270500D02*
G01*
X4863338Y5270500D01*
X4847843Y5265420D01*
X4837429Y5255005D01*
X4832350Y5239257D01*
X4832350Y5228844D01*
X4837429Y5213350D01*
X4847843Y5202936D01*
X4863338Y5197855D01*
X4941315Y5197855D01*
X4925822Y5101081D02*
G01*
X4936236Y5106415D01*
X4941315Y5121910D01*
X4941315Y5132323D01*
X4936236Y5147818D01*
X4920488Y5158231D01*
X4894579Y5163565D01*
X4868672Y5163565D01*
X4847843Y5158231D01*
X4837429Y5147818D01*
X4832350Y5132323D01*
X4832350Y5126989D01*
X4837429Y5111495D01*
X4847843Y5101081D01*
X4863338Y5096002D01*
X4868672Y5096002D01*
X4884165Y5101081D01*
X4894579Y5111495D01*
X4899659Y5126989D01*
X4899659Y5132323D01*
X4894579Y5147818D01*
X4884165Y5158231D01*
X4868672Y5163565D01*
D11*
X3287194Y7018337D02*
G01*
X3287194Y6922833D01*
X3287194Y7018337D02*
G01*
X3318944Y7018337D01*
X3332660Y7013765D01*
X3341804Y7004875D01*
X3346376Y6995731D01*
X3350948Y6982015D01*
X3350948Y6959409D01*
X3346376Y6945693D01*
X3341804Y6936549D01*
X3332660Y6927405D01*
X3318944Y6922833D01*
X3287194Y6922833D01*
X3380920Y7000303D02*
G01*
X3389810Y7004875D01*
X3403526Y7018337D01*
X3403526Y6922833D01*
X3442642Y7018337D02*
G01*
X3492680Y7018337D01*
X3465502Y6982015D01*
X3478964Y6982015D01*
X3488108Y6977443D01*
X3492680Y6972871D01*
X3497252Y6959409D01*
X3497252Y6950265D01*
X3492680Y6936549D01*
X3483536Y6927405D01*
X3469820Y6922833D01*
X3456358Y6922833D01*
X3442642Y6927405D01*
X3438070Y6931977D01*
X3433498Y6941121D01*
X3296333Y6764342D02*
G01*
X3346371Y6764342D01*
X3318939Y6728020D01*
X3332655Y6728020D01*
X3341799Y6723448D01*
X3346371Y6718876D01*
X3350943Y6705414D01*
X3350943Y6696270D01*
X3346371Y6682554D01*
X3337227Y6673410D01*
X3323511Y6668838D01*
X3309795Y6668838D01*
X3296333Y6673410D01*
X3291761Y6677982D01*
X3287189Y6687126D01*
X3380915Y6764342D02*
G01*
X3417237Y6668838D01*
X3453559Y6764342D02*
G01*
X3417237Y6668838D01*
X3492675Y6764342D02*
G01*
X3542713Y6764342D01*
X3515281Y6728020D01*
X3528997Y6728020D01*
X3538141Y6723448D01*
X3542713Y6718876D01*
X3547285Y6705414D01*
X3547285Y6696270D01*
X3542713Y6682554D01*
X3533569Y6673410D01*
X3519853Y6668838D01*
X3506391Y6668838D01*
X3492675Y6673410D01*
X3488103Y6677982D01*
X3483531Y6687126D01*
X3287189Y6510342D02*
G01*
X3287189Y6414838D01*
X3287189Y6510342D02*
G01*
X3328083Y6510342D01*
X3341799Y6505770D01*
X3346371Y6501198D01*
X3350943Y6492308D01*
X3350943Y6483164D01*
X3346371Y6474020D01*
X3341799Y6469448D01*
X3328083Y6464876D01*
X3287189Y6464876D01*
X3318939Y6464876D02*
G01*
X3350943Y6414838D01*
X3380915Y6510342D02*
G01*
X3380915Y6414838D01*
X3380915Y6510342D02*
G01*
X3439843Y6510342D01*
X3380915Y6464876D02*
G01*
X3417237Y6464876D01*
X3380915Y6414838D02*
G01*
X3439843Y6414838D01*
X3469815Y6510342D02*
G01*
X3469815Y6414838D01*
X3469815Y6510342D02*
G01*
X3528997Y6510342D01*
X3469815Y6464876D02*
G01*
X3506391Y6464876D01*
X3323513Y6256340D02*
G01*
X3287191Y6160836D01*
X3323513Y6256340D02*
G01*
X3359835Y6160836D01*
X3300907Y6192840D02*
G01*
X3346373Y6192840D01*
X3417239Y6256340D02*
G01*
X3403523Y6251768D01*
X3394379Y6238306D01*
X3389807Y6215446D01*
X3389807Y6201984D01*
X3394379Y6179124D01*
X3403523Y6165408D01*
X3417239Y6160836D01*
X3426383Y6160836D01*
X3439845Y6165408D01*
X3448989Y6179124D01*
X3453561Y6201984D01*
X3453561Y6215446D01*
X3448989Y6238306D01*
X3439845Y6251768D01*
X3426383Y6256340D01*
X3417239Y6256340D01*
X3323511Y6002342D02*
G01*
X3287189Y5906838D01*
X3323511Y6002342D02*
G01*
X3359833Y5906838D01*
X3300905Y5938842D02*
G01*
X3346371Y5938842D01*
X3389805Y5984308D02*
G01*
X3398949Y5988880D01*
X3412665Y6002342D01*
X3412665Y5906838D01*
X3323513Y5748340D02*
G01*
X3287191Y5652836D01*
X3323513Y5748340D02*
G01*
X3359835Y5652836D01*
X3300907Y5684840D02*
G01*
X3346373Y5684840D01*
X3394379Y5725734D02*
G01*
X3394379Y5730306D01*
X3398951Y5739196D01*
X3403523Y5743768D01*
X3412667Y5748340D01*
X3430701Y5748340D01*
X3439845Y5743768D01*
X3444417Y5739196D01*
X3448989Y5730306D01*
X3448989Y5721162D01*
X3444417Y5712018D01*
X3435273Y5698302D01*
X3389807Y5652836D01*
X3453561Y5652836D01*
X3323513Y5494340D02*
G01*
X3287191Y5398836D01*
X3323513Y5494340D02*
G01*
X3359835Y5398836D01*
X3300907Y5430840D02*
G01*
X3346373Y5430840D01*
X3398951Y5494340D02*
G01*
X3448989Y5494340D01*
X3421811Y5458018D01*
X3435273Y5458018D01*
X3444417Y5453446D01*
X3448989Y5448874D01*
X3453561Y5435412D01*
X3453561Y5426268D01*
X3448989Y5412552D01*
X3439845Y5403408D01*
X3426383Y5398836D01*
X3412667Y5398836D01*
X3398951Y5403408D01*
X3394379Y5407980D01*
X3389807Y5417124D01*
X3323516Y5240337D02*
G01*
X3287194Y5144833D01*
X3323516Y5240337D02*
G01*
X3359838Y5144833D01*
X3300910Y5176837D02*
G01*
X3346376Y5176837D01*
X3435276Y5240337D02*
G01*
X3389810Y5176837D01*
X3458136Y5176837D01*
X3435276Y5240337D02*
G01*
X3435276Y5144833D01*
X3323513Y4986340D02*
G01*
X3287191Y4890836D01*
X3323513Y4986340D02*
G01*
X3359835Y4890836D01*
X3300907Y4922840D02*
G01*
X3346373Y4922840D01*
X3444417Y4986340D02*
G01*
X3398951Y4986340D01*
X3394379Y4945446D01*
X3398951Y4950018D01*
X3412667Y4954590D01*
X3426383Y4954590D01*
X3439845Y4950018D01*
X3448989Y4940874D01*
X3453561Y4927412D01*
X3453561Y4918268D01*
X3448989Y4904552D01*
X3439845Y4895408D01*
X3426383Y4890836D01*
X3412667Y4890836D01*
X3398951Y4895408D01*
X3394379Y4899980D01*
X3389807Y4909124D01*
X3323516Y4732337D02*
G01*
X3287194Y4636833D01*
X3323516Y4732337D02*
G01*
X3359838Y4636833D01*
X3300910Y4668837D02*
G01*
X3346376Y4668837D01*
X3444420Y4718875D02*
G01*
X3439848Y4727765D01*
X3426386Y4732337D01*
X3417242Y4732337D01*
X3403526Y4727765D01*
X3394382Y4714303D01*
X3389810Y4691443D01*
X3389810Y4668837D01*
X3394382Y4650549D01*
X3403526Y4641405D01*
X3417242Y4636833D01*
X3421814Y4636833D01*
X3435276Y4641405D01*
X3444420Y4650549D01*
X3448992Y4664265D01*
X3448992Y4668837D01*
X3444420Y4682299D01*
X3435276Y4691443D01*
X3421814Y4696015D01*
X3417242Y4696015D01*
X3403526Y4691443D01*
X3394382Y4682299D01*
X3389810Y4668837D01*
X3323513Y4478340D02*
G01*
X3287191Y4382836D01*
X3323513Y4478340D02*
G01*
X3359835Y4382836D01*
X3300907Y4414840D02*
G01*
X3346373Y4414840D01*
X3453561Y4478340D02*
G01*
X3408095Y4382836D01*
X3389807Y4478340D02*
G01*
X3453561Y4478340D01*
X3341801Y4224340D02*
G01*
X3296335Y4224340D01*
X3291763Y4183446D01*
X3296335Y4188018D01*
X3309797Y4192590D01*
X3323513Y4192590D01*
X3337229Y4188018D01*
X3346373Y4178874D01*
X3350945Y4165412D01*
X3350945Y4156268D01*
X3346373Y4142552D01*
X3337229Y4133408D01*
X3323513Y4128836D01*
X3309797Y4128836D01*
X3296335Y4133408D01*
X3291763Y4137980D01*
X3287191Y4147124D01*
X3380917Y4224340D02*
G01*
X3417239Y4128836D01*
X3453561Y4224340D02*
G01*
X3417239Y4128836D01*
X3287189Y3970342D02*
G01*
X3287189Y3874838D01*
X3287189Y3970342D02*
G01*
X3328083Y3970342D01*
X3341799Y3965770D01*
X3346371Y3961198D01*
X3350943Y3952308D01*
X3350943Y3943164D01*
X3346371Y3934020D01*
X3341799Y3929448D01*
X3328083Y3924876D01*
X3287189Y3924876D01*
X3318939Y3924876D02*
G01*
X3350943Y3874838D01*
X3444415Y3956880D02*
G01*
X3435271Y3965770D01*
X3421809Y3970342D01*
X3403521Y3970342D01*
X3389805Y3965770D01*
X3380915Y3956880D01*
X3380915Y3947736D01*
X3385487Y3938592D01*
X3389805Y3934020D01*
X3398949Y3929448D01*
X3426381Y3920304D01*
X3435271Y3915986D01*
X3439843Y3911414D01*
X3444415Y3902270D01*
X3444415Y3888554D01*
X3435271Y3879410D01*
X3421809Y3874838D01*
X3403521Y3874838D01*
X3389805Y3879410D01*
X3380915Y3888554D01*
X3506391Y3970342D02*
G01*
X3506391Y3874838D01*
X3474387Y3970342D02*
G01*
X3538141Y3970342D01*
X3355263Y3693734D02*
G01*
X3350945Y3702878D01*
X3341801Y3711768D01*
X3332657Y3716340D01*
X3314369Y3716340D01*
X3305479Y3711768D01*
X3296335Y3702878D01*
X3291763Y3693734D01*
X3287191Y3680018D01*
X3287191Y3657412D01*
X3291763Y3643696D01*
X3296335Y3634552D01*
X3305479Y3625408D01*
X3314369Y3620836D01*
X3332657Y3620836D01*
X3341801Y3625408D01*
X3350945Y3634552D01*
X3355263Y3643696D01*
X3355263Y3657412D01*
X3332657Y3657412D02*
G01*
X3355263Y3657412D01*
X3385489Y3716340D02*
G01*
X3385489Y3620836D01*
X3385489Y3716340D02*
G01*
X3448989Y3620836D01*
X3448989Y3716340D02*
G01*
X3448989Y3620836D01*
X3478961Y3716340D02*
G01*
X3478961Y3620836D01*
X3478961Y3716340D02*
G01*
X3510711Y3716340D01*
X3524427Y3711768D01*
X3533571Y3702878D01*
X3538143Y3693734D01*
X3542715Y3680018D01*
X3542715Y3657412D01*
X3538143Y3643696D01*
X3533571Y3634552D01*
X3524427Y3625408D01*
X3510711Y3620836D01*
X3478961Y3620836D01*
X3287194Y3462337D02*
G01*
X3323516Y3366833D01*
X3359838Y3462337D02*
G01*
X3323516Y3366833D01*
X3389810Y3462337D02*
G01*
X3389810Y3366833D01*
X3420036Y3462337D02*
G01*
X3420036Y3366833D01*
X3420036Y3462337D02*
G01*
X3483536Y3366833D01*
X3483536Y3462337D02*
G01*
X3483536Y3366833D01*
X4276092Y7020341D02*
G01*
X4276092Y6924837D01*
X4276092Y7020341D02*
G01*
X4307842Y7020341D01*
X4321558Y7015769D01*
X4330702Y7006879D01*
X4335274Y6997735D01*
X4339846Y6984019D01*
X4339846Y6961413D01*
X4335274Y6947697D01*
X4330702Y6938553D01*
X4321558Y6929409D01*
X4307842Y6924837D01*
X4276092Y6924837D01*
X4369818Y7002307D02*
G01*
X4378708Y7006879D01*
X4392424Y7020341D01*
X4392424Y6924837D01*
X4426968Y6997735D02*
G01*
X4426968Y7002307D01*
X4431540Y7011197D01*
X4436112Y7015769D01*
X4445256Y7020341D01*
X4463290Y7020341D01*
X4472434Y7015769D01*
X4477006Y7011197D01*
X4481578Y7002307D01*
X4481578Y6993163D01*
X4477006Y6984019D01*
X4467862Y6970303D01*
X4422396Y6924837D01*
X4486150Y6924837D01*
X4316986Y6766344D02*
G01*
X4316986Y6670840D01*
X4316986Y6766344D02*
G01*
X4348736Y6766344D01*
X4362452Y6761772D01*
X4371596Y6752882D01*
X4376168Y6743738D01*
X4380740Y6730022D01*
X4380740Y6707416D01*
X4376168Y6693700D01*
X4371596Y6684556D01*
X4362452Y6675412D01*
X4348736Y6670840D01*
X4316986Y6670840D01*
X4410712Y6748310D02*
G01*
X4419602Y6752882D01*
X4433318Y6766344D01*
X4433318Y6670840D01*
X4463290Y6748310D02*
G01*
X4472434Y6752882D01*
X4486150Y6766344D01*
X4486150Y6670840D01*
X4276092Y6512341D02*
G01*
X4276092Y6416837D01*
X4276092Y6512341D02*
G01*
X4307842Y6512341D01*
X4321558Y6507769D01*
X4330702Y6498879D01*
X4335274Y6489735D01*
X4339846Y6476019D01*
X4339846Y6453413D01*
X4335274Y6439697D01*
X4330702Y6430553D01*
X4321558Y6421409D01*
X4307842Y6416837D01*
X4276092Y6416837D01*
X4369818Y6494307D02*
G01*
X4378708Y6498879D01*
X4392424Y6512341D01*
X4392424Y6416837D01*
X4449828Y6512341D02*
G01*
X4436112Y6507769D01*
X4426968Y6494307D01*
X4422396Y6471447D01*
X4422396Y6457985D01*
X4426968Y6435125D01*
X4436112Y6421409D01*
X4449828Y6416837D01*
X4458718Y6416837D01*
X4472434Y6421409D01*
X4481578Y6435125D01*
X4486150Y6457985D01*
X4486150Y6471447D01*
X4481578Y6494307D01*
X4472434Y6507769D01*
X4458718Y6512341D01*
X4449828Y6512341D01*
X4333496Y6258341D02*
G01*
X4333496Y6162837D01*
X4333496Y6258341D02*
G01*
X4365246Y6258341D01*
X4378962Y6253769D01*
X4388106Y6244879D01*
X4392678Y6235735D01*
X4397250Y6222019D01*
X4397250Y6199413D01*
X4392678Y6185697D01*
X4388106Y6176553D01*
X4378962Y6167409D01*
X4365246Y6162837D01*
X4333496Y6162837D01*
X4486150Y6226591D02*
G01*
X4481578Y6212875D01*
X4472688Y6203985D01*
X4458972Y6199413D01*
X4454400Y6199413D01*
X4440684Y6203985D01*
X4431794Y6212875D01*
X4427222Y6226591D01*
X4427222Y6231163D01*
X4431794Y6244879D01*
X4440684Y6253769D01*
X4454400Y6258341D01*
X4458972Y6258341D01*
X4472688Y6253769D01*
X4481578Y6244879D01*
X4486150Y6226591D01*
X4486150Y6203985D01*
X4481578Y6181125D01*
X4472688Y6167409D01*
X4458972Y6162837D01*
X4449828Y6162837D01*
X4436112Y6167409D01*
X4431794Y6176553D01*
X4328924Y6004344D02*
G01*
X4328924Y5908840D01*
X4328924Y6004344D02*
G01*
X4360674Y6004344D01*
X4374390Y5999772D01*
X4383534Y5990882D01*
X4388106Y5981738D01*
X4392678Y5968022D01*
X4392678Y5945416D01*
X4388106Y5931700D01*
X4383534Y5922556D01*
X4374390Y5913412D01*
X4360674Y5908840D01*
X4328924Y5908840D01*
X4445256Y6004344D02*
G01*
X4431540Y5999772D01*
X4427222Y5990882D01*
X4427222Y5981738D01*
X4431540Y5972594D01*
X4440684Y5968022D01*
X4458972Y5963450D01*
X4472434Y5958878D01*
X4481578Y5949988D01*
X4486150Y5940844D01*
X4486150Y5927128D01*
X4481578Y5917984D01*
X4477006Y5913412D01*
X4463544Y5908840D01*
X4445256Y5908840D01*
X4431540Y5913412D01*
X4427222Y5917984D01*
X4422650Y5927128D01*
X4422650Y5940844D01*
X4427222Y5949988D01*
X4436112Y5958878D01*
X4449828Y5963450D01*
X4468116Y5968022D01*
X4477006Y5972594D01*
X4481578Y5981738D01*
X4481578Y5990882D01*
X4477006Y5999772D01*
X4463544Y6004344D01*
X4445256Y6004344D01*
X4328924Y5750341D02*
G01*
X4328924Y5654837D01*
X4328924Y5750341D02*
G01*
X4360674Y5750341D01*
X4374390Y5745769D01*
X4383534Y5736879D01*
X4388106Y5727735D01*
X4392678Y5714019D01*
X4392678Y5691413D01*
X4388106Y5677697D01*
X4383534Y5668553D01*
X4374390Y5659409D01*
X4360674Y5654837D01*
X4328924Y5654837D01*
X4486150Y5750341D02*
G01*
X4440684Y5654837D01*
X4422650Y5750341D02*
G01*
X4486150Y5750341D01*
X4333496Y5496341D02*
G01*
X4333496Y5400837D01*
X4333496Y5496341D02*
G01*
X4365246Y5496341D01*
X4378962Y5491769D01*
X4388106Y5482879D01*
X4392678Y5473735D01*
X4397250Y5460019D01*
X4397250Y5437413D01*
X4392678Y5423697D01*
X4388106Y5414553D01*
X4378962Y5405409D01*
X4365246Y5400837D01*
X4333496Y5400837D01*
X4481578Y5482879D02*
G01*
X4477006Y5491769D01*
X4463544Y5496341D01*
X4454400Y5496341D01*
X4440684Y5491769D01*
X4431794Y5478307D01*
X4427222Y5455447D01*
X4427222Y5432841D01*
X4431794Y5414553D01*
X4440684Y5405409D01*
X4454400Y5400837D01*
X4458972Y5400837D01*
X4472688Y5405409D01*
X4481578Y5414553D01*
X4486150Y5428269D01*
X4486150Y5432841D01*
X4481578Y5446303D01*
X4472688Y5455447D01*
X4458972Y5460019D01*
X4454400Y5460019D01*
X4440684Y5455447D01*
X4431794Y5446303D01*
X4427222Y5432841D01*
X4328924Y5242344D02*
G01*
X4328924Y5146840D01*
X4328924Y5242344D02*
G01*
X4360674Y5242344D01*
X4374390Y5237772D01*
X4383534Y5228882D01*
X4388106Y5219738D01*
X4392678Y5206022D01*
X4392678Y5183416D01*
X4388106Y5169700D01*
X4383534Y5160556D01*
X4374390Y5151412D01*
X4360674Y5146840D01*
X4328924Y5146840D01*
X4477006Y5242344D02*
G01*
X4431540Y5242344D01*
X4427222Y5201450D01*
X4431540Y5206022D01*
X4445256Y5210594D01*
X4458972Y5210594D01*
X4472434Y5206022D01*
X4481578Y5196878D01*
X4486150Y5183416D01*
X4486150Y5174272D01*
X4481578Y5160556D01*
X4472434Y5151412D01*
X4458972Y5146840D01*
X4445256Y5146840D01*
X4431540Y5151412D01*
X4427222Y5155984D01*
X4422650Y5165128D01*
X4324352Y4988341D02*
G01*
X4324352Y4892837D01*
X4324352Y4988341D02*
G01*
X4356102Y4988341D01*
X4369818Y4983769D01*
X4378962Y4974879D01*
X4383534Y4965735D01*
X4388106Y4952019D01*
X4388106Y4929413D01*
X4383534Y4915697D01*
X4378962Y4906553D01*
X4369818Y4897409D01*
X4356102Y4892837D01*
X4324352Y4892837D01*
X4463544Y4988341D02*
G01*
X4418078Y4924841D01*
X4486150Y4924841D01*
X4463544Y4988341D02*
G01*
X4463544Y4892837D01*
X4328924Y4734341D02*
G01*
X4328924Y4638837D01*
X4328924Y4734341D02*
G01*
X4360674Y4734341D01*
X4374390Y4729769D01*
X4383534Y4720879D01*
X4388106Y4711735D01*
X4392678Y4698019D01*
X4392678Y4675413D01*
X4388106Y4661697D01*
X4383534Y4652553D01*
X4374390Y4643409D01*
X4360674Y4638837D01*
X4328924Y4638837D01*
X4431540Y4734341D02*
G01*
X4481578Y4734341D01*
X4454400Y4698019D01*
X4468116Y4698019D01*
X4477006Y4693447D01*
X4481578Y4688875D01*
X4486150Y4675413D01*
X4486150Y4666269D01*
X4481578Y4652553D01*
X4472434Y4643409D01*
X4458972Y4638837D01*
X4445256Y4638837D01*
X4431540Y4643409D01*
X4427222Y4647981D01*
X4422650Y4657125D01*
X4328924Y4480344D02*
G01*
X4328924Y4384840D01*
X4328924Y4480344D02*
G01*
X4360674Y4480344D01*
X4374390Y4475772D01*
X4383534Y4466882D01*
X4388106Y4457738D01*
X4392678Y4444022D01*
X4392678Y4421416D01*
X4388106Y4407700D01*
X4383534Y4398556D01*
X4374390Y4389412D01*
X4360674Y4384840D01*
X4328924Y4384840D01*
X4427222Y4457738D02*
G01*
X4427222Y4462310D01*
X4431540Y4471200D01*
X4436112Y4475772D01*
X4445256Y4480344D01*
X4463544Y4480344D01*
X4472434Y4475772D01*
X4477006Y4471200D01*
X4481578Y4462310D01*
X4481578Y4453166D01*
X4477006Y4444022D01*
X4468116Y4430306D01*
X4422650Y4384840D01*
X4486150Y4384840D01*
X4298698Y4203735D02*
G01*
X4294380Y4212879D01*
X4285236Y4221769D01*
X4276092Y4226341D01*
X4257804Y4226341D01*
X4248914Y4221769D01*
X4239770Y4212879D01*
X4235198Y4203735D01*
X4230626Y4190019D01*
X4230626Y4167413D01*
X4235198Y4153697D01*
X4239770Y4144553D01*
X4248914Y4135409D01*
X4257804Y4130837D01*
X4276092Y4130837D01*
X4285236Y4135409D01*
X4294380Y4144553D01*
X4298698Y4153697D01*
X4298698Y4167413D01*
X4276092Y4167413D02*
G01*
X4298698Y4167413D01*
X4328924Y4226341D02*
G01*
X4328924Y4130837D01*
X4328924Y4226341D02*
G01*
X4392424Y4130837D01*
X4392424Y4226341D02*
G01*
X4392424Y4130837D01*
X4422396Y4226341D02*
G01*
X4422396Y4130837D01*
X4422396Y4226341D02*
G01*
X4454146Y4226341D01*
X4467862Y4221769D01*
X4477006Y4212879D01*
X4481578Y4203735D01*
X4486150Y4190019D01*
X4486150Y4167413D01*
X4481578Y4153697D01*
X4477006Y4144553D01*
X4467862Y4135409D01*
X4454146Y4130837D01*
X4422396Y4130837D01*
X4235198Y3972341D02*
G01*
X4235198Y3876837D01*
X4235198Y3972341D02*
G01*
X4276092Y3972341D01*
X4289808Y3967769D01*
X4294380Y3963197D01*
X4298952Y3954307D01*
X4298952Y3945163D01*
X4294380Y3936019D01*
X4289808Y3931447D01*
X4276092Y3926875D01*
X4235198Y3926875D01*
X4266948Y3926875D02*
G01*
X4298952Y3876837D01*
X4392424Y3958879D02*
G01*
X4383280Y3967769D01*
X4369818Y3972341D01*
X4351530Y3972341D01*
X4337814Y3967769D01*
X4328924Y3958879D01*
X4328924Y3949735D01*
X4333496Y3940591D01*
X4337814Y3936019D01*
X4346958Y3931447D01*
X4374390Y3922303D01*
X4383280Y3917985D01*
X4387852Y3913413D01*
X4392424Y3904269D01*
X4392424Y3890553D01*
X4383280Y3881409D01*
X4369818Y3876837D01*
X4351530Y3876837D01*
X4337814Y3881409D01*
X4328924Y3890553D01*
X4454400Y3972341D02*
G01*
X4454400Y3876837D01*
X4422396Y3972341D02*
G01*
X4486150Y3972341D01*
X4235198Y3718344D02*
G01*
X4235198Y3622840D01*
X4235198Y3718344D02*
G01*
X4276092Y3718344D01*
X4289808Y3713772D01*
X4294380Y3709200D01*
X4298952Y3700310D01*
X4298952Y3691166D01*
X4294380Y3682022D01*
X4289808Y3677450D01*
X4276092Y3672878D01*
X4235198Y3672878D01*
X4266948Y3672878D02*
G01*
X4298952Y3622840D01*
X4328924Y3718344D02*
G01*
X4392424Y3622840D01*
X4392424Y3718344D02*
G01*
X4328924Y3622840D01*
X4422396Y3718344D02*
G01*
X4422396Y3622840D01*
X4422396Y3718344D02*
G01*
X4454400Y3718344D01*
X4467862Y3713772D01*
X4477006Y3704882D01*
X4481578Y3695738D01*
X4486150Y3682022D01*
X4486150Y3659416D01*
X4481578Y3645700D01*
X4477006Y3636556D01*
X4467862Y3627412D01*
X4454400Y3622840D01*
X4422396Y3622840D01*
X4266948Y3464341D02*
G01*
X4266948Y3368837D01*
X4235198Y3464341D02*
G01*
X4298952Y3464341D01*
X4328924Y3464341D02*
G01*
X4392424Y3368837D01*
X4392424Y3464341D02*
G01*
X4328924Y3368837D01*
X4422396Y3464341D02*
G01*
X4422396Y3368837D01*
X4422396Y3464341D02*
G01*
X4454400Y3464341D01*
X4467862Y3459769D01*
X4477006Y3450879D01*
X4481578Y3441735D01*
X4486150Y3428019D01*
X4486150Y3405413D01*
X4481578Y3391697D01*
X4477006Y3382553D01*
X4467862Y3373409D01*
X4454400Y3368837D01*
X4422396Y3368837D01*
D10*
X5669089Y5637784D02*
G01*
X5669089Y5715762D01*
X5664009Y5731255D01*
X5653595Y5741670D01*
X5637847Y5746750D01*
X5627433Y5746750D01*
X5611939Y5741670D01*
X5601525Y5731255D01*
X5596445Y5715762D01*
X5596445Y5637784D01*
X5489257Y5637784D02*
G01*
X5541327Y5746750D01*
X5562155Y5637784D02*
G01*
X5489257Y5637784D01*
G36*
X5348376Y3071317D02*
G01*
X5347411Y2999333D01*
X5373370Y3035300D01*
G37*
D12*
X5748020Y3768089D02*
G01*
X6062979Y3768089D01*
X5745479Y3928110D02*
G01*
X6065520Y3928110D01*
X5873150Y3768089D02*
G01*
X5873523Y3928110D01*
X5201920Y3780789D02*
G01*
X5516879Y3780789D01*
X5199379Y3940810D02*
G01*
X5519420Y3940810D01*
X5327050Y3780789D02*
G01*
X5327423Y3940810D01*
D13*
X5877481Y3358042D02*
G01*
X5797483Y3358042D01*
X5933526Y3357996D02*
G01*
X6013523Y3357996D01*
X5877481Y3500010D02*
G01*
X5797483Y3500010D01*
X5933526Y3499962D02*
G01*
X6013523Y3499962D01*
X5766508Y3389025D02*
G01*
X5766508Y3469030D01*
X6044501Y3468977D02*
G01*
X6044501Y3388974D01*
X5331381Y3332642D02*
G01*
X5251383Y3332642D01*
X5387426Y3332596D02*
G01*
X5467423Y3332596D01*
X5331381Y3474610D02*
G01*
X5251383Y3474610D01*
X5387426Y3474562D02*
G01*
X5467423Y3474562D01*
X5220408Y3363625D02*
G01*
X5220408Y3443630D01*
X5498401Y3443577D02*
G01*
X5498401Y3363574D01*
D11*
X5396400Y3108299D02*
G01*
X5511398Y3108299D01*
X5511398Y2963301D01*
X5391398Y2963301D01*
X5329400Y2962300D02*
G01*
X5205399Y2962300D01*
X5205399Y3107298D01*
X5329400Y3107298D01*
X5511398Y3108299D02*
G01*
X5514400Y3108299D01*
X5534400Y3088299D01*
X5534400Y2986300D01*
X5531398Y2983301D01*
X5511398Y2963301D01*
D13*
X2476500Y3022600D02*
G01*
X2540000Y3086100D01*
X2540000Y3086100D02*
G01*
X2667000Y3086100D01*
X2667000Y3086100D02*
G01*
X2730500Y3022600D01*
X2730500Y2895600D02*
G01*
X2667000Y2832100D01*
X2667000Y2832100D02*
G01*
X2540000Y2832100D01*
X2540000Y2832100D02*
G01*
X2476500Y2895600D01*
X2032000Y3086100D02*
G01*
X2159000Y3086100D01*
X2159000Y3086100D02*
G01*
X2222500Y3022600D01*
X2222500Y2895600D02*
G01*
X2159000Y2832100D01*
X2222500Y3022600D02*
G01*
X2286000Y3086100D01*
X2286000Y3086100D02*
G01*
X2413000Y3086100D01*
X2413000Y3086100D02*
G01*
X2476500Y3022600D01*
X2476500Y2895600D02*
G01*
X2413000Y2832100D01*
X2413000Y2832100D02*
G01*
X2286000Y2832100D01*
X2286000Y2832100D02*
G01*
X2222500Y2895600D01*
X1968500Y3022600D02*
G01*
X1968500Y2895600D01*
X2032000Y3086100D02*
G01*
X1968500Y3022600D01*
X1968500Y2895600D02*
G01*
X2032000Y2832100D01*
X2159000Y2832100D02*
G01*
X2032000Y2832100D01*
X2730500Y3022600D02*
G01*
X2730500Y2895600D01*
X2463800Y3505200D02*
G01*
X2527300Y3568700D01*
X2527300Y3568700D02*
G01*
X2654300Y3568700D01*
X2654300Y3568700D02*
G01*
X2717800Y3505200D01*
X2717800Y3378200D02*
G01*
X2654300Y3314700D01*
X2654300Y3314700D02*
G01*
X2527300Y3314700D01*
X2527300Y3314700D02*
G01*
X2463800Y3378200D01*
X2019300Y3568700D02*
G01*
X2146300Y3568700D01*
X2146300Y3568700D02*
G01*
X2209800Y3505200D01*
X2209800Y3378200D02*
G01*
X2146300Y3314700D01*
X2209800Y3505200D02*
G01*
X2273300Y3568700D01*
X2273300Y3568700D02*
G01*
X2400300Y3568700D01*
X2400300Y3568700D02*
G01*
X2463800Y3505200D01*
X2463800Y3378200D02*
G01*
X2400300Y3314700D01*
X2400300Y3314700D02*
G01*
X2273300Y3314700D01*
X2273300Y3314700D02*
G01*
X2209800Y3378200D01*
X1955800Y3505200D02*
G01*
X1955800Y3378200D01*
X2019300Y3568700D02*
G01*
X1955800Y3505200D01*
X1955800Y3378200D02*
G01*
X2019300Y3314700D01*
X2146300Y3314700D02*
G01*
X2019300Y3314700D01*
X2717800Y3505200D02*
G01*
X2717800Y3378200D01*
D10*
X5948121Y2969239D02*
G01*
X6044008Y2969239D01*
X6044008Y3101360D01*
X5948121Y3101360D01*
X5862878Y2969239D02*
G01*
X5766991Y2969239D01*
X5766991Y3101360D01*
X5862878Y3101360D01*
D13*
X6048806Y4240606D02*
G01*
X5218399Y4240606D01*
X6295905Y5300604D02*
G01*
X6443395Y5300604D01*
X5218399Y5300604D02*
G01*
X6010887Y5300604D01*
X6443395Y4240606D02*
G01*
X6257991Y4240606D01*
X5218399Y4240606D02*
G01*
X5218399Y5300604D01*
X6443395Y4240517D02*
G01*
X6443395Y4388345D01*
X6443395Y5300713D01*
X6743395Y5300604D02*
G01*
X6443395Y5300604D01*
X6743395Y4240606D02*
G01*
X6443395Y4240606D01*
X6743395Y4240606D02*
G01*
X6743395Y5300604D01*
X2470800Y4218899D02*
G01*
X2470800Y4848900D01*
X2470800Y4848900D02*
G01*
X2710799Y4848900D01*
X2710799Y4848900D02*
G01*
X2710799Y4218899D01*
X2710799Y4218899D02*
G01*
X2470800Y4218899D01*
X1988200Y4231599D02*
G01*
X1988200Y4861600D01*
X1988200Y4861600D02*
G01*
X2228199Y4861600D01*
X2228199Y4861600D02*
G01*
X2228199Y4231599D01*
X2228199Y4231599D02*
G01*
X1988200Y4231599D01*
X2470800Y5730199D02*
G01*
X2470800Y6360200D01*
X2470800Y6360200D02*
G01*
X2710799Y6360200D01*
X2710799Y6360200D02*
G01*
X2710799Y5730199D01*
X2710799Y5730199D02*
G01*
X2470800Y5730199D01*
X2000900Y5742899D02*
G01*
X2000900Y6372900D01*
X2000900Y6372900D02*
G01*
X2240899Y6372900D01*
X2240899Y6372900D02*
G01*
X2240899Y5742899D01*
X2240899Y5742899D02*
G01*
X2000900Y5742899D01*
D14*
X2997260Y4876840D02*
G01*
X3060760Y4813340D01*
X2997260Y4749840D01*
X3251248Y7035825D02*
G01*
X3187748Y7099325D01*
X3060748Y7099325D01*
X2997248Y7035825D01*
X3251248Y6781825D02*
G01*
X3187748Y6845325D01*
X3251248Y6908825D01*
X3251248Y6527825D02*
G01*
X3187748Y6591325D01*
X3251248Y6654825D01*
X3251248Y6273871D02*
G01*
X3187748Y6337348D01*
X3251248Y6400848D01*
X3251248Y6019876D02*
G01*
X3187748Y6083376D01*
X3251248Y6146876D01*
X3251248Y5765876D02*
G01*
X3187748Y5829376D01*
X3251248Y5892876D01*
X3251248Y5511876D02*
G01*
X3187748Y5575376D01*
X3251248Y5638876D01*
X3251248Y5257876D02*
G01*
X3187748Y5321376D01*
X3251248Y5384876D01*
X3251248Y5003876D02*
G01*
X3187748Y5067376D01*
X3251248Y5130876D01*
X3251248Y4749876D02*
G01*
X3187748Y4813376D01*
X3251248Y4876876D01*
X3251248Y4495876D02*
G01*
X3187748Y4559376D01*
X3251248Y4622876D01*
X3251248Y4241876D02*
G01*
X3187748Y4305376D01*
X3251248Y4368876D01*
X3251248Y3987848D02*
G01*
X3187748Y4051371D01*
X3251248Y4114876D01*
X3251248Y3733840D02*
G01*
X3187748Y3797340D01*
X3251248Y3860840D01*
X3251248Y3479840D02*
G01*
X3187748Y3543340D01*
X3251248Y3606840D01*
X2997248Y3352840D02*
G01*
X3060748Y3289340D01*
X3187748Y3289340D01*
X3251248Y3352840D01*
X2997248Y3606840D02*
G01*
X3060748Y3543340D01*
X2997248Y3479840D01*
X2997248Y3860840D02*
G01*
X3060748Y3797340D01*
X2997248Y3733840D01*
X2997248Y4114876D02*
G01*
X3060748Y4051371D01*
X2997248Y3987848D01*
X2997248Y6400848D02*
G01*
X3060748Y6337348D01*
X2997248Y6273871D01*
X2997248Y6908825D02*
G01*
X3060748Y6845325D01*
X2997248Y6781825D01*
X2997248Y6654825D02*
G01*
X3060748Y6591325D01*
X2997248Y6527825D01*
X2997248Y6146876D02*
G01*
X3060748Y6083376D01*
X2997248Y6019876D01*
X2997248Y5892876D02*
G01*
X3060748Y5829376D01*
X2997248Y5765876D01*
X2997248Y5638876D02*
G01*
X3060748Y5575376D01*
X2997248Y5511876D01*
X2997248Y5384876D02*
G01*
X3060748Y5321376D01*
X2997248Y5257876D01*
X2997248Y5130876D02*
G01*
X3060748Y5067376D01*
X2997248Y5003876D01*
X2997248Y4622876D02*
G01*
X3060748Y4559376D01*
X2997248Y4495876D01*
X2997248Y4368876D02*
G01*
X3060748Y4305376D01*
X2997248Y4241876D01*
X2997248Y4114876D02*
G01*
X3060748Y4051371D01*
X2997248Y3987848D01*
X2997248Y3860840D01*
X3060748Y3797340D01*
X2997248Y3733840D01*
X2997248Y3606840D01*
X3060748Y3543340D01*
X2997248Y3479840D01*
X2997248Y3352840D01*
X3060748Y3289340D01*
X3187748Y3289340D01*
X3251248Y3352840D01*
X3251248Y3479840D01*
X3187748Y3543340D01*
X3251248Y3606840D01*
X3251248Y3733840D01*
X3187748Y3797340D01*
X3251248Y3860840D01*
X3251248Y3987848D01*
X3187748Y4051371D01*
X3251248Y4114876D01*
X3251248Y4241876D01*
X3187748Y4305376D01*
X3251248Y4368876D01*
X3251248Y4495876D01*
X3187748Y4559376D01*
X3251248Y4622876D01*
X3251248Y4749876D01*
X3187748Y4813376D01*
X3251248Y4876876D01*
X3251248Y5003876D01*
X3187748Y5067376D01*
X3251248Y5130876D01*
X3251248Y5257876D01*
X3187748Y5321376D01*
X3251248Y5384876D01*
X3251248Y5511876D01*
X3187748Y5575376D01*
X3251248Y5638876D01*
X3251248Y5765876D01*
X3187748Y5829376D01*
X3251248Y5892876D01*
X3251248Y6019876D01*
X3187748Y6083376D01*
X3251248Y6146876D01*
X3251248Y6273871D01*
X3187748Y6337348D01*
X3251248Y6400848D01*
X3251248Y6527825D01*
X3187748Y6591325D01*
X3251248Y6654825D01*
X3251248Y6781825D01*
X3187748Y6845325D01*
X3251248Y6908825D01*
X3251248Y7035825D01*
X3187748Y7099325D01*
X3060748Y7099325D01*
X2997248Y7035825D01*
X4775156Y5511774D02*
G01*
X4711656Y5575274D01*
X4775156Y5638774D01*
X4775166Y6273733D02*
G01*
X4711666Y6337236D01*
X4775166Y6400761D01*
X4775166Y6527774D01*
X4711666Y6591274D01*
X4775166Y6654774D01*
X4775166Y6781774D01*
X4711666Y6845274D01*
X4775166Y6908774D01*
X4775166Y7035774D01*
X4711666Y7099274D01*
X4584666Y7099274D01*
X4521166Y7035774D01*
X4521166Y6908774D01*
X4584666Y6845274D01*
X4521166Y6781774D01*
X4521166Y6654774D01*
X4584666Y6591274D01*
X4521166Y6527774D01*
X4521166Y6400761D01*
X4584666Y6337236D01*
X4521166Y6273733D01*
X4521166Y6146733D01*
X4584666Y6083233D01*
X4521166Y6019733D01*
X4521166Y5892733D01*
X4584666Y5829233D01*
X4521166Y5765733D01*
X4521166Y5638733D01*
X4584666Y5575233D01*
X4521166Y5511733D01*
X4521166Y5384733D01*
X4584666Y5321233D01*
X4521166Y5257733D01*
X4521166Y5130733D01*
X4584666Y5067233D01*
X4521166Y5003733D01*
X4521166Y4876733D01*
X4584666Y4813233D01*
X4521166Y4749733D01*
X4521166Y4622733D01*
X4584666Y4559233D01*
X4521166Y4495733D01*
X4521166Y4368733D01*
X4584666Y4305233D01*
X4521166Y4241733D01*
X4521166Y4114739D01*
X4584666Y4051261D01*
X4521166Y3987761D01*
X4521166Y3860784D01*
X4584666Y3797284D01*
X4521166Y3733784D01*
X4521166Y3606784D01*
X4584666Y3543284D01*
X4521166Y3479784D01*
X4521166Y3352784D01*
X4584666Y3289284D01*
X4711666Y3289284D01*
X4775166Y3352784D01*
X4775166Y3987761D02*
G01*
X4711666Y4051261D01*
X4775166Y4114739D01*
X4775166Y3479784D02*
G01*
X4711666Y3543284D01*
X4775166Y3606784D01*
X4775166Y3733784D02*
G01*
X4711666Y3797284D01*
X4775166Y3860784D01*
X4775166Y4241733D02*
G01*
X4711666Y4305233D01*
X4775166Y4368733D01*
X4775166Y4495733D02*
G01*
X4711666Y4559233D01*
X4775166Y4622733D01*
X4775166Y4749733D02*
G01*
X4711666Y4813233D01*
X4775166Y4876733D01*
X4775166Y5003733D02*
G01*
X4711666Y5067233D01*
X4775166Y5130733D01*
X4775166Y5257733D02*
G01*
X4711666Y5321233D01*
X4775166Y5384733D01*
X4775166Y5765733D02*
G01*
X4711666Y5829233D01*
X4775166Y5892733D01*
X4775166Y6019733D02*
G01*
X4711666Y6083233D01*
X4775166Y6146733D01*
X4165600Y6964679D02*
G01*
X4140210Y6964679D01*
X4165600Y7353300D02*
G01*
X4165600Y7505700D01*
X3606800Y7505700D01*
X3606800Y6964679D01*
X3627704Y6964679D01*
X4165600Y7353300D02*
G01*
X4165600Y6964679D01*
X4140210Y6964679D02*
G01*
X3632200Y6964679D01*
D10*
X4782817Y7360920D02*
G01*
X4782817Y3027687D01*
X2989579Y3027687D01*
X2989579Y7360920D01*
X4782817Y7360920D01*
X5834037Y6454018D02*
G01*
X5834037Y5788781D01*
X5539752Y5788781D01*
X5539752Y6454018D01*
X5834037Y6454018D01*
D13*
G75*
G01*
X6013519Y3499963D02*
G02*
X6044501Y3468977I0J-30983D01*
G75*
G01*
X6044501Y3388980D02*
G02*
X6013519Y3357997I-30982J0D01*
G75*
G01*
X5797489Y3358043D02*
G02*
X5766509Y3389025I3J30982D01*
G75*
G01*
X5766509Y3469023D02*
G02*
X5797489Y3500011I30983J5D01*
G75*
G01*
X5467419Y3474563D02*
G02*
X5498401Y3443577I0J-30983D01*
G75*
G01*
X5498401Y3363580D02*
G02*
X5467419Y3332597I-30982J0D01*
G75*
G01*
X5251389Y3332643D02*
G02*
X5220409Y3363625I3J30982D01*
G75*
G01*
X5220409Y3443623D02*
G02*
X5251389Y3474611I30983J5D01*
G75*
G01
X1663751Y3492424D02*
G03X1663751Y3492424I-215900J0D01*
G75*
G01
X1663751Y4241724D02*
G03X1663751Y4241724I-215900J0D01*
G75*
G01
X1663751Y5003724D02*
G03X1663751Y5003724I-215900J0D01*
G75*
G01
X1676451Y5727624D02*
G03X1676451Y5727624I-215900J0D01*
M02*
