G04 Layer: TopLayer*
G04 EasyEDA v6.5.51, 2026-05-29 21:27:25*
G04 98fb49a8f8dc4f8aa5796baa73e9f96a,10*
G04 Gerber Generator version 0.2*
G04 Scale: 100 percent, Rotated: No, Reflected: No *
G04 Dimensions in millimeters *
G04 leading zeros omitted , absolute positions ,4 integer and 5 decimal *
%FSLAX45Y45*%
%MOMM*%

%AMMACRO1*21,1,$1,$2,0,0,$3*%
%ADD10C,0.2540*%
%ADD11R,1.5000X1.3589*%
%ADD12R,0.8000X0.9000*%
%ADD13R,0.8999X1.0000*%
%ADD14MACRO1,0.864X0.8065X90.0000*%
%ADD15MACRO1,3.6X2.34X90.0000*%
%ADD16C,0.0164*%
%ADD17R,2.5000X1.1000*%
%ADD18C,1.8796*%
%ADD19MACRO1,1.035X1.0325X90.0000*%
%ADD20O,2.399995X1.199998*%
%ADD21C,1.3000*%
%ADD22R,1.6000X1.6000*%
%ADD23C,1.6000*%

%LPD*%
D10*
X5980838Y3035297D02*
G01*
X6049114Y3035297D01*
X5759782Y3848097D02*
G01*
X5855820Y3944134D01*
X6121199Y3944134D01*
X6137201Y3928132D01*
X6137201Y3123384D01*
X6049114Y3035297D01*
X5759782Y3848097D02*
G01*
X5734027Y3848097D01*
X5785512Y3848097D02*
G01*
X5759782Y3848097D01*
X5660925Y3848097D02*
G01*
X5289400Y3476571D01*
X5734027Y3848097D02*
G01*
X5660925Y3848097D01*
X5073398Y4470600D02*
G01*
X5660925Y3883073D01*
X5660925Y3848097D01*
X5289400Y3403597D02*
G01*
X5289400Y3476571D01*
X5379900Y5891400D02*
G01*
X5226941Y5891400D01*
X5226941Y5891400D02*
G01*
X5226941Y4624143D01*
X5073398Y4470600D01*
X3124202Y5448297D02*
G01*
X2672692Y5448297D01*
X2590802Y5530187D01*
X1447802Y4114772D02*
G01*
X1527380Y4114772D01*
X2108202Y4031587D02*
G01*
X1610565Y4031587D01*
X1527380Y4114772D01*
X2590802Y4018887D02*
G01*
X2439977Y4018887D01*
X1786562Y3365472D01*
X1447802Y3365472D01*
X5975504Y3508855D02*
G01*
X5975504Y3428997D01*
X6025492Y3752187D02*
G01*
X5975504Y3702199D01*
X5975504Y3508855D01*
X5497375Y3403597D02*
G01*
X5602632Y3508855D01*
X5975504Y3508855D01*
X5429404Y3403597D02*
G01*
X5497375Y3403597D01*
X5429404Y3403597D02*
G01*
X5361434Y3403597D01*
X5479392Y3901615D02*
G01*
X5221302Y3643525D01*
X5221302Y3337887D01*
X5228694Y3330496D01*
X5356303Y3330496D01*
X5361434Y3335627D01*
X5361434Y3403597D01*
X5479392Y3901615D02*
G01*
X5479392Y3956707D01*
X5479392Y3860797D02*
G01*
X5479392Y3901615D01*
X5975504Y3428997D02*
G01*
X5975504Y3356023D01*
X5371442Y2980585D02*
G01*
X5371442Y3035297D01*
X2603502Y2959097D02*
G01*
X2605382Y2957217D01*
X5348074Y2957217D01*
X5371442Y2980585D01*
X5975504Y3356023D02*
G01*
X5912411Y3292929D01*
X5912411Y2989120D01*
X5858487Y2935196D01*
X5416831Y2935196D01*
X5371442Y2980585D01*
X6025492Y3848097D02*
G01*
X6025492Y3752187D01*
X5444390Y3035297D02*
G01*
X5371442Y3035297D01*
X2590802Y5048907D02*
G01*
X4995090Y5048907D01*
X5073398Y4970599D01*
X2108202Y5061607D02*
G01*
X2578102Y5061607D01*
X2590802Y5048907D01*
X2120902Y6572907D02*
G01*
X2578102Y6572907D01*
X2590802Y6560207D01*
X4648202Y4178297D02*
G01*
X5257802Y4178297D01*
X5479392Y3956707D01*
X5379900Y6351394D02*
G01*
X5226941Y6351394D01*
X5226941Y6351394D02*
G01*
X5002583Y6575752D01*
X2606347Y6575752D01*
X2590802Y6560207D01*
X1447802Y3619472D02*
G01*
X1368198Y3619472D01*
X1368198Y4368772D02*
G01*
X1368071Y4368645D01*
X1368071Y3619599D01*
X1368198Y3619472D01*
X1378333Y4368772D02*
G01*
X1368198Y4368772D01*
X1447802Y4368772D02*
G01*
X1378333Y4368772D01*
X1447802Y5130772D02*
G01*
X1368198Y5130772D01*
X1368198Y5130772D02*
G01*
X1366395Y5128968D01*
X1366395Y4370575D01*
X1368198Y4368772D01*
X5176192Y3131106D02*
G01*
X5155110Y3110024D01*
X5155110Y3081627D01*
X5830166Y3131106D02*
G01*
X5176192Y3131106D01*
X5176192Y3131106D02*
G01*
X5176192Y3701666D01*
X5239412Y3764887D01*
X5835500Y3428997D02*
G01*
X5835500Y3136440D01*
X5830166Y3131106D01*
X5830166Y3106468D02*
G01*
X5830166Y3131106D01*
X5155110Y3081627D02*
G01*
X5201439Y3035297D01*
X2349502Y2959097D02*
G01*
X2472032Y3081627D01*
X5155110Y3081627D01*
X5239412Y3860797D02*
G01*
X5239412Y3764887D01*
X5274388Y3035297D02*
G01*
X5201439Y3035297D01*
X5830166Y3035297D02*
G01*
X5830166Y3106468D01*
X1447802Y4368772D02*
G01*
X1527380Y4368772D01*
X3124202Y4178297D02*
G01*
X1717855Y4178297D01*
X1527380Y4368772D01*
X1460502Y5854672D02*
G01*
X1540080Y5854672D01*
X5379900Y6121397D02*
G01*
X5226941Y6121397D01*
X5226941Y6121397D02*
G01*
X4934841Y5829297D01*
X1565455Y5829297D01*
X1540080Y5854672D01*
X5456379Y6121397D02*
G01*
X5379900Y6121397D01*
X5456379Y6121397D02*
G01*
X5532859Y6121397D01*
X5973904Y6121397D02*
G01*
X5973904Y6329372D01*
X5532859Y6121397D02*
G01*
X5740834Y6329372D01*
X5973904Y6329372D01*
X2120902Y5542887D02*
G01*
X1597865Y5542887D01*
X1540080Y5600672D01*
X3124202Y5194297D02*
G01*
X2469492Y5194297D01*
X2120902Y5542887D01*
X1460502Y5600672D02*
G01*
X1540080Y5600672D01*
X3124202Y3924297D02*
G01*
X4648202Y3924297D01*
X4648202Y4686297D02*
G01*
X4013202Y4051297D01*
X2773784Y4051297D01*
X2164184Y3441697D01*
X2082802Y3441697D01*
X4648202Y4432297D02*
G01*
X4540100Y4324195D01*
X4540100Y4131713D01*
X4620516Y4051297D01*
X4688385Y4051297D01*
X4763772Y3975910D01*
X4763772Y3877459D01*
X4683610Y3797297D01*
X3908224Y3797297D01*
X3304974Y3194047D01*
X2330452Y3194047D01*
X2095502Y2959097D01*
D11*
G01*
X5785510Y3848100D03*
G01*
X6025489Y3848100D03*
G01*
X5239410Y3860800D03*
G01*
X5479389Y3860800D03*
D12*
G01*
X5975502Y3429000D03*
G01*
X5835497Y3429000D03*
G01*
X5429402Y3403600D03*
G01*
X5289397Y3403600D03*
D13*
G01*
X5444388Y3035300D03*
G01*
X5274386Y3035300D03*
D14*
G01*
X5980824Y3035300D03*
G01*
X5830175Y3035300D03*
D15*
G01*
X5973894Y6121400D03*
D17*
G01*
X5379897Y5891403D03*
G01*
X5379897Y6121400D03*
G01*
X5379897Y6351396D03*
D18*
G01*
X2095500Y2959100D03*
G01*
X2349500Y2959100D03*
G01*
X2603500Y2959100D03*
G01*
X2082800Y3441700D03*
G01*
X2336800Y3441700D03*
G01*
X2590800Y3441700D03*
D19*
G01*
X1447787Y3619487D03*
G01*
X1447787Y3365487D03*
G01*
X1447787Y4368787D03*
G01*
X1447787Y4114787D03*
G01*
X1447787Y5130787D03*
G01*
X1447787Y4876787D03*
G01*
X1460487Y5854687D03*
G01*
X1460487Y5600687D03*
D20*
G01*
X5073395Y4970602D03*
G01*
X5073395Y4470603D03*
G01*
X5073395Y5170601D03*
G01*
X6153404Y4310583D03*
G01*
X6153404Y5290591D03*
D21*
G01*
X2590800Y4018889D03*
G01*
X2590800Y5048910D03*
G01*
X2108200Y4031589D03*
G01*
X2108200Y5061610D03*
G01*
X2590800Y5530189D03*
G01*
X2590800Y6560210D03*
G01*
X2120900Y5542889D03*
G01*
X2120900Y6572910D03*
D22*
G01*
X4648200Y3416300D03*
D23*
G01*
X3124200Y3670300D03*
G01*
X3124200Y4178300D03*
G01*
X3124200Y4686300D03*
G01*
X3124200Y5194300D03*
G01*
X3124200Y5702300D03*
G01*
X3124200Y6210300D03*
G01*
X3124200Y6718300D03*
G01*
X4648200Y6972300D03*
G01*
X4648200Y6464300D03*
G01*
X4648200Y5956300D03*
G01*
X4648200Y5448300D03*
G01*
X4648200Y4940300D03*
G01*
X4648200Y4432300D03*
G01*
X4648200Y3924300D03*
G01*
X4648200Y3670300D03*
G01*
X4648200Y4178300D03*
G01*
X4648200Y4686300D03*
G01*
X4648200Y5194300D03*
G01*
X4648200Y5702300D03*
G01*
X4648200Y6210300D03*
G01*
X4648200Y6718300D03*
G01*
X3124200Y6972300D03*
G01*
X3124200Y6464300D03*
G01*
X3124200Y5956300D03*
G01*
X3124200Y5448300D03*
G01*
X3124200Y4940300D03*
G01*
X3124200Y4432300D03*
G01*
X3124200Y3924300D03*
D22*
G01*
X3124200Y3416300D03*
M02*
