G04 Layer: BottomLayer*
G04 EasyEDA v6.5.51, 2026-05-29 21:27:25*
G04 98fb49a8f8dc4f8aa5796baa73e9f96a,10*
G04 Gerber Generator version 0.2*
G04 Scale: 100 percent, Rotated: No, Reflected: No *
G04 Dimensions in millimeters *
G04 leading zeros omitted , absolute positions ,4 integer and 5 decimal *
%FSLAX45Y45*%
%MOMM*%

%AMMACRO1*21,1,$1,$2,0,0,$3*%
%ADD10C,0.2540*%
%ADD11C,1.8796*%
%ADD12MACRO1,1.035X1.0325X90.0000*%
%ADD13O,2.399995X1.199998*%
%ADD14C,1.3000*%
%ADD15R,1.6000X1.6000*%
%ADD16R,0.0142X1.6000*%
%ADD17C,1.6000*%

%LPD*%
D10*
X2590802Y5530187D02*
G01*
X2331824Y5530187D01*
X1678409Y4876772D01*
X1447802Y4876772D01*
X3124202Y5702297D02*
G01*
X2925980Y5504075D01*
X2925980Y4204281D01*
X2636141Y3914442D01*
X2225347Y3914442D01*
X2108202Y4031587D01*
X3124202Y5956297D02*
G01*
X2766240Y5598335D01*
X2766240Y4194324D01*
X2590802Y4018887D01*
X2590802Y3441697D02*
G01*
X2603502Y3428997D01*
X2603502Y2959097D01*
X5073398Y4970599D02*
G01*
X4794100Y4691301D01*
X4794100Y4324195D01*
X4648202Y4178297D01*
X2590802Y6560207D02*
G01*
X2686154Y6464856D01*
X2686154Y5144259D01*
X2590802Y5048907D01*
X1380898Y5854672D02*
G01*
X1380771Y5854545D01*
X1380771Y5277533D01*
X1447802Y5210502D01*
X2349502Y3441697D02*
G01*
X2336802Y3441697D01*
X3124202Y4178297D02*
G01*
X2387602Y3441697D01*
X2349502Y3441697D01*
X2349502Y3441697D02*
G01*
X2349502Y2959097D01*
X1447802Y5130772D02*
G01*
X1447802Y5210502D01*
X1460502Y5854672D02*
G01*
X1380898Y5854672D01*
D11*
G01*
X2095500Y2959100D03*
G01*
X2349500Y2959100D03*
G01*
X2603500Y2959100D03*
G01*
X2082800Y3441700D03*
G01*
X2336800Y3441700D03*
G01*
X2590800Y3441700D03*
D12*
G01*
X1447787Y3619487D03*
G01*
X1447787Y3365487D03*
G01*
X1447787Y4368787D03*
G01*
X1447787Y4114787D03*
G01*
X1447787Y5130787D03*
G01*
X1447787Y4876787D03*
G01*
X1460487Y5854687D03*
G01*
X1460487Y5600687D03*
D13*
G01*
X5073395Y4970602D03*
G01*
X5073395Y4470603D03*
G01*
X5073395Y5170601D03*
G01*
X6153404Y4310583D03*
G01*
X6153404Y5290591D03*
D14*
G01*
X2590800Y4018889D03*
G01*
X2590800Y5048910D03*
G01*
X2108200Y4031589D03*
G01*
X2108200Y5061610D03*
G01*
X2590800Y5530189D03*
G01*
X2590800Y6560210D03*
G01*
X2120900Y5542889D03*
G01*
X2120900Y6572910D03*
D15*
G01*
X4648200Y3416300D03*
D17*
G01*
X3124200Y3670300D03*
G01*
X3124200Y4178300D03*
G01*
X3124200Y4686300D03*
G01*
X3124200Y5194300D03*
G01*
X3124200Y5702300D03*
G01*
X3124200Y6210300D03*
G01*
X3124200Y6718300D03*
G01*
X4648200Y6972300D03*
G01*
X4648200Y6464300D03*
G01*
X4648200Y5956300D03*
G01*
X4648200Y5448300D03*
G01*
X4648200Y4940300D03*
G01*
X4648200Y4432300D03*
G01*
X4648200Y3924300D03*
G01*
X4648200Y3670300D03*
G01*
X4648200Y4178300D03*
G01*
X4648200Y4686300D03*
G01*
X4648200Y5194300D03*
G01*
X4648200Y5702300D03*
G01*
X4648200Y6210300D03*
G01*
X4648200Y6718300D03*
G01*
X3124200Y6972300D03*
G01*
X3124200Y6464300D03*
G01*
X3124200Y5956300D03*
G01*
X3124200Y5448300D03*
G01*
X3124200Y4940300D03*
G01*
X3124200Y4432300D03*
G01*
X3124200Y3924300D03*
D15*
G01*
X3124200Y3416300D03*
M02*
